<svg xmlns="http://www.w3.org/2000/svg" viewBox="0 0 1923 883.21"><defs><style>.cls-1{opacity:0.07;}.cls-2{fill:#49b748;}.cls-3{opacity:0.06;}.cls-4{opacity:0.5;}.cls-5{opacity:0.03;}</style></defs><g id="Layer_2" data-name="Layer 2"><g id="Layer_1-2" data-name="Layer 1"><g id="Group_7026" data-name="Group 7026" class="cls-1"><path id="Path_3549" data-name="Path 3549" class="cls-2" d="M1923,379.44v-83.2l-2.54-1.47L1849.83,254V169.59l-73.12-42.21V42.94L1702.32,0l-74.39,42.94v84.44l-73.12,42.21V254l-43.61,25.17-3.71,2.15-25.8,14.89v83.56c0,.39,0,.53,0,1.21v0a5.69,5.69,0,0,0,.17,1.23L1507.49,397l1.09.63,2.62,1.51,44.88,25.91.76-.44,72.35-41.78,73.13,42.22,73.11-42.22,73.12,42.22,71.86-41.49,2.53-1.46v-.23h.06v-2.47Zm-292.48-335,71.85-41.48,71.85,41.48v83l-22,12.73-49.81,28.76-53.83-31.08-18-10.4Zm-2.54,336.26-71.85,41.48-44.88-25.91-3.71-2.14-23.26-13.43v-83l23.26-13.43,3.71-2.14,44.88-25.91,40.73,23.51,31.12,18Zm-34.66-105.91L1557.35,254v-83l71.85-41.49,40.91,23.62,30.94,17.86v83l-30.94,17.87L1629.2,295.5Zm180.9,105.91-71.84,41.48-71.85-41.48v-83l18-10.4,53.83-31.07,49.8,28.75,22,12.73Zm-34.65-105.91L1703.59,254v-83l35.93-20.75,35.92-20.74,71.85,41.49v83l-35.92,20.74-35.93,20.74Zm109,147.39-71.85-41.48v-83l31.12-18,40.72-23.51,71.85,41.48v83Z"/><g id="Group_6996" data-name="Group 6996"><g id="Group_6992" data-name="Group 6992"><path id="Path_3550" data-name="Path 3550" class="cls-2" d="M1725.27,60.93c.16-.8.31-1.6.46-2.4l-3.81-3.81c-.78,4.18-1.63,8.37-2.64,12.4,1.69-.38,3.36-.8,5-1.28l.09-.42.3.3c1.37-.42,2.72-.87,4-1.38Zm-4.17,7.86-2.39.53h0c-.44,1.65-.93,3.25-1.46,4.83.88-.16,1.77-.32,2.65-.5l2.08-.41.55-.12c.45-1.65.86-3.33,1.25-5C1722.89,68.34,1722,68.57,1721.1,68.79ZM1669,102.94a54.61,54.61,0,0,0-11.25,3.8h0l3.81,3.81c.57-.27,1.14-.51,1.71-.76l3.44,3.44c.3-1.51.6-3,.92-4.48l-.45-.45.59-.18Q1668.34,105.49,1669,102.94Zm47.5-26.59a58,58,0,0,1-2.36,5.5h0l-4.3-4.3c-1.52.28-3,.57-4.5.9l6.86,6.86a29.39,29.39,0,0,1-3.65,4.6l-9.72-9.72c-1.35.43-2.66.92-3.93,1.46l10.79,10.79a23.75,23.75,0,0,1-2.49,1.64c-.9.5-1.82,1-2.76,1.37l-10.89-10.89a20.85,20.85,0,0,0-2.64,2.24l-.25.27,9.9,9.9q-3.16,1.07-6.42,1.83L1683,91.72a36.8,36.8,0,0,0-1.91,3.48l4.54,4.54c-2.29.45-4.6.85-6.91,1.25q-.81,2.33-1.5,4.8c10.3-2,21.06-3.08,29.73-7.9,7.75-4.33,12-12.76,14.93-22.57Q1719.21,75.88,1716.49,76.35Zm-40,25.05c-1.76.32-3.51.65-5.25,1a3,3,0,0,0-.08.32c-.19.72-.38,1.45-.56,2.19,0,.1-.06.21-.08.31-.14.54-.26,1.08-.39,1.62,0,.2-.09.41-.14.61,1.66-.46,3.35-.86,5.06-1.23q.32-1.18.66-2.34a.5.5,0,0,1,0-.13q.36-1.2.75-2.37Z"/><path id="Path_3551" data-name="Path 3551" class="cls-2" d="M1681.65,81.56c-8,8-11.05,21.83-13.63,35.47l3.81,3.81c2.58-13.64,5.61-27.45,13.63-35.47a23.08,23.08,0,0,1,5.12-3.89c13.29-7.39,31.49-5.92,45.44-12.67L1732.21,65c-14,6.75-32.15,5.28-45.44,12.67A23.08,23.08,0,0,0,1681.65,81.56Z"/></g><g id="Group_6993" data-name="Group 6993"><path id="Path_3552" data-name="Path 3552" class="cls-2" d="M1790,196.57a19.77,19.77,0,0,0-19.73,18.59h39.46A19.77,19.77,0,0,0,1790,196.57Z"/><path id="Path_3553" data-name="Path 3553" class="cls-2" d="M1770.25,217.38a19.77,19.77,0,0,0,39.48,0Z"/><path id="Path_3554" data-name="Path 3554" class="cls-2" d="M1753.56,182.19a12.73,12.73,0,0,0-12.7,12.69v38.38a12.69,12.69,0,0,0,25.38,0V194.88A12.73,12.73,0,0,0,1753.56,182.19Zm10,32.57h-19.94V195.3a10,10,0,1,1,19.94,0Z"/></g><g id="Group_6994" data-name="Group 6994"><path id="Path_3555" data-name="Path 3555" class="cls-2" d="M1553.25,302s-21.71,36.36-21.71,48.36a21.72,21.72,0,0,0,43.43,0C1575,338.39,1553.25,302,1553.25,302Zm0,65.51a17.16,17.16,0,0,1-17.15-17.15c0-6.65,9.35-25.41,17.15-39.27,7.81,13.86,17.16,32.61,17.16,39.27A17.17,17.17,0,0,1,1553.25,367.54Z"/><path id="Path_3556" data-name="Path 3556" class="cls-2" d="M1551,360.73a13.25,13.25,0,0,1-6.94-11.66,1.66,1.66,0,0,0-1.66-1.66h0a1.66,1.66,0,0,0-1.66,1.66h0a16.59,16.59,0,0,0,8.68,14.58,1.72,1.72,0,0,0,.8.2,1.69,1.69,0,0,0,1.46-.87A1.66,1.66,0,0,0,1551,360.73Z"/></g><g id="Group_6995" data-name="Group 6995"><path id="Path_3557" data-name="Path 3557" class="cls-2" d="M1659.55,187.06s-2.45,2.35-10,2.35a46.51,46.51,0,0,1-5.78-.4c-12.64-1.63-18-7.22-18-7.22s-5.4,5.59-18,7.22a46.64,46.64,0,0,1-5.78.4c-7.52,0-10-2.35-10-2.35s-7.3,43.33,33.77,67.14C1666.85,230.39,1659.55,187.06,1659.55,187.06Zm-33.76,62.55c-14.83-9.2-24.38-22.15-28.38-38.53a68.78,68.78,0,0,1-1.91-18.36,30.62,30.62,0,0,0,6.48.63,49.13,49.13,0,0,0,6.29-.44,40.58,40.58,0,0,0,17.52-6.13,40.45,40.45,0,0,0,17.51,6.13,49.13,49.13,0,0,0,6.29.44,30.62,30.62,0,0,0,6.48-.63C1656.42,204,1654.15,232,1625.79,249.61Z"/><path id="Path_3558" data-name="Path 3558" class="cls-2" d="M1630.54,202.05h-9.37v9.41h-9.41v9.37h9.41v9.41h9.37v-9.41H1640v-9.37h-9.42Z"/></g><path id="Path_3559" data-name="Path 3559" class="cls-2" d="M1737.79,334.42c-.6-11.21-9.84-19.67-21.51-19.67l-1,0c-7.28.3-12.77,5-15.52,8-2.7-3-8.13-7.84-15.41-8.24-.48,0-1,0-1.41,0-11.47,0-20.69,8.32-21.43,19.35-.7,10.39,6.37,19.43,11.76,25.33a122.58,122.58,0,0,0,24.9,20l1.17.69,1.18-.67a123.59,123.59,0,0,0,25.19-19.65C1731.13,353.76,1738.35,344.82,1737.79,334.42Zm-15.54,21.95c-7.06,7.5-17.11,14.62-22.92,18.1-5.76-3.56-15.7-10.83-22.65-18.44-1.34-1.47-2.8-3.16-4.2-5h14.75a.79.79,0,0,0,.61-.29l.81-1.07,1,4.62a.75.75,0,0,0,.95.49.73.73,0,0,0,.49-.49l1-4.27,1.19,6.31a.76.76,0,0,0,1.45,0l3.65-17.68,3,26.17a.76.76,0,0,0,.9.58.77.77,0,0,0,.57-.55l2.6-15.58,1.06,6.66a.71.71,0,0,0,.69.56.73.73,0,0,0,.75-.47l1.82-5.75.71,3.25a.73.73,0,0,0,.68.53.75.75,0,0,0,.74-.44l.95-2.39.84,1.18a.82.82,0,0,0,.6.3.75.75,0,0,0,.6-.25l1.26-1.43h10.68Q1724.67,353.81,1722.25,356.37Zm5.55-6.67h-12a.79.79,0,0,0-.58.25l-.84.95-1.1-1.53a.78.78,0,0,0-.68-.3.74.74,0,0,0-.63.44l-.56,1.39-.78-3.59a.74.74,0,0,0-.7-.53h0a.71.71,0,0,0-.7.48l-1.72,5.4-1.28-8.06a.76.76,0,0,0-.92-.54.76.76,0,0,0-.54.54l-2.49,14.9-3-25.55a.69.69,0,0,0-.71-.59.72.72,0,0,0-.74.54L1694,352.42l-1.15-6.15a.76.76,0,0,0-.94-.52.75.75,0,0,0-.51.5l-1,4.52-.64-2.92a.69.69,0,0,0-.61-.52.79.79,0,0,0-.72.28l-1.59,2.1h-15.32c-3.18-4.51-5.77-9.89-5.39-15.52.5-7.45,6.42-15,16.76-15,.38,0,.76,0,1.15,0,8.08.45,13.65,8.5,13.7,8.57l1.91,2.84,2-2.81c.05-.08,5.68-8,13.82-8.37,10.87-.43,17.29,7.62,17.69,15.21,0,.29,0,.58,0,.87C1733.14,340.69,1730.74,345.55,1727.8,349.7Z"/><path id="Path_3560" data-name="Path 3560" class="cls-2" d="M1883.94,346.38a8.39,8.39,0,1,0-10.24,8.17v14.1a18.5,18.5,0,0,1-37,0V362.9h8.16a9,9,0,0,0,8.9-7.86l4.67-37.64a9,9,0,0,0-7.8-10,8,8,0,0,0-1.1-.07h-3.38a1.85,1.85,0,0,0,0,3.7h3.38a5.26,5.26,0,0,1,5.26,5.27,4.73,4.73,0,0,1,0,.65l-4.67,37.64a5.27,5.27,0,0,1-5.23,4.62h-20a5.27,5.27,0,0,1-5.23-4.62L1815,317a5.27,5.27,0,0,1,4.58-5.88,4.73,4.73,0,0,1,.65,0H1825a1.85,1.85,0,0,0,0-3.7h-4.78a9,9,0,0,0-9,9,10.15,10.15,0,0,0,.07,1.1L1816,355a9,9,0,0,0,8.9,7.86H1833v5.75a22.2,22.2,0,1,0,44.4,0v-14.1A8.39,8.39,0,0,0,1883.94,346.38Z"/></g></g><g id="Group_7025" data-name="Group 7025" class="cls-3"><g id="Group_6978" data-name="Group 6978" class="cls-4"><path id="Path_3537" data-name="Path 3537" class="cls-2" d="M976.22,832.42l-1.85-1.07v51.82h3.7V831.35Zm0,0-1.85-1.07v51.82h3.7V831.35Zm0,0-1.85-1.07v51.82h3.7V831.35Zm213.25-4.28L1084.7,767.65l-1.85-1.07-1.86,1.07L976.22,828.14l-1.85,1.07v54h3.7V831.35l104.78-60.49,104.77,60.49v51.82h3.71v-54Zm-213.25,4.28-1.85-1.07v51.82h3.7V831.35Zm0,0-1.85-1.07v51.82h3.7V831.35Z"/></g><g id="Group_6979" data-name="Group 6979" class="cls-4"><path id="Path_3538" data-name="Path 3538" class="cls-2" d="M976.22,828.14,871.45,767.65l-1.86-1.07-1.85,1.07L763,828.14l-1.85,1.07v54h3.7V831.35l104.77-60.49h0l104.77,60.49v51.82h3.7v-54Z"/></g><g id="Group_6980" data-name="Group 6980" class="cls-4"><path id="Path_3539" data-name="Path 3539" class="cls-2" d="M761.12,878.11v5.06h3.7v-4.71ZM763,832.42l-1.85-1.07v51.82h3.7V831.35Zm0,0-1.85-1.07v51.82h3.7V831.35Zm0-4.28L687.9,784.8,667.53,773l-1.37-.79-8-4.6-1.86-1.07-1.85,1.07L642,774.86h0l-94.1,54.34v54h3.7V831.35l82.92-47.87h0l21.83-12.61,8.71,5,2.37,1.36h0l21.66,12.5,72,41.59v51.82h3.7v-54Zm0,4.28-1.85-1.07v51.82h3.7V831.35Zm-1.85,27.51v23.24h3.7V860.29Z"/></g><g id="Group_6981" data-name="Group 6981" class="cls-4"><path id="Path_3540" data-name="Path 3540" class="cls-2" d="M1617.83,583,1616,581.9l-1.86,1.07-104.77,60.49-1.86,1.07V769.79l1.86,1.07L1616,832.42l108.47-62.63V644.53Zm102.92,184.68L1616,828.14,1511.2,767.65v-121L1616,586.18l104.77,60.49Z"/></g><g id="Group_6982" data-name="Group 6982" class="cls-4"><path id="Path_3541" data-name="Path 3541" class="cls-2" d="M1404.58,583v2.14l-1.85,1.07,104.76,60.49v-2.14l1.86-1.07Zm0,0v2.14l-1.85,1.07,104.76,60.49v-2.14l1.86-1.07Zm0,0v2.14l-1.85,1.07,104.76,60.49v-2.14l1.86-1.07Zm0,0v2.14l-1.85,1.07,104.76,60.49v-2.14l1.86-1.07Zm0,0v2.14l-1.85,1.07,104.76,60.49v-2.14l1.86-1.07Zm104.77,60.49L1404.58,583l-1.85-1.07-1.86,1.07L1296.1,643.46l-1.85,1.07V769.79l1.85,1.07,106.63,61.56,106.62-61.56,1.85-1.07V644.53ZM1298,767.65v-121l104.78-60.49,104.76,60.49v121h0l-104.76,60.48ZM1404.58,583v2.14l-1.85,1.07,104.76,60.49v-2.14l1.86-1.07Zm0,0v2.14l-1.85,1.07,104.76,60.49v-2.14l1.86-1.07Zm0,0v2.14l-1.85,1.07,104.76,60.49v-2.14l1.86-1.07Zm0,0v2.14l-1.85,1.07,104.76,60.49v-2.14l1.86-1.07Z"/></g><g id="Group_6983" data-name="Group 6983" class="cls-4"><path id="Path_3542" data-name="Path 3542" class="cls-2" d="M1296.1,643.46,1191.32,583l-1.85-1.07-1.85,1.07-104.77,60.49-1.86,1.07V769.79l1.86,1.07,104.77,60.49,1.85,1.07,1.86-1.07,104.77-60.49,1.85-1.07V644.53ZM1084.7,767.65v-121l104.77-60.49,104.78,60.49v121l-104.78,60.49Z"/></g><g id="Group_6984" data-name="Group 6984" class="cls-4"><path id="Path_3543" data-name="Path 3543" class="cls-2" d="M871.45,767.65v-121l-1.86,1.07-1.85-1.07V769.79l1.85,1.07h0l104.77,60.49v-2.14l1.85-1.07Zm0,0v-121l-1.86,1.07-1.85-1.07V769.79l1.85,1.07h0l104.77,60.49v-2.14l1.85-1.07Zm0,0v-121l-1.86,1.07-1.85-1.07V769.79l1.85,1.07h0l104.77,60.49v-2.14l1.85-1.07Zm0,0v-121l-1.86,1.07-1.85-1.07V769.79l1.85,1.07h0l104.77,60.49v-2.14l1.85-1.07Zm-1.86-119.91-1.85-1.07v121l1.85-1.07,1.86,1.07v-121Zm213.26-4.28L978.07,583l-1.85-1.07L974.37,583,869.6,643.46h0l-1.85,1.07V769.79l1.85,1.07h0l104.77,60.49,1.85,1.07,1.85-1.07,104.78-60.49,1.85-1.07V644.53ZM871.45,767.65v-121l104.77-60.49L1081,646.67v121L976.22,828.14Zm-1.86-119.91-1.85-1.07v121l1.85-1.07,1.86,1.07v-121Zm1.86,119.91v-121l-1.86,1.07-1.85-1.07V769.79l1.85,1.07h0l104.77,60.49v-2.14l1.85-1.07Zm0,0v-121l-1.86,1.07-1.85-1.07V769.79l1.85,1.07h0l104.77,60.49v-2.14l1.85-1.07Zm0,0v-121l-1.86,1.07-1.85-1.07V769.79l1.85,1.07h0l104.77,60.49v-2.14l1.85-1.07Z"/></g><g id="Group_6985" data-name="Group 6985" class="cls-4"><path id="Path_3544" data-name="Path 3544" class="cls-2" d="M867.74,769.79v-2.14L763,828.14,687.9,784.8h0L667.53,773l-1.37-.79c.16.61.31,1.22.46,1.83l-1.57,1.81,2.37,1.36h0l21.66,12.5,72,41.59,1.85,1.07,1.85-1.07,104.77-60.49Zm0,0v-2.14L763,828.14,687.9,784.8h0L667.53,773l-1.37-.79c.16.61.31,1.22.46,1.83l-1.57,1.81,2.37,1.36h0l21.66,12.5,72,41.59,1.85,1.07,1.85-1.07,104.77-60.49Zm0,0v-2.14L763,828.14,687.9,784.8h0L667.53,773l-1.37-.79c.16.61.31,1.22.46,1.83l-1.57,1.81,2.37,1.36h0l21.66,12.5,72,41.59,1.85,1.07,1.85-1.07,104.77-60.49Zm0,0v-2.14L763,828.14,687.9,784.8h0L667.53,773l-1.37-.79c.16.61.31,1.22.46,1.83.27,1,.54,2.11.8,3.17h0l21.66,12.5,72,41.59,1.85,1.07,1.85-1.07,104.77-60.49Zm-179.84,15h0L667.53,773l-1.37-.79c.16.61.31,1.22.46,1.83.27,1,.54,2.11.8,3.17h0l21.66,12.5,72,41.59v-2.14l1.85-1.07ZM869.6,643.46h0L764.82,583,763,581.9,761.12,583,654.49,644.53V769.79l1.85,1.07,8.71,5,2.37,1.36h0l21.66,12.5,72,41.59,1.85,1.07,1.85-1.07,104.77-60.49h0l1.85-1.07V644.53ZM687.9,784.8h0L667.53,773l-1.37-.79-8-4.6v-121L763,586.18l104.77,60.49v121L763,828.14Zm0,0h0L667.53,773l-1.37-.79c.16.61.31,1.22.46,1.83.27,1,.54,2.11.8,3.17h0l21.66,12.5,72,41.59v-2.14l1.85-1.07Zm179.84-15v-2.14L763,828.14,687.9,784.8h0L667.53,773l-1.37-.79c.16.61.31,1.22.46,1.83.27,1,.54,2.11.8,3.17h0l21.66,12.5,72,41.59,1.85,1.07,1.85-1.07,104.77-60.49Zm0,0v-2.14L763,828.14,687.9,784.8h0L667.53,773l-1.37-.79c.16.61.31,1.22.46,1.83l-1.57,1.81,2.37,1.36h0l21.66,12.5,72,41.59,1.85,1.07,1.85-1.07,104.77-60.49Zm0,0v-2.14L763,828.14,687.9,784.8h0L667.53,773l-1.37-.79c.16.61.31,1.22.46,1.83l-1.57,1.81,2.37,1.36h0l21.66,12.5,72,41.59,1.85,1.07,1.85-1.07,104.77-60.49Z"/></g><g id="Group_6986" data-name="Group 6986" class="cls-4"><path id="Path_3545" data-name="Path 3545" class="cls-2" d="M1556.84,424.64l-45.64-26.35-1.85-1.07-.77.44-1.09.63-104.76,60.49-1.86,1.07V585.11l1.86,1.07,104.76,60.49,1.86,1.07,1.85-1.07L1616,586.18l1.85-1.07V459.85Zm-47.49,218.82L1404.58,583V462l104.77-60.49L1614.12,462V583Z"/></g><g id="Group_6987" data-name="Group 6987" class="cls-4"><path id="Path_3546" data-name="Path 3546" class="cls-2" d="M1402.73,586.18l-1.86-1.07V583L1296.1,643.46l1.85,1.07v2.14Zm0,0-1.86-1.07V583L1296.1,643.46l1.85,1.07v2.14Zm0,0-1.86-1.07V583L1296.1,643.46l1.85,1.07v2.14Zm0,0-1.86-1.07V583L1296.1,643.46l1.85,1.07v2.14Zm0,0-1.86-1.07V583L1296.1,643.46l1.85,1.07v2.14Zm0-127.4L1298,398.29l-1.85-1.07-1.85,1.07-106.63,61.56V585.11l1.85,1.07,104.78,60.49,1.85,1.07,1.85-1.07,104.78-60.49,1.85-1.07V459.85ZM1191.32,583V462L1296.1,401.5,1400.87,462V583L1296.1,643.46Zm211.41,3.21-1.86-1.07V583L1296.1,643.46l1.85,1.07v2.14Zm0,0-1.86-1.07V583L1296.1,643.46l1.85,1.07v2.14Zm0,0-1.86-1.07V583L1296.1,643.46l1.85,1.07v2.14Zm0,0-1.86-1.07V583L1296.1,643.46l1.85,1.07v2.14Z"/></g><g id="Group_6988" data-name="Group 6988" class="cls-4"><path id="Path_3547" data-name="Path 3547" class="cls-2" d="M869.59,397.22,761.12,459.85V585.11l1.85,1.07,104.77,60.49,1.85,1.07,1.86-1.07,104.77-60.49,1.85-1.07V459.85Zm0,246.24h0L764.82,583V462L869.59,401.5,974.37,462V583Z"/></g><g id="Group_6989" data-name="Group 6989" class="cls-4"><path id="Path_3548" data-name="Path 3548" class="cls-2" d="M1402.73,212.54l-108.48,62.63V400.43l1.85,1.07L1400.87,462l1.86,1.07,1.85-1.07,104.77-60.49,1.85-1.07V275.17Zm104.76,185.75-104.76,60.49L1298,398.29v-121l104.78-60.49,104.76,60.49Z"/></g></g><g id="Group_7024" data-name="Group 7024" class="cls-5"><g id="Group_6998" data-name="Group 6998"><path class="cls-2" d="M908.18,883.17H807.87l0,0-.28,0c-14.22-1.79-28.5-3.33-42.74-4.71l-3.7-.35q-12.69-1.22-25.32-2.29-12.91-1.11-25.74-2.13l-2.1-.16-9.72-.77-9.12-.72-.94-.07c-46.89-3.67-92.46-7.23-136.61-14l-3.7-.57c-41.79-6.54-82.31-16-121.46-31.16-81.12-31.47-154.82-104.8-192.33-191.38C203.87,565,186.2,492,170.05,420.78q-2.1-9.27-4.17-18.49c-.11-.47-.21-.94-.32-1.41-5.86-26-11.65-51.74-17.93-76.85q-2.67-10.71-5.48-21.27h0c-8.25-30.93-17.49-60.75-28.81-88.86q-3.77-9.39-7.87-18.5c-11.79-26.19-25.7-50.68-42.69-72.92q-5.56-7.27-11.57-14.24A285.82,285.82,0,0,0,22.88,79.79,281.52,281.52,0,0,0,0,61.92V40.1a304.29,304.29,0,0,1,34.75,26c92,80.14,119.44,201.88,148.46,330.77l1.56,6.94c.6,2.67,1.21,5.33,1.81,8q1.18,5.25,2.38,10.51c.22,1,.45,2,.68,3,7.18,31.47,14.75,63.24,23.63,94.81q2.92,10.33,6,20.63h0A806.22,806.22,0,0,0,250.38,627l.3.7q3.78,8.71,8.07,17.24a359.09,359.09,0,0,0,45.72,69.39h0q5.89,7,12.08,13.69a344.86,344.86,0,0,0,60.77,52.13q7.65,5.13,15.51,9.73A279.13,279.13,0,0,0,433,809.42c12.45,4.82,25.07,9.05,37.86,12.78q9.65,2.82,19.4,5.26c18.88,4.74,38.11,8.53,57.66,11.66,1.23.2,2.46.4,3.7.58q15.07,2.35,30.39,4.22,10.83,1.35,21.78,2.5c26.59,2.84,53.7,5,81.28,7.15l4.57.36q7.13.54,14.29,1.1,16.67,1.31,33.48,2.76,11.85,1,23.76,2.14l3.7.36C813.12,864.93,861.89,871.27,908.18,883.17Z"/></g><g id="Group_6999" data-name="Group 6999"><path class="cls-2" d="M708.42,875.58c.56,2.52,1.13,5.06,1.7,7.59H691.61c-.84-3.72-1.66-7.43-2.49-11.13q-1.56-7-3.11-14l-1-4.47c-5.73-25.91-11.4-51.39-17.6-76.31h0c-.26-1.06-.53-2.12-.8-3.17-.15-.61-.3-1.22-.46-1.83q-2.46-9.76-5-19.4-1.44-5.34-2.92-10.63-1.82-6.5-3.71-12.91c-6.56-22.26-13.89-44-22.44-65q-3.78-9.33-7.9-18.48c-5.48-12.15-11.42-24.06-17.93-35.72a278.74,278.74,0,0,0-24.9-37q-5.66-7.14-11.8-14a344.84,344.84,0,0,0-60.08-52.91Q502,501,494.19,496.11a359.17,359.17,0,0,0-75.08-35.63q-9-3.06-18.2-5.59l-.73-.2a810.1,810.1,0,0,0-89.73-18.78q-10.63-1.65-21.28-3.09c-32.51-4.41-65-7.48-97.18-10.21l-3-.25-10.76-.91-8.15-.67L163,420.2c-56.31-4.62-111.28-9.13-163-19V382.69c20.79,4.1,42.18,7.3,64,9.95q10.83,1.32,21.82,2.47c25.74,2.72,52,4.88,78.6,7.06l1.44.12,18.89,1.56c72.8,6.07,147.54,13.41,221,33.6,91,25.09,173.84,87.87,216.29,163.82A523.1,523.1,0,0,1,654.49,672q1.9,5,3.71,10.09c11.83,33.06,21.19,67.39,29.7,102.71h0q.6,2.48,1.18,5c5,21.13,9.78,42.6,14.6,64.37.07.3.13.6.2.9q1,4.5,2,9h0c.69,3.16,1.39,6.31,2.1,9.48C708.11,874.21,708.27,874.89,708.42,875.58Z"/></g><g id="Group_7023" data-name="Group 7023"><g id="Group_7002" data-name="Group 7002"><polygon class="cls-2" points="832.46 882.46 831.84 883.17 807.87 883.17 818.81 870.59 832.46 882.46"/></g><g id="Group_7003" data-name="Group 7003"><rect id="Rectangle_1681" data-name="Rectangle 1681" class="cls-2" x="696.62" y="859.67" width="11.58" height="18.09" transform="translate(-414.04 828.9) rotate(-49)"/></g><g id="Group_7004" data-name="Group 7004"><rect id="Rectangle_1682" data-name="Rectangle 1682" class="cls-2" x="563.23" y="795.29" width="130.24" height="18.09" transform="translate(-390.92 750.86) rotate(-49)"/></g><g id="Group_7005" data-name="Group 7005"><rect id="Rectangle_1683" data-name="Rectangle 1683" class="cls-2" x="431.71" y="730.9" width="245.19" height="18.09" transform="translate(-367.8 672.83) rotate(-49)"/></g><g id="Group_7006" data-name="Group 7006"><rect id="Rectangle_1684" data-name="Rectangle 1684" class="cls-2" x="325.87" y="666.52" width="308.74" height="18.09" transform="translate(-344.68 594.8) rotate(-49)"/></g><g id="Group_7007" data-name="Group 7007"><rect id="Rectangle_1685" data-name="Rectangle 1685" class="cls-2" x="251.13" y="602.12" width="310.06" height="18.09" transform="translate(-321.56 516.74) rotate(-49)"/></g><g id="Group_7008" data-name="Group 7008"><rect id="Rectangle_1686" data-name="Rectangle 1686" class="cls-2" x="203.87" y="537.75" width="256.46" height="18.09" transform="translate(-298.45 438.7) rotate(-49)"/></g><g id="Group_7009" data-name="Group 7009"><rect id="Rectangle_1687" data-name="Rectangle 1687" class="cls-2" x="183.6" y="473.38" width="148.87" height="18.09" transform="translate(-275.34 360.66) rotate(-49)"/></g><g id="Group_7010" data-name="Group 7010"><rect id="Rectangle_1688" data-name="Rectangle 1688" class="cls-2" x="177.61" y="408.99" width="12.75" height="18.09" transform="translate(-252.21 282.63) rotate(-49)"/></g><g id="Group_7011" data-name="Group 7011"><rect id="Rectangle_1689" data-name="Rectangle 1689" class="cls-2" x="45.56" y="344.59" width="128.7" height="18.09" transform="translate(-229.09 204.58) rotate(-49)"/></g><g id="Group_7012" data-name="Group 7012"><polygon class="cls-2" points="122.94 202.85 113.34 213.89 0 344.28 0 316.71 105.47 195.39 109.29 190.99 122.94 202.85"/></g><g id="Group_7013" data-name="Group 7013"><polygon class="cls-2" points="69.94 114.24 62.78 122.47 0 194.7 0 167.14 51.21 108.23 56.29 102.38 69.94 114.24"/></g></g></g></g></g></svg>