<svg xmlns="http://www.w3.org/2000/svg" width="58.018" height="45.807" viewBox="0 0 58.018 45.807">
  <g id="bonus_green" data-name="bonus green" transform="translate(-386.643 -1386.571)">
    <g id="Group_6801" data-name="Group 6801" transform="translate(386.643 1386.571)">
      <path id="Path_3287" data-name="Path 3287" d="M-463.14,15.084V32.828a7.826,7.826,0,0,1-7.826,7.825l-31.929-.1-17.666-.053h-.6l.046-.148.337-1.082,9.983-32.016h39.826A7.827,7.827,0,0,1-463.14,15.084Z" transform="translate(521.158 -7.257)" fill="#49b748"/>
      <path id="Path_3289" data-name="Path 3289" d="M-439.379,28.326v15.43a6.806,6.806,0,0,1-6.8,6.8l-27.765-.083-15.362-.046h-.519l.04-.129.293-.941,8.681-27.841h34.632A6.806,6.806,0,0,1-439.379,28.326Z" transform="translate(494.211 -19.525)" fill="none" stroke="#fff" stroke-miterlimit="10" stroke-width="1"/>
      <path id="Path_3290" data-name="Path 3290" d="M-500.252,250l-20.335-12.56-.241-.148.337-1.082,17.808.906.072.379.727,3.851Z" transform="translate(520.874 -204.191)" fill="#49b748"/>
      <path id="Path_3291" data-name="Path 3291" d="M-516.885,245.017c.125,0,18.393,3.9,18.393,3.9l-.727-3.852Z" transform="translate(517.483 -211.769)" fill="#2f9f2e"/>
    </g>
  </g>
</svg>
