<svg xmlns="http://www.w3.org/2000/svg" width="399.412" height="137.696" viewBox="0 0 399.412 137.696">
  <g id="Group_6761" data-name="Group 6761" transform="translate(-0.015 0.506)" opacity="0.36">
    <path id="Path_1" data-name="Path 1" d="M577.073,467.648c-1.141,4.813-3.462,15.8-7.443,17.265-3.83,1.41-6.5-2.172-7.405-4.666-2.059-5.69-2.266-16.425-.436-21.95,2.794-8.429,9.106-7.717,12.823-.249.9,1.818,2.987,7.387,2.461,9.6Zm3.269,13.807c.819.754.723,3.135,2.5,5.439,2.471,3.208,7.324,3.487,9.581-2.383.434-1.127,1.805-5.824.783-6.829a3.515,3.515,0,0,0-2.641.031c-.658,2.013.065,3.5-1.441,5.206-1.589,1.807-3.449.352-4.239-1.317a28.426,28.426,0,0,1-1.516-5.211c-.4-1.575.318-2.785.94-5.34.919-3.774,1.818-7.194,2.752-10.922.446-1.776,2.84-9.912,2.45-11.005-.913-.258-6.645-.36-7.424.036-.618.429-1.307,4.128-1.5,4.884-.429,1.673-.888,3.47-1.353,5.19-.245-.226-.113-.017-.364-.446a3.777,3.777,0,0,1-.283-.672l-1.738-3.644c-6.643-11.973-24.038-7.317-25.135,12.788-.459,8.413,2.8,17.234,8.58,20.3a17.169,17.169,0,0,0,12.337.771,12.943,12.943,0,0,0,7.713-6.869Z" transform="translate(-435.16 -354.131)" fill="#a1a1a1" stroke="#a1a1a1" stroke-width="1" fill-rule="evenodd"/>
    <path id="Path_2" data-name="Path 2" d="M744.532.369c-6.36-1.667-18.74,2.8-23.483,5.414C687.1,24.5,691.417,61.756,694.23,63.1c2.084,1,10.859-.877,12.794-1.393,21.37-5.7,38.392-27.184,38.911-48.227.082-3.311-.044-10.631-1.405-13.114Z" transform="translate(-546.393 0)" fill="#a1a1a1" stroke="#a1a1a1" stroke-width="1" fill-rule="evenodd"/>
    <path id="Path_3" data-name="Path 3" d="M432.7,86.832c.859,1.215,6.358,3.99,7.9,5a86.92,86.92,0,0,1,7.334,5.449c11.711,9.594,21.525,23.2,27.779,36.916.769,1.686,3.108,8.023,4.111,8.963a6.721,6.721,0,0,0,3.692-1.822c.375-3.236-3.8-15.133-4.955-18.256a115.564,115.564,0,0,0-16.733-30.664c-2.17-2.76-9.081-11.19-11.715-11.992-4.769,3.845-7.217,5.992-14.681,5.9-.251,0-1.3-.008-1.487.023l-.953.322A1.335,1.335,0,0,0,432.7,86.832Z" transform="translate(-341.108 -63.581)" fill="#a1a1a1" stroke="#a1a1a1" stroke-width="1" fill-rule="evenodd"/>
    <path id="Path_4" data-name="Path 4" d="M40.761,378.448c1.035,3.194,4.488,14.243,5.179,17.351.517,2.331-.174,3.194-2.589,3.194H41.107c-.517,0-.691.172-.691.691v1.726c0,.517.174,1.037.863,1.037,1.9,0,4.834-.26,12.086-.26,9.5,0,11.221.26,12.775.26.691,0,.863-.517.863-1.037V399.6c0-.431-.174-.6-.691-.6H63.549c-1.726,0-3.971-1.037-5.525-3.971-1.208-2.331-6.733-18.386-8.8-25.119-1.554-5.525-8.287-24.861-9.841-30.212-.174-.517-.517-1.554-1.037-1.554-.431,0-.777.346-1.294.863a27.97,27.97,0,0,1-8.545,4.316c-.691.174-.863.517-.863.863a1.974,1.974,0,0,0,.517,1.037c.517.517,0,2.071-.172,2.936l-8.459,22.616c-2.591,7.25-8.8,22.788-9.667,24.342C8.307,397.789,6.753,399,4.336,399H1.747c-.346,0-.517.172-.517.691v1.64c0,.6,0,1.122.517,1.122,1.208,0,3.108-.26,9.5-.26,6.042,0,9.667.26,10.876.26.517,0,.691-.345.691-.863v-2.159c0-.26-.172-.432-.863-.432H18.321c-1.726,0-3.108-.951-3.108-2.071a7.372,7.372,0,0,1,.174-1.812c.431-2.331,4.662-14.675,5.351-16.66H40.764Zm-18.819-3.454c.6-1.985,8.373-23.219,8.718-24.342.26-.777.605-1.122,1.123-1.122.346,0,.517.517.863,1.554.517,1.726,6.388,21.408,7.25,23.91Zm52.051-5.87v27.018c0,2.417-1.294,3.108-2.159,3.108h-3.28c-1.037,0-1.208.174-1.208.691v1.64c0,.517.172.863.691.863.691,0,4.142-.26,10.7-.26,6.042,0,9.841.26,10.53.26.346,0,.517-.346.517-.863v-1.554c0-.6-.172-.777-1.037-.777h-3.28c-1.9,0-2.071-1.208-2.245-2.762-.174-2.591-.174-11.395-.174-15.366v-12.43c0-4.748.174-22.7.346-27.364,0-1.208-.346-1.554-.863-1.554a7.831,7.831,0,0,0-1.9.517c-2.762,1.728-9.5,3.971-12.947,5.007-.517.174-.691.517-.691.691v1.037c0,.346,0,.517.517.691l1.728.517c2.762.863,4.23,2.245,4.4,5.179.174,2.245.346,9.667.346,15.711Zm32.543,1.294h9.407c.691,0,1.037-.086,1.123-.431l.431-3.108c0-.346,0-.777-.691-.777H106.534V363.34c.086-6.473-.26-13.38,1.985-16.486a5.81,5.81,0,0,1,5.351-2.762,4.254,4.254,0,0,1,3.453,2.245,5.089,5.089,0,0,0,2.417,2.245,4.711,4.711,0,0,0,2.762.691c1.726,0,4.316-1.728,4.316-4.143,0-3.625-3.8-5.351-8.459-5.351-5.179,0-9.841,1.726-14.5,6.216-3.8,3.971-6.388,9.667-6.388,18.471v1.64H92.639c-.691,0-1.123.086-1.123.431l-.346,2.936c-.086.691.086.949.431.949h5.87v25.9c0,1.9-.517,2.934-2.245,2.934H91.774c-.691,0-.863.174-.863.517v1.985c0,.517.172.691.691.691.691,0,5.179-.26,10.358-.26,7.6,0,10.876.26,11.395.26.346,0,.517-.346.517-.863V400.03c0-.6-.174-.777-.863-.777h-3.971c-1.554,0-2.245-.863-2.417-2.417-.174-2.417-.086-11.912-.086-18.819v-7.6Z" transform="translate(0 -267.319)" fill="#a1a1a1" stroke="#a1a1a1" stroke-miterlimit="2.613" stroke-width="2.43"/>
    <path id="Path_5" data-name="Path 5" d="M762.771,378.482c0,10.013-.172,23.479-.26,24.342-.26,2.331-.949,2.677-3.885,2.677h-2.763c-.517,0-.517.174-.517.691v2.159c0,.26,0,.6.691.6.863,0,4.316-.26,11.912-.26,9.322,0,12.084.26,13.295.26.691,0,.691-.346.691-.863V406.1c0-.26,0-.605-.691-.605h-4.834c-1.554,0-2.417-.863-2.677-2.762-.086-1.122-.086-12.863-.086-17.005v-3.8a53.471,53.471,0,0,0,7.77.346c14.675,0,22.962-6.733,22.962-17.437a16.343,16.343,0,0,0-6.561-13.121c-5.007-3.453-10.013-4.4-20.371-4.4-2.936,0-7.942.26-9.5.26-8.633,0-11.74-.26-12.775-.26-.346,0-.517.174-.517.691v2.159c0,.431.174.6.517.6h4.488c1.9,0,2.848.431,3.022,1.9.086.951.086,10.1.086,15.8v10.013Zm10.876-27.621c1.38-.691,3.454-.605,5.007-.605,4.142,0,13.64,2.676,13.64,14.415,0,3.108-.346,6.388-2.071,8.978-2.071,2.934-6.561,5.87-10.358,5.87a22.067,22.067,0,0,1-6.216-.691V350.86Zm66.3,44.715c0,2.762,0,7.25-.174,8.459-.174,1.38-1.38,1.726-2.417,1.726h-1.468c-.431,0-.6.174-.6.517v2.071c0,.431.172.6.691.6.863,0,3.971-.26,9.15-.26,5.265,0,8.027.26,8.547.26s.691-.26.691-.691v-1.9c0-.431-.172-.605-.863-.605h-1.554c-1.38,0-2.936-.172-2.936-1.38V387.8c0-4.919.174-9.238-3.8-12.689-2.589-2.245-4.834-3.453-8.633-3.453-4.057,0-8.718,1.9-11.135,5.265h-.517V371.57c0-4.23,0-21.667.174-23.219.174-1.38,0-2.071-.691-2.071a7.415,7.415,0,0,0-2.417.691c-2.762,1.38-8.633,4.316-11.221,5.007-1.035.517-1.208.691-1.208,1.035v.863c0,.346.174.517.691.691l1.554.517c2.936,1.208,3.971,2.934,3.971,7.77l.174,30.817a85.728,85.728,0,0,1-.431,10.7c-.26,1.037-1.468,1.38-2.848,1.38H810.51c-.432,0-.777.174-.777.605v1.9c0,.517.26.691.691.691.691,0,3.971-.26,9.324-.26,4.488,0,8.287.26,8.978.26.517,0,.691-.346.691-.863v-1.554c0-.6-.346-.777-.863-.777h-2.071c-1.208,0-1.554-.863-1.554-3.625V383.487a7.517,7.517,0,0,1,1.554-4.23,9.37,9.37,0,0,1,6.387-3.108,6.271,6.271,0,0,1,4.834,2.071c2.245,2.245,2.245,7.079,2.245,11.567v5.784Zm38.671,8.89a7.124,7.124,0,0,0,7.25,5.265,8.673,8.673,0,0,0,7.942-5.007c.346-.863.174-1.208-.174-1.38l-1.034-.691c-.346-.172-.517-.172-.863.346a3.319,3.319,0,0,1-2.762,1.38c-1.554,0-2.245-1.38-2.245-6.042v-4.142l-.174-13.638c0-2.331-.174-4.748-2.071-6.476-1.554-1.38-3.108-2.417-7.941-2.417a22.748,22.748,0,0,0-13.984,4.833,9.166,9.166,0,0,0-3.971,7.079,2.807,2.807,0,0,0,2.936,2.936c3.625,0,5.179-1.9,5.179-5.007,0-2.071-.863-3.366.345-4.23a8.989,8.989,0,0,1,5.008-1.554c1.9,0,3.453.345,4.316,1.294,1.037,1.037,1.208,3.108,1.38,4.834v4.488c-1.9,1.38-5.179,2.762-10.532,5.353-6.216,2.762-7.942,6.647-7.942,10.618,0,4.834,2.762,7.424,5.956,7.424a18.093,18.093,0,0,0,5.525-.6,16.723,16.723,0,0,0,7.51-4.662Zm-.863-3.625c0,1.554-3.108,3.971-5.525,4.142-2.071,0-3.971-1.728-3.971-5.265,0-6.3,5.7-7.77,9.5-10.187Zm23.824,2.588a2.034,2.034,0,0,1-2.245,2.331h-3.022c-.6,0-.777.174-.777.691v1.9c0,.431.171.6.6.6.691,0,4.057-.26,10.1-.26,6.3,0,10.1.26,10.7.26.432,0,.6-.174.6-.6v-1.985c0-.431-.174-.605-.691-.605h-3.8c-1.728,0-2.417-.863-2.417-3.625V385.648a9.826,9.826,0,0,1,1.037-4.23,4.5,4.5,0,0,1,3.625-2.5,3.956,3.956,0,0,1,2.417.691,6.681,6.681,0,0,0,2.936.691,5.013,5.013,0,0,0,4.662-4.662,4.216,4.216,0,0,0-4.488-4.316c-3.8,0-7.424,2.936-10.358,7.77h-.346l-.777-6.388c-.086-.517-.26-1.035-.777-1.035a4.031,4.031,0,0,0-1.38.346l-10.444,4.919c-.517.258-.691.431-.691.777v.517c0,.346.174.517.691.691l1.554.863c2.591,1.38,3.279,2.762,3.279,6.733v16.92Zm26.932-26.587c-.345.174-.6.346-.6.691v.863c0,.346.174.517.6.777l1.814.949c2.071,1.208,2.589,2.762,2.589,5.525v17.868c-.172,1.554-.691,2.245-1.554,2.245h-2.591c-.691,0-1.034.174-1.034.605v1.812c0,.6.172.777.691.777.691,0,3.453-.26,8.633-.26,5.525,0,7.942.26,8.633.26.517,0,.691-.26.691-.691v-1.985c0-.346-.174-.517-.863-.517h-1.9c-1.037,0-1.726-.863-1.726-3.971V386.423c0-2.5.172-4.4,1.38-6.128a7.539,7.539,0,0,1,6.216-3.625,7.821,7.821,0,0,1,4.662,1.208c1.209,1.037,2.245,2.936,2.245,9.15v14.76c0,3.108-.863,3.971-2.071,3.971h-1.9c-.517,0-.691.174-.691.863v1.64c0,.431.174.691.6.691.517,0,3.366-.26,8.719-.26,5.525,0,7.77.26,8.459.26.432,0,.517-.26.517-.691v-1.9c0-.431-.174-.605-.863-.605h-2.245c-1.037,0-1.554-.863-1.554-2.762V386.94c0-2.331,0-4.919,1.294-6.733,1.123-1.64,3.711-3.539,6.128-3.539a6.645,6.645,0,0,1,5.179,1.9c1.554,1.38,1.9,3.625,1.9,7.77v10.1c0,2.589-.172,5.7-.345,7.6a1.625,1.625,0,0,1-1.726,1.726h-1.38c-.517,0-.691.174-.691.691v1.812c0,.431.172.691.691.691s3.625-.26,8.459-.26c5.351,0,7.77.26,8.287.26s.691-.26.691-.777v-1.812c0-.431-.174-.605-.691-.605h-2.245c-1.208,0-2.245-.691-2.245-2.589,0-1.037.174-5.179.174-7.6v-9.841c0-7.51-1.64-8.718-3.97-11.135-2.245-2.417-4.49-2.934-7.942-2.934a15.709,15.709,0,0,0-12.086,6.388h-.517c-2.071-3.8-5.008-6.388-10.187-6.388a16.463,16.463,0,0,0-12.43,6.216h-.346l-.517-5.007c-.086-.863-.517-1.208-1.037-1.208a3.848,3.848,0,0,0-1.726.517l-9.581,4.662Z" transform="translate(-595.641 -273.755)" fill="#a1a1a1" stroke="#a1a1a1" stroke-miterlimit="2.613" stroke-width="2.43"/>
  </g>
</svg>
