<svg id="facebook_5_" data-name="facebook (5)" xmlns="http://www.w3.org/2000/svg" width="33.252" height="33.252" viewBox="0 0 33.252 33.252">
  <path id="Path_1380" data-name="Path 1380" d="M29.1,0H4.156A4.16,4.16,0,0,0,0,4.156V29.1a4.161,4.161,0,0,0,4.156,4.156H29.1A4.162,4.162,0,0,0,33.252,29.1V4.156A4.161,4.161,0,0,0,29.1,0Z" fill="#3b5999"/>
  <path id="Path_1381" data-name="Path 1381" d="M19.391,14.891V10.735c0-1.147.931-1.039,2.078-1.039h2.078V4.5H19.391a6.233,6.233,0,0,0-6.235,6.235v4.156H9v5.2h4.156v11.43h6.235V20.087h3.117l2.078-5.2Z" transform="translate(3.469 1.735)" fill="#fff"/>
</svg>
