<svg xmlns="http://www.w3.org/2000/svg" width="31" height="30" viewBox="0 0 31 30">
  <g id="Group_5980" data-name="Group 5980" transform="translate(-317.854 -663)">
    <ellipse id="Ellipse_359" data-name="Ellipse 359" cx="15.5" cy="15" rx="15.5" ry="15" transform="translate(317.854 663)" fill="#f36e26"/>
    <circle id="Ellipse_360" data-name="Ellipse 360" cx="1.515" cy="1.515" r="1.515" transform="translate(331.046 682.724)" fill="#fff"/>
    <path id="Path_1665" data-name="Path 1665" d="M180.849,128.5A4.855,4.855,0,0,0,176,133.349a1.212,1.212,0,0,0,2.425,0,2.425,2.425,0,1,1,2.425,2.425,1.212,1.212,0,0,0-1.212,1.212v3.031a1.212,1.212,0,0,0,2.425,0v-1.972a4.849,4.849,0,0,0-1.212-9.545Z" transform="translate(151.713 540.586)" fill="#fff"/>
  </g>
</svg>
