<?xml version="1.0" encoding="utf-8"?>
<!-- Generator: Adobe Illustrator 21.1.0, SVG Export Plug-In . SVG Version: 6.00 Build 0)  -->
<svg version="1.1" id="Слой_1" xmlns="http://www.w3.org/2000/svg" xmlns:xlink="http://www.w3.org/1999/xlink" x="0px" y="0px"
	 viewBox="0 0 85 38" style="enable-background:new 0 0 85 38;" xml:space="preserve">
<style type="text/css">
	.st0{fill:#333333;}
	.st1{fill:#FC7916;}
</style>
<title>Монтажная область 1 копия</title>
<path class="st0" d="M84.8,26.2c-0.4,0-0.8,0-1.2,0s-0.4-0.1-0.4-0.4c0-1.5,0-3.1,0-4.6c0-2-1.6-3.7-3.6-3.8c-2,0-3.7,1.6-3.8,3.6
	c0,1.6,0,3.2,0,4.8c0,0.3-0.1,0.5-0.4,0.4c-0.3,0-0.7,0-1,0c-0.3,0-0.3-0.1-0.3-0.3c0-1.6,0-3.2,0-4.8c0-2.1-1.7-3.7-3.8-3.7
	c-2.1,0-3.7,1.7-3.7,3.8c0,1.6,0,3.2,0,4.7c0,0.3-0.1,0.4-0.4,0.4s-1,0.1-1.2-0.1s-0.1-0.8-0.1-1.2c0-2.9,0-5.7,0-8.6
	c0-0.3,0.1-0.5,0.4-0.4c0.3,0,0.7,0,1,0c0.3,0,0.3,0.1,0.3,0.3s0,0.5,0,0.8c0.2,0.1,0.2-0.1,0.3-0.2c2.3-1.9,5.7-1.6,7.6,0.7
	c0.1,0.1,0.1,0.1,0.2,0.2c0.2,0.3,0.3,0.3,0.5,0c1.8-2.4,5.2-2.8,7.6-1c1.1,0.8,1.8,2,2,3.3c0,0.1,0,0.2,0.1,0.2L84.8,26.2z"/>
<path class="st0" d="M47.1,17.1c0.7-0.6,1.5-1,2.3-1.3c1.4-0.3,1.3-0.4,1.4,1c0,0.3-0.1,0.5-0.5,0.5c-1.8,0.2-3.2,1.7-3.3,3.6
	c0,1.6,0,3.2,0,4.8c0,0.4-0.1,0.5-0.5,0.5c-0.3,0-0.6,0-0.9,0c-0.2,0-0.3-0.1-0.3-0.3c0-0.6,0-1.2,0-1.8c0-2.6,0-5.2,0-7.8
	c0-0.3,0.1-0.4,0.4-0.4c0.3,0,0.7,0,1,0c0.2,0,0.3,0.1,0.3,0.3S47.1,16.7,47.1,17.1z"/>
<path class="st0" d="M28.2,21.1c0-1.6,0-3.2,0-4.8c0-0.3,0.1-0.4,0.4-0.4c0.3,0,0.7,0,1,0c0.3,0,0.3,0.2,0.3,0.4c0,2.6,0,5.2,0,7.8
	c0,0.6,0,1.2,0,1.8c0,0.3-0.1,0.3-0.3,0.3c-0.3,0-0.7,0-1,0c-0.3,0-0.3-0.1-0.3-0.4C28.2,24.3,28.2,22.7,28.2,21.1z"/>
<path class="st0" d="M27.9,13.2c-0.1-0.6,0.4-1.2,1-1.2s1.2,0.4,1.2,1c0,0.1,0,0.1,0,0.2c-0.1,0.6-0.6,1.1-1.2,1
	C28.4,14.2,28,13.8,27.9,13.2z"/>
<path class="st1" d="M1.2,18.1c0.5-0.1,0.7-0.5,0.7-1.2s0-1.2,0-1.8l0,0c0.1-0.7,0.3-1.4,0.5-2.1c0.3-0.8,0.8-1.5,1.4-2.2
	c0.7-0.7,1.5-1.3,2.5-1.8C7.1,8.7,8,8.5,9,8.4h0.5c0.1,0,0.3,0,0.4,0l0.6,0.1c1.3,0.3,2.5,0.8,3.6,1.5c0.5,0.3,1.1,0.2,1.4-0.3
	c0,0,0-0.1,0-0.1c0.2-0.5,0-1.1-0.5-1.3c0,0-0.1,0-0.1,0c-0.5-0.3-1.1-0.6-1.6-0.9c-1.5-0.7-3.2-1-4.9-0.8c-1.4,0.2-2.8,0.7-4,1.5
	c-1.1,0.6-2,1.5-2.7,2.6c-0.5,0.6-0.9,1.4-1.2,2.2l-0.2,0.4c-0.1,0.4-0.2,0.8-0.3,1.3v3C0.4,18.1,0.7,18.2,1.2,18.1z"/>
<path class="st1" d="M7.4,22.4c0.2,1,1.1,1.7,2.1,1.5c0.2,0,0.3-0.1,0.5-0.1c1.4-0.8,2.8-1.6,4.1-2.4c0.5-0.3,1-0.5,1.5-0.9
	c0.6-0.3,0.9-1,0.8-1.6l0,0c0-0.6-0.3-1.1-0.7-1.4c-0.5-0.4-1.1-0.7-1.7-1l0,0c-0.4-0.2-0.8-0.5-1.2-0.7c-0.9-0.6-1.8-1.1-2.8-1.6
	c-0.9-0.4-2,0-2.4,0.9c-0.1,0.2-0.1,0.4-0.2,0.6c0,0.5,0,1.1,0,1.7c0,0.5,0.5,0.9,1,0.8c0,0,0,0,0,0c0.5,0,0.9-0.4,0.9-0.9
	c0-0.3,0-0.5,0-0.8s0.2-0.4,0.5-0.3l0.9,0.5l0,0c0.8,0.5,1.6,0.9,2.4,1.4c0.5,0.2,0.9,0.5,1.3,0.8c0,0.2-0.2,0.3-0.4,0.4l-3,1.8
	c-0.4,0.2-0.8,0.5-1.2,0.7S9.3,22,9.3,21.6s0-0.5,0-0.7c0-0.5-0.4-0.9-0.9-1s-0.9,0.4-1,0.9c0,0.3,0,0.5,0,0.8l0,0
	C7.4,21.9,7.3,22.2,7.4,22.4z"/>
<path class="st1" d="M16.4,24.5c0.4-0.2,0.8-0.5,1.2-0.7c0.8-0.5,1.5-1.2,1.9-2.1c0.4-0.8,0.7-1.6,0.6-2.5c0.1-1.2-0.2-2.3-0.9-3.3
	c-0.9-1.5-2.5-2.1-4-3L12,11.1c-1.2-0.7-2.5-0.9-3.9-0.6c-1.4,0.3-2.7,1.1-3.5,2.3l0,0c-0.7,0.9-1,1.9-1,3l0,0c0,0.1,0,0.1,0,0.2
	c0,2,0,4.1,0,6.1c0,0.9,0.2,1.7,0.6,2.5l0,0c0.8,1.8,2.5,3,4.5,3.2c1.7,0.1,3.3-0.4,4.6-1.5c0.4-0.3,0.5-0.8,0.2-1.2
	c-0.2-0.4-0.8-0.6-1.2-0.3c-0.4,0.2-0.8,0.5-1.2,0.7c-0.7,0.4-1.4,0.5-2.2,0.5c-1.1-0.1-2.1-0.7-2.7-1.5c-0.3-0.5-0.5-1-0.6-1.5
	c-0.1-1,0-2-0.1-3.1v-3.9c0-0.3,0.1-0.7,0.2-1C6,14.1,6.4,13.5,7,13l0,0l0.2-0.1c1.2-0.8,2.8-0.9,4-0.1l0.6,0.3
	c0.1,0,0.1,0.1,0.2,0.1l4.9,2.8c0.8,0.6,1.3,1.5,1.4,2.5c0,0.3,0,0.6,0,0.9c-0.1,0.8-0.4,1.5-0.9,2.1l0,0c-0.6,0.5-1.3,1-2,1.3
	C15,23,14.8,23.6,15,24.1c0,0,0,0.1,0,0.1C15.3,24.6,15.9,24.8,16.4,24.5C16.4,24.5,16.4,24.5,16.4,24.5z"/>
<path class="st1" d="M23.5,16.3c-0.3-1.2-0.9-2.2-1.7-3.1l0,0l-0.3-0.3c-0.9-1-2.1-1.9-3.3-2.5c-0.5-0.3-1-0.2-1.3,0.3
	c-0.3,0.4-0.1,1,0.3,1.3c0,0,0.1,0,0.1,0c0.7,0.4,1.5,0.8,2.1,1.3l0,0c1,0.8,1.7,1.9,2.2,3.1c0.4,1.3,0.6,2.7,0.4,4.1
	c-0.3,1.2-0.8,2.4-1.6,3.4c-0.7,0.8-1.6,1.5-2.6,2c-0.3,0.1-0.6,0.3-0.9,0.5l-4,2.3l0,0l-0.2,0.1c-1.2,0.7-2.7,1-4.1,0.8
	c-0.7-0.1-1.3-0.2-2-0.4c-0.5-0.2-1-0.5-1.5-0.8c-0.9-0.7-1.7-1.5-2.3-2.5C2.3,25,2,24,1.9,22.9c-0.1-0.7,0-1.5-0.1-2.2
	c0-0.4-0.4-0.8-0.8-0.8c-0.4,0-0.8,0.2-1,0.6v3c0.1,0,0.1,0.2,0.1,0.3c0.1,0.7,0.3,1.5,0.7,2.2l0,0c0.5,1.3,1.4,2.4,2.5,3.3
	c2.1,1.9,5,2.7,7.8,2.1c1.8-0.4,3.5-1.2,4.9-2.3c0.8-0.4,1.5-0.9,2.3-1.3c0.6-0.3,1.2-0.7,1.8-1.1c1.1-0.7,1.9-1.6,2.6-2.7
	c0.7-1.1,1.2-2.3,1.3-3.6C24.1,19,24,17.6,23.5,16.3z"/>
<path class="st0" d="M42.9,20.1c0-2.5,0-5.1,0-7.7c0-0.3,0-0.4-0.3-0.3c-0.3,0-0.7,0-1,0c-0.3,0-0.3,0.1-0.3,0.3c0,1.2,0,2.3,0,3.5
	v1.2c-2.2-2-5.6-1.9-7.7,0.2c-2,2.2-1.9,5.6,0.2,7.7c2.1,2,5.3,2,7.4,0c0,0.3,0,0.6,0,0.9s0.1,0.3,0.3,0.3c0.3,0,0.7,0,1,0
	c0.3,0,0.4-0.1,0.4-0.4C42.9,23.9,42.9,22,42.9,20.1z M37.5,24.8c-2.1,0-3.7-1.7-3.7-3.7c0-2.1,1.7-3.7,3.7-3.7
	c2.1,0,3.7,1.7,3.7,3.7c0,0,0,0,0,0C41.2,23.1,39.6,24.8,37.5,24.8z"/>
<path class="st0" d="M62.3,16c-0.3-0.2-0.9-0.1-1.3-0.1l0,0c-0.2,0-0.2,0.1-0.2,0.2s0,0.6,0,0.9c-1.1-1-2.7-1.6-4.2-1.4
	c-1.5,0.1-2.9,0.9-3.8,2.1c-1.8,2.4-1.3,5.8,1.1,7.6c2.1,1.6,5,1.4,6.9-0.4c0,0.4,0,0.7,0,0.9s0.1,0.2,0.2,0.2c0.3,0,0.7,0,1,0
	c0.3,0,0.4-0.1,0.4-0.4c0-2.8,0-5.7,0-8.5C62.4,16.8,62.6,16.2,62.3,16z M57,24.8c-2.1,0-3.7-1.7-3.7-3.7c0-2.1,1.7-3.7,3.7-3.7
	c2.1,0,3.7,1.6,3.7,3.7C60.7,23.1,59.1,24.8,57,24.8z"/>
</svg>
