<svg xmlns="http://www.w3.org/2000/svg" xmlns:xlink="http://www.w3.org/1999/xlink" width="35.567" height="35.567" viewBox="0 0 35.567 35.567">
  <defs>
    <radialGradient id="radial-gradient" cx="0.205" cy="0.874" r="1.103" gradientTransform="translate(0)" gradientUnits="objectBoundingBox">
      <stop offset="0" stop-color="#fae100"/>
      <stop offset="0.054" stop-color="#fadc04"/>
      <stop offset="0.117" stop-color="#fbce0e"/>
      <stop offset="0.183" stop-color="#fcb720"/>
      <stop offset="0.251" stop-color="#fe9838"/>
      <stop offset="0.305" stop-color="#ff7950"/>
      <stop offset="0.492" stop-color="#ff1c74"/>
      <stop offset="1" stop-color="#6c1cd1"/>
    </radialGradient>
    <linearGradient id="linear-gradient" x1="0.369" y1="0.426" x2="-1.54" y2="-0.648" gradientUnits="objectBoundingBox">
      <stop offset="0" stop-color="#a1b5d8" stop-opacity="0"/>
      <stop offset="0.309" stop-color="#90a2bd" stop-opacity="0.31"/>
      <stop offset="0.755" stop-color="#7c8b9c" stop-opacity="0.757"/>
      <stop offset="1" stop-color="#748290"/>
    </linearGradient>
    <linearGradient id="linear-gradient-2" x1="0.5" y1="0.413" x2="0.5" y2="1.193" gradientUnits="objectBoundingBox">
      <stop offset="0" stop-color="#fae100" stop-opacity="0"/>
      <stop offset="0.307" stop-color="#fca800" stop-opacity="0.306"/>
      <stop offset="0.627" stop-color="#fe7300" stop-opacity="0.627"/>
      <stop offset="0.868" stop-color="#ff5200" stop-opacity="0.867"/>
      <stop offset="1" stop-color="#ff4500"/>
    </linearGradient>
    <linearGradient id="linear-gradient-3" x1="0.316" y1="0.311" x2="0.012" y2="0.005" gradientUnits="objectBoundingBox">
      <stop offset="0" stop-color="#833ab4" stop-opacity="0"/>
      <stop offset="1" stop-color="#833ab4"/>
    </linearGradient>
    <linearGradient id="linear-gradient-4" x1="0.582" y1="0.887" x2="0.418" y2="0.113" xlink:href="#linear-gradient-3"/>
    <linearGradient id="linear-gradient-5" x1="0.605" y1="0.605" x2="-0.16" y2="-0.16" xlink:href="#linear-gradient-3"/>
    <linearGradient id="linear-gradient-6" x1="0.376" y1="0.332" x2="-0.072" y2="-0.063" xlink:href="#linear-gradient-3"/>
    <linearGradient id="linear-gradient-7" x1="0.816" y1="0.182" x2="0.172" y2="0.835" gradientUnits="objectBoundingBox">
      <stop offset="0" stop-color="#833ab4"/>
      <stop offset="0.092" stop-color="#9c3495"/>
      <stop offset="0.293" stop-color="#dc2546"/>
      <stop offset="0.392" stop-color="#fd1d1d"/>
      <stop offset="0.559" stop-color="#fc6831"/>
      <stop offset="0.689" stop-color="#fc9b40"/>
      <stop offset="0.752" stop-color="#fcaf45"/>
      <stop offset="0.781" stop-color="#fdb750"/>
      <stop offset="0.866" stop-color="#fecb6a"/>
      <stop offset="0.942" stop-color="#ffd87a"/>
      <stop offset="1" stop-color="#ffdc80"/>
    </linearGradient>
  </defs>
  <g id="instagram-sketched_3_" data-name="instagram-sketched (3)" transform="translate(0.001 0)">
    <path id="Path_1382" data-name="Path 1382" d="M34.957,6.362A6.476,6.476,0,0,0,29.2.609a107.425,107.425,0,0,0-22.843,0A6.476,6.476,0,0,0,.608,6.362a107.425,107.425,0,0,0,0,22.843,6.476,6.476,0,0,0,5.753,5.753,107.428,107.428,0,0,0,22.844,0A6.476,6.476,0,0,0,34.957,29.2a107.425,107.425,0,0,0,0-22.843Zm0,0" transform="translate(0)" fill="url(#radial-gradient)"/>
    <path id="Path_1383" data-name="Path 1383" d="M59.854,34.479a5.747,5.747,0,0,0-5.1-5.1,95.363,95.363,0,0,0-20.271,0,5.747,5.747,0,0,0-5.1,5.1,95.36,95.36,0,0,0,0,20.27,5.747,5.747,0,0,0,5.1,5.1,95.324,95.324,0,0,0,20.27,0,5.746,5.746,0,0,0,5.1-5.1,95.325,95.325,0,0,0,0-20.27Zm0,0" transform="translate(-26.831 -26.831)" fill="url(#linear-gradient)"/>
    <path id="Path_1384" data-name="Path 1384" d="M7.672,409.8q.037.369.076.738A6.476,6.476,0,0,0,13.5,416.3a107.425,107.425,0,0,0,22.843,0,6.476,6.476,0,0,0,5.753-5.753q.039-.369.076-.738Zm0,0" transform="translate(-7.139 -381.337)" fill="url(#linear-gradient-2)"/>
    <path id="Path_1385" data-name="Path 1385" d="M123.442,119.762a107.521,107.521,0,0,0,.605-12.275l-8.13-8.13a5.823,5.823,0,0,0-4.242-1.946c-3.585-.129-7.181-.123-10.766,0a5.754,5.754,0,0,0-5.594,5.046c-.094.519-.151,1.046-.225,1.569v8.624c.041.279.1.558.12.839a6.27,6.27,0,0,0,2.032,4.359l8.273,8.273a107.525,107.525,0,0,0,12.175-.606,6.476,6.476,0,0,0,5.753-5.753Zm0,0" transform="translate(-88.485 -90.557)" fill="url(#linear-gradient-3)"/>
    <path id="Path_1386" data-name="Path 1386" d="M152.441,147.165a6.476,6.476,0,0,1-5.753,5.753,107.58,107.58,0,0,1-12.174.606l-8.261-8.261a5.792,5.792,0,0,0,3.654,1.4c3.585.135,7.182.131,10.766,0a5.761,5.761,0,0,0,5.689-5.759c.108-3.442.108-6.894,0-10.336a6,6,0,0,0-1.442-3.808l8.125,8.125a107.71,107.71,0,0,1-.605,12.275Zm0,0" transform="translate(-117.484 -117.96)" fill="url(#linear-gradient-4)"/>
    <path id="Path_1387" data-name="Path 1387" d="M183.886,175.838a5.7,5.7,0,1,0-8.048,8.048l13.18,13.18q1.046-.091,2.092-.2a6.476,6.476,0,0,0,5.753-5.753q.112-1.046.2-2.092Zm0,0" transform="translate(-161.906 -161.906)" fill="url(#linear-gradient-5)"/>
    <path id="Path_1388" data-name="Path 1388" d="M336.326,161.885l-10.608-10.607a1.354,1.354,0,1,0-1.9,1.9l12.315,12.315Q336.262,163.688,336.326,161.885Zm0,0" transform="translate(-300.828 -140.271)" fill="url(#linear-gradient-6)"/>
    <path id="Path_1389" data-name="Path 1389" d="M95.09,104.026c.074-.523.131-1.049.225-1.569a5.753,5.753,0,0,1,5.594-5.046c3.585-.123,7.182-.13,10.766,0a5.761,5.761,0,0,1,5.689,5.759q.162,5.164,0,10.336a5.761,5.761,0,0,1-5.689,5.759c-3.585.129-7.182.133-10.766,0a5.861,5.861,0,0,1-5.7-5.774c-.019-.281-.079-.559-.12-.839v-8.624Zm11.181,13.317c1.641,0,3.283.049,4.921-.011a4,4,0,0,0,4.209-4.195q.112-4.8,0-9.6a3.978,3.978,0,0,0-4.209-4.189q-4.889-.1-9.781,0a3.954,3.954,0,0,0-4.2,4.128q-.132,4.858,0,9.721a3.98,3.98,0,0,0,4.2,4.134c1.618.06,3.24.011,4.86.011Zm0,0" transform="translate(-88.485 -90.557)" fill="url(#linear-gradient-7)"/>
    <g id="Group_5788" data-name="Group 5788" transform="translate(6.605 6.76)">
      <path id="Path_1390" data-name="Path 1390" d="M95.09,104.026c.074-.523.131-1.049.225-1.569a5.753,5.753,0,0,1,5.594-5.046c3.585-.123,7.182-.13,10.766,0a5.761,5.761,0,0,1,5.689,5.759q.162,5.164,0,10.336a5.761,5.761,0,0,1-5.689,5.759c-3.585.129-7.182.133-10.766,0a5.861,5.861,0,0,1-5.7-5.774c-.019-.281-.079-.559-.12-.839v-8.624Zm11.181,13.317c1.641,0,3.283.049,4.921-.011a4,4,0,0,0,4.209-4.195q.112-4.8,0-9.6a3.978,3.978,0,0,0-4.209-4.189q-4.889-.1-9.781,0a3.954,3.954,0,0,0-4.2,4.128q-.132,4.858,0,9.721a3.98,3.98,0,0,0,4.2,4.134c1.618.06,3.24.011,4.86.011Zm0,0" transform="translate(-95.09 -97.317)" fill="#fff"/>
      <path id="Path_1391" data-name="Path 1391" d="M179.689,174a5.7,5.7,0,1,0,5.7,5.7A5.7,5.7,0,0,0,179.689,174Zm0,9.432a3.735,3.735,0,1,1,3.735-3.735A3.735,3.735,0,0,1,179.689,183.428Zm0,0" transform="translate(-168.511 -168.669)" fill="#fff"/>
      <path id="Path_1392" data-name="Path 1392" d="M326,152.1a1.355,1.355,0,1,1-1.355-1.355A1.355,1.355,0,0,1,326,152.1Zm0,0" transform="translate(-307.434 -147.031)" fill="#fff"/>
    </g>
  </g>
</svg>
