<svg xmlns="http://www.w3.org/2000/svg" width="22.748" height="23.708" viewBox="0 0 22.748 23.708">
  <g id="sale_1_" data-name="sale (1)" transform="translate(-10.359 0.002)">
    <g id="Group_5814" data-name="Group 5814" transform="translate(10.359 -0.002)">
      <g id="Group_5813" data-name="Group 5813" transform="translate(0 0)">
        <path id="Path_1614" data-name="Path 1614" d="M32.011,12.159a.7.7,0,0,1,0-.614l.884-1.809A2.058,2.058,0,0,0,32.007,7l-1.779-.944a.7.7,0,0,1-.361-.5L29.52,3.58A2.058,2.058,0,0,0,27.195,1.89L25.2,2.172a.7.7,0,0,1-.584-.19L23.17.583a2.058,2.058,0,0,0-2.874,0l-1.447,1.4a.7.7,0,0,1-.584.19l-1.994-.282A2.058,2.058,0,0,0,13.947,3.58L13.6,5.563a.7.7,0,0,1-.361.5L11.46,7a2.058,2.058,0,0,0-.888,2.733l.884,1.809a.7.7,0,0,1,0,.614l-.884,1.809A2.058,2.058,0,0,0,11.46,16.7l1.779.944a.7.7,0,0,1,.361.5l.348,1.983a2.057,2.057,0,0,0,2.029,1.71,2.114,2.114,0,0,0,.3-.021l1.994-.282a.7.7,0,0,1,.584.19l1.447,1.4a2.058,2.058,0,0,0,2.874,0l1.447-1.4a.7.7,0,0,1,.584-.19l1.994.282a2.058,2.058,0,0,0,2.325-1.689l.348-1.983a.7.7,0,0,1,.361-.5l1.779-.944a2.058,2.058,0,0,0,.888-2.733Zm-.645,3.334-1.779.944a2.053,2.053,0,0,0-1.067,1.468l-.348,1.983a.7.7,0,0,1-.787.571l-1.994-.282a2.053,2.053,0,0,0-1.726.561l-1.447,1.4a.7.7,0,0,1-.972,0l-1.447-1.4a2.051,2.051,0,0,0-1.432-.582,2.1,2.1,0,0,0-.294.021l-1.994.282a.7.7,0,0,1-.787-.571l-.348-1.983a2.053,2.053,0,0,0-1.067-1.468L12.1,15.493a.7.7,0,0,1-.3-.925l.884-1.809a2.053,2.053,0,0,0,0-1.815L11.8,9.136a.7.7,0,0,1,.3-.925l1.779-.944A2.053,2.053,0,0,0,14.946,5.8l.348-1.983a.7.7,0,0,1,.787-.571l1.994.282A2.053,2.053,0,0,0,19.8,2.965l1.447-1.4a.7.7,0,0,1,.972,0l1.447,1.4a2.053,2.053,0,0,0,1.726.561l1.994-.282a.7.7,0,0,1,.787.571L28.521,5.8a2.053,2.053,0,0,0,1.067,1.468l1.779.944a.7.7,0,0,1,.3.925l-.884,1.809a2.053,2.053,0,0,0,0,1.815l.884,1.809A.7.7,0,0,1,31.366,15.493Z" transform="translate(-10.359 0.002)" fill="#f36e26"/>
      </g>
    </g>
    <g id="Group_5816" data-name="Group 5816" transform="translate(16.745 6.863)">
      <g id="Group_5815" data-name="Group 5815" transform="translate(0)">
        <path id="Path_1615" data-name="Path 1615" d="M153.577,143.984a.656.656,0,0,0-.928,0l-8.664,8.665a.656.656,0,1,0,.928.928l8.665-8.664A.656.656,0,0,0,153.577,143.984Z" transform="translate(-143.791 -143.791)" fill="#f36e26"/>
      </g>
    </g>
    <g id="Group_5818" data-name="Group 5818" transform="translate(16.561 5.76)">
      <g id="Group_5817" data-name="Group 5817" transform="translate(0)">
        <path id="Path_1616" data-name="Path 1616" d="M145.209,123.116a2.407,2.407,0,1,0,2.407,2.407A2.41,2.41,0,0,0,145.209,123.116Zm0,3.5a1.094,1.094,0,1,1,1.094-1.094A1.1,1.1,0,0,1,145.209,126.617Z" transform="translate(-142.802 -123.116)" fill="#f36e26"/>
      </g>
    </g>
    <g id="Group_5820" data-name="Group 5820" transform="translate(22.092 13.13)">
      <g id="Group_5819" data-name="Group 5819" transform="translate(0)">
        <path id="Path_1617" data-name="Path 1617" d="M263.329,280.61a2.407,2.407,0,1,0,2.407,2.407A2.41,2.41,0,0,0,263.329,280.61Zm0,3.5a1.094,1.094,0,1,1,1.094-1.094A1.1,1.1,0,0,1,263.329,284.111Z" transform="translate(-260.922 -280.61)" fill="#f36e26"/>
      </g>
    </g>
  </g>
</svg>
