<?xml version="1.0" encoding="utf-8"?>
<!-- Generator: Adobe Illustrator 23.0.6, SVG Export Plug-In . SVG Version: 6.00 Build 0)  -->
<svg version="1.1" id="Layer_1" xmlns="http://www.w3.org/2000/svg" xmlns:xlink="http://www.w3.org/1999/xlink" x="0px" y="0px"
	 viewBox="0 0 25 25" style="enable-background:new 0 0 25 25;" xml:space="preserve">
<style type="text/css">
	.st0{clip-path:url(#SVGID_2_);}
	.st1{clip-path:url(#SVGID_4_);fill:url(#SVGID_5_);}
</style>
<g>
	<g>
		<defs>
			<rect id="SVGID_1_" x="0.3" y="8.6" width="24" height="7.8"/>
		</defs>
		<clipPath id="SVGID_2_">
			<use xlink:href="#SVGID_1_"  style="overflow:visible;"/>
		</clipPath>
		<g class="st0">
			<defs>
				<path id="SVGID_3_" d="M7.4,8.8l-2,5.1L4.5,9.5C4.4,9.1,4.1,8.8,3.7,8.8H0.4l0,0.2C1,9.1,1.8,9.4,2.2,9.6
					c0.3,0.2,0.4,0.3,0.5,0.7l1.5,6h2l3.1-7.5H7.4z M10.2,8.8l-1.6,7.5h1.9l1.6-7.5H10.2z M21.3,10.8l0.6,2.8h-1.6L21.3,10.8z
					 M21,8.8c-0.4,0-0.7,0.2-0.8,0.5l-2.9,6.9h2l0.4-1.1h2.5l0.2,1.1h1.8l-1.6-7.5H21z M12.7,11.1c0,1.1,1,1.7,1.7,2
					c0.8,0.4,1,0.6,1,0.9c0,0.5-0.6,0.7-1.2,0.7c-1,0-1.5-0.3-2-0.5L11.9,16c0.4,0.2,1.3,0.4,2.1,0.4c2,0,3.4-1,3.4-2.6
					c0-2-2.7-2.1-2.7-3c0-0.3,0.3-0.6,0.8-0.6c0.3,0,1-0.1,1.9,0.3L17.7,9c-0.5-0.2-1.1-0.3-1.8-0.3C14,8.6,12.7,9.7,12.7,11.1"/>
			</defs>
			<clipPath id="SVGID_4_">
				<use xlink:href="#SVGID_3_"  style="overflow:visible;"/>
			</clipPath>
			
				<linearGradient id="SVGID_5_" gradientUnits="userSpaceOnUse" x1="-0.1086" y1="1.333023e-02" x2="-6.058542e-02" y2="1.333023e-02" gradientTransform="matrix(419.708 -154.5691 154.5691 419.708 45.9872 -6.2708)">
				<stop  offset="0" style="stop-color:#222357"/>
				<stop  offset="1" style="stop-color:#254AA5"/>
			</linearGradient>
			<polygon class="st1" points="3.2,24.1 26.7,15.4 21.4,0.9 -2.2,9.6 			"/>
		</g>
	</g>
</g>
</svg>
