<?xml version="1.0" standalone="no"?>
<!DOCTYPE svg PUBLIC "-//W3C//DTD SVG 1.1//EN" "http://www.w3.org/Graphics/SVG/1.1/DTD/svg11.dtd" >
<svg xmlns="http://www.w3.org/2000/svg">
<metadata>Generated by IcoMoon</metadata>
<defs>
<font id="icomoon" horiz-adv-x="1024">
<font-face units-per-em="1024" ascent="960" descent="-64" />
<missing-glyph horiz-adv-x="1024" />
<glyph unicode="&#x20;" horiz-adv-x="512" d="" />
<glyph unicode="&#xe900;" glyph-name="Group-5502" d="M1017.771 2.603l-297.472 297.472c56.286 69.143 90.38 158.306 90.38 255.433 0 224.307-181.837 406.144-406.144 406.144s-406.144-181.837-406.144-406.144c0-224.307 181.837-406.144 406.144-406.144 97.127 0 186.29 34.094 256.176 90.966l-0.743-0.586 297.472-297.472c3.86-3.859 9.193-6.246 15.083-6.246s11.222 2.387 15.083 6.246l30.165 30.165c3.859 3.86 6.246 9.193 6.246 15.083s-2.387 11.222-6.246 15.083v0zM405.333 234.667c-176.731 0-320 143.269-320 320s143.269 320 320 320c176.731 0 320-143.269 320-320v0c-0.194-176.653-143.347-319.806-319.981-320h-0.019z" />
<glyph unicode="&#xe901;" glyph-name="Group-5503" horiz-adv-x="1036" d="M341.888 358.741h544.085c0.166-0.003 0.363-0.005 0.559-0.005 13.061 0 24.163 8.383 28.22 20.062l0.063 0.21 120.021 390.997c0.723 2.296 1.139 4.936 1.139 7.674 0 6.41-2.283 12.286-6.081 16.86l0.035-0.043c-5.69 6.8-14.181 11.094-23.674 11.094-0.092 0-0.184 0-0.276-0.001h-733.255l-21.461 89.856c-3.514 12.715-14.979 21.896-28.588 21.896-0.24 0-0.478-0.003-0.717-0.009l0.035 0.001h-180.139c-0.26 0.008-0.566 0.013-0.872 0.013-15.653 0-28.411-12.396-28.993-27.907l-0.002-0.053c0.583-15.564 13.341-27.96 28.994-27.96 0.307 0 0.612 0.005 0.917 0.014l-0.045-0.001h156.075l108.459-453.76c-31.434-12.15-53.472-41.808-54.228-76.708l-0.002-0.092c1.837-46.69 40.132-83.845 87.105-83.845 1.013 0 2.021 0.017 3.025 0.052l-0.146-0.004h544c0.566-0.041 1.226-0.064 1.892-0.064 15.458 0 27.989 12.531 27.989 27.989s-12.531 27.989-27.989 27.989c-0.666 0-1.326-0.023-1.98-0.069l0.088 0.005h-544.171c-0.566-0.041-1.226-0.064-1.892-0.064-15.458 0-27.989 12.531-27.989 27.989s12.531 27.989 27.989 27.989c0.666 0 1.326-0.023 1.98-0.069l-0.088 0.005zM966.229 749.739l-102.869-335.147h-497.237l-80.085 335.147zM294.315 132.139c0-63.435 51.424-114.859 114.859-114.859s114.859 51.424 114.859 114.859c0 63.435-51.424 114.859-114.859 114.859v0c-63.405-0.073-114.786-51.453-114.859-114.852v-0.007zM409.173 170.539c21.208 0 38.4-17.192 38.4-38.4s-17.192-38.4-38.4-38.4c-21.208 0-38.4 17.192-38.4 38.4v0c0.049 21.171 17.222 38.315 38.4 38.315 0 0 0 0 0 0v0zM653.184 132.139c0-63.435 51.424-114.859 114.859-114.859s114.859 51.424 114.859 114.859c0 63.435-51.424 114.859-114.859 114.859v0c-63.405-0.073-114.786-51.453-114.859-114.852v-0.007zM768.043 170.539c21.208 0 38.4-17.192 38.4-38.4s-17.192-38.4-38.4-38.4c-21.208 0-38.4 17.192-38.4 38.4v0c0.049 21.171 17.222 38.315 38.4 38.315 0 0 0 0 0 0v0z" />
<glyph unicode="&#xe907;" glyph-name="Group-5507" d="M914.347 266.709h-127.744c-11.052 0-20.011 8.959-20.011 20.011v0 128.597c0 11.052 8.959 20.011 20.011 20.011v0h71.339c8.138-0.012 15.137-4.881 18.253-11.862l0.051-0.127 56.32-128.597c1.060-2.362 1.678-5.12 1.678-8.021 0-11.042-8.943-19.994-19.98-20.011h-0.002zM844.928 395.307h-38.4v-88.619h77.099zM20.011 763.861h247.936c11.052 0 20.011-8.959 20.011-20.011s-8.959-20.011-20.011-20.011h-227.925v-620.8h107.819q0 3.669 0 7.381c0 71.871 58.263 130.133 130.133 130.133s130.133-58.263 130.133-130.133v0q0-3.712 0-7.381h269.355v620.843h-228.395c-11.052 0-20.011 8.959-20.011 20.011s8.959 20.011 20.011 20.011h247.936c11.052 0 20.011-8.959 20.011-20.011v-218.795h199.595c8.138-0.012 15.137-4.881 18.253-11.862l0.051-0.127 87.424-199.552c1.052-2.353 1.664-5.1 1.664-7.989 0-0.011 0-0.023 0-0.034v0.002-222.507c0-11.052-8.959-20.011-20.011-20.011v0h-59.093c-8.951-47.466-50.088-82.89-99.499-82.89s-90.547 35.424-99.4 82.26l-0.099 0.629h-346.965c-19.418-48.923-66.34-82.885-121.195-82.885s-101.777 33.962-120.886 82.006l-0.308 0.879h-136.533c-11.052 0-20.011 8.959-20.011 20.011v0 660.821c0 11.052 8.959 20.011 20.011 20.011v0zM984.021 301.355l-80.469 183.765h-186.752v-382.080h29.867c10.223 45.895 50.594 79.695 98.859 79.695s88.635-33.8 98.732-79.021l0.126-0.674h39.765zM845.397 20.181c0.025 0 0.055 0 0.085 0 33.838 0 61.269 27.431 61.269 61.269s-27.431 61.269-61.269 61.269c-33.838 0-61.269-27.431-61.269-61.269v0c0 0 0 0 0 0 0-33.808 27.383-61.221 61.179-61.269h0.005zM277.931 20.181c49.815 0 90.197 40.383 90.197 90.197s-40.383 90.197-90.197 90.197c-49.815 0-90.197-40.383-90.197-90.197v0c0.024-49.745 40.295-90.076 90.015-90.197h0.012zM376.619 736.213c-3.079-7.331-10.2-12.386-18.501-12.386-11.052 0-20.011 8.959-20.011 20.011s8.959 20.011 20.011 20.011c3.913 0 7.564-1.123 10.648-3.065l-0.083 0.049c5.687-3.634 9.404-9.914 9.404-17.063 0-2.723-0.539-5.32-1.517-7.69l0.049 0.134z" />
<glyph unicode="&#xe908;" glyph-name="Group-5510" d="M927.232 789.333h-804.096c-0.013 0-0.028 0-0.043 0-44.395 0-80.384-35.989-80.384-80.384 0-0.015 0-0.030 0-0.045v0.002-217.131c0.024-8.874 7.211-16.061 16.083-16.085h840.279c8.884 0 16.085 7.202 16.085 16.085s-7.202 16.085-16.085 16.085v0h-824.192v104.533h824.192c8.884 0 16.085 7.202 16.085 16.085s-7.202 16.085-16.085 16.085v0h-824.192v64.341c0.073 26.622 21.634 48.183 48.249 48.256h804.103c26.622-0.073 48.183-21.634 48.256-48.249v-550.834c-0.073-26.622-21.634-48.183-48.249-48.256h-804.103c-26.637 0.073-48.208 21.659-48.256 48.294v241.242c0 8.884-7.202 16.085-16.085 16.085s-16.085-7.202-16.085-16.085v0-241.237c0-0.013 0-0.028 0-0.043 0-44.395 35.989-80.384 80.384-80.384 0.015 0 0.030 0 0.045 0h804.094c0.013 0 0.028 0 0.043 0 44.395 0 80.384 35.989 80.384 80.384 0 0.015 0 0.030 0 0.045v-0.002 550.784c0 0.013 0 0.028 0 0.043 0 44.395-35.989 80.384-80.384 80.384-0.015 0-0.030 0-0.045 0h0.002zM189.44 324.949h134.869c8.884 0 16.085 7.202 16.085 16.085s-7.202 16.085-16.085 16.085v0h-134.869c-8.884 0-16.085-7.202-16.085-16.085s7.202-16.085 16.085-16.085v0zM189.44 224.427h134.869c8.884 0 16.085 7.202 16.085 16.085s-7.202 16.085-16.085 16.085v0h-134.869c-8.884 0-16.085-7.202-16.085-16.085s7.202-16.085 16.085-16.085v0zM735.189 283.563c-0.475-0.021-1.032-0.034-1.592-0.034-10.48 0-19.959 4.289-26.776 11.208l-0.004 0.005c-6.696 7.339-10.798 17.146-10.798 27.911 0 0.688 0.017 1.372 0.050 2.051l-0.004-0.096c-0.041 0.723-0.064 1.57-0.064 2.421 0 11.636 4.361 22.253 11.539 30.307l-0.040-0.045c7.292 7.478 17.467 12.116 28.724 12.116 0.642 0 1.28-0.015 1.915-0.045l-0.090 0.003c0.634 0.038 1.376 0.060 2.122 0.060 10.339 0 19.697-4.198 26.464-10.982l0.001-0.001c6.443-7.482 10.367-17.293 10.367-28.021 0-0.95-0.031-1.892-0.091-2.826l0.007 0.127c0.039-0.704 0.062-1.529 0.062-2.358 0-11.539-4.346-22.064-11.491-30.025l0.037 0.042c-7.25-7.327-17.307-11.864-28.423-11.864-0.673 0-1.342 0.017-2.006 0.049l0.094-0.004zM737.365 349.269q-16.811 0-16.811-23.381 0-22.101 16-22.101t16.341 22.997q0 22.315-15.531 22.315zM855.68 367.232l-107.477-165.035h-28.075l107.264 165.035zM837.973 199.765c-0.475-0.021-1.032-0.034-1.592-0.034-10.48 0-19.959 4.289-26.776 11.208l-0.004 0.005c-6.696 7.339-10.798 17.146-10.798 27.911 0 0.688 0.017 1.372 0.050 2.051l-0.004-0.096c-0.041 0.723-0.064 1.57-0.064 2.421 0 11.636 4.361 22.253 11.539 30.307l-0.040-0.045c7.292 7.478 17.467 12.116 28.724 12.116 0.642 0 1.28-0.015 1.915-0.045l-0.090 0.003c0.663 0.042 1.437 0.066 2.217 0.066 10.321 0 19.67-4.165 26.457-10.905l-0.002 0.002c6.419-7.425 10.329-17.173 10.329-27.834 0-0.97-0.032-1.933-0.096-2.887l0.007 0.129c0.038-0.695 0.060-1.508 0.060-2.326 0-11.59-4.343-22.166-11.491-30.188l0.040 0.045c-7.225-7.378-17.288-11.952-28.42-11.952-0.689 0-1.374 0.018-2.054 0.052l0.095-0.004zM839.808 265.472q-16.683 0-16.683-23.381 0-22.101 16.213-22.101t16.341 22.997c0.038 0.54 0.060 1.17 0.060 1.805 0 5.479-1.613 10.58-4.391 14.856l0.065-0.106c-2.491 3.701-6.664 6.103-11.398 6.103-0.073 0-0.145-0.001-0.218-0.002h0.011z" />
<glyph unicode="&#xe909;" glyph-name="Union-18" horiz-adv-x="580" d="M61.702-64c-34.065 0.029-61.673 27.637-61.702 61.699v900.599c0.039 34.061 27.64 61.663 61.698 61.702h456.933c34.054-0.048 61.646-27.646 61.685-61.698v-900.6c-0.039-34.058-27.642-61.656-61.699-61.685h-0.003zM34.141-2.4c0.019-15.21 12.349-27.534 27.56-27.544h456.931c15.188 0.048 27.483 12.367 27.493 27.56v108.988h-511.983zM34.141 140.746h511.983v682.706h-511.983zM546.124 857.593v40.705c-0.019 15.208-12.337 27.532-27.541 27.561h-456.882c-15.214-0.019-27.541-12.347-27.561-27.559v-40.707zM268.958-12.881c-25.987 0.039-47.043 21.095-47.082 47.078v8.247c0.029 25.991 21.091 47.053 47.079 47.082h42.404c25.994-0.029 47.060-21.089 47.099-47.078v-8.247c-0.039-25.993-21.105-47.053-47.096-47.082h-0.003zM256 42.443v-8.226c0.010-7.149 5.807-12.941 12.958-12.941 0 0 0 0 0 0h42.401c7.137 0.010 12.922 5.788 12.941 12.922v8.245c0 7.156-5.801 12.958-12.958 12.958h-42.401c-7.149-0.010-12.941-5.807-12.941-12.958 0 0 0 0 0 0v0zM477.893 874.655c-0.16-0.005-0.349-0.008-0.538-0.008-9.433 0-17.079 7.647-17.079 17.079s7.647 17.079 17.079 17.079c0.189 0 0.378-0.003 0.566-0.009l-0.027 0.001h17.062c9.198-0.299 16.541-7.827 16.541-17.071s-7.343-16.772-16.514-17.070l-0.027-0.001zM204.831 874.655c-0.16-0.005-0.349-0.008-0.538-0.008-9.433 0-17.079 7.647-17.079 17.079s7.647 17.079 17.079 17.079c0.189 0 0.378-0.003 0.566-0.009l-0.027 0.001h170.655c9.198-0.299 16.541-7.827 16.541-17.071s-7.343-16.772-16.514-17.070l-0.027-0.001z" />
<glyph unicode="&#xe90a;" glyph-name="Group-5512" d="M182.059 475.264l461.525 460.245c7.076 7.52 17.094 12.203 28.206 12.203 21.373 0 38.699-17.326 38.699-38.699 0-11.154-4.719-21.206-12.269-28.268l-0.022-0.020-434.048-432.853 434.091-432.853c6.742-6.956 10.898-16.453 10.898-26.921 0-21.373-17.326-38.699-38.699-38.699-10.436 0-19.907 4.131-26.867 10.846l0.012-0.011-461.525 460.245c-7.030 7.001-11.38 16.689-11.38 27.392s4.35 20.391 11.379 27.391l0.001 0.001z" />
<glyph unicode="&#xe90b;" glyph-name="Group-5513" d="M826.24 475.264l-461.568 460.245c-7.076 7.52-17.094 12.203-28.206 12.203-21.373 0-38.699-17.326-38.699-38.699 0-11.154 4.719-21.206 12.269-28.268l0.022-0.020 434.091-432.853-434.091-432.853c-6.742-6.956-10.898-16.453-10.898-26.921 0-21.373 17.326-38.699 38.699-38.699 10.436 0 19.907 4.131 26.867 10.846l-0.012-0.011 461.525 460.245c7.030 7.001 11.38 16.689 11.38 27.392s-4.35 20.391-11.379 27.391l-0.001 0.001z" />
<glyph unicode="&#xe90c;" glyph-name="Group-5514" d="M518.357 946.773c-191.913-0.218-347.43-155.735-347.648-347.627v-0.021c0-237.909 311.125-587.136 324.267-601.899 5.757-6.389 14.059-10.387 23.296-10.387s17.539 3.999 23.271 10.359l0.025 0.028c13.227 14.763 324.267 363.989 324.267 601.899-0.218 191.853-155.638 347.332-347.447 347.648h-0.030zM518.357 424.192c-96.613 0-174.933 78.32-174.933 174.933s78.32 174.933 174.933 174.933c96.613 0 174.933-78.32 174.933-174.933v0c0-96.613-78.32-174.933-174.933-174.933v0z" />
<glyph unicode="&#xe90d;" glyph-name="Group-5515" d="M855.424 170.325c-19.47 15.754-34.642 36.067-43.983 59.349l-0.348 0.982c-29.531 74.45-46.654 160.707-46.654 250.964 0 8.778 0.162 17.519 0.483 26.219l-0.037-1.258c0 0.341 0 0.725 0 1.067-0.491 106.935-63.928 198.934-155.144 240.896l-1.656 0.683v63.531c-0.024 57.671-46.708 104.43-104.349 104.576h-8.547c-57.728-0.049-104.509-46.845-104.533-104.574v-63.533c-93.178-42.786-156.734-135.264-156.8-242.594v-0.009c0.284-7.443 0.446-16.183 0.446-24.961 0-90.257-17.123-176.515-48.298-255.703l1.644 4.738c-9.689-24.263-24.861-44.577-44.057-60.116l-0.274-0.215c-9.176-4.372-15.405-13.572-15.405-24.226 0-2.198 0.265-4.334 0.765-6.378l-0.038 0.183c3.095-12.342 14.091-21.336 27.187-21.336 0.132 0 0.264 0.001 0.396 0.003h201.58c0-78.186 63.382-141.568 141.568-141.568s141.568 63.382 141.568 141.568v0h201.557c0.112-0.002 0.244-0.003 0.376-0.003 13.096 0 24.092 8.994 27.146 21.143l0.041 0.193c0.459 1.855 0.722 3.984 0.722 6.175 0 10.636-6.207 19.822-15.196 24.134l-0.161 0.069zM445.824 812.757c0 0 0 0 0 0 0 27.304 22.11 49.445 49.403 49.493h8.538c27.316-0.024 49.451-22.174 49.451-49.493v0-45.653c-16.148 3.48-34.7 5.474-53.717 5.474s-37.569-1.993-55.458-5.782l1.74 0.309v45.653zM499.541 33.749c-47.114 0.105-85.404 37.737-86.569 84.585l-0.002 0.108h173.141c-1.169-47.015-39.554-84.683-86.74-84.693h-0.001zM610.475 173.525h-391.552c4.494 6.877 9.286 15.155 13.665 23.681l0.756 1.62c35.572 80.857 56.277 175.121 56.277 274.22 0 11.81-0.294 23.552-0.875 35.218l0.065-1.641c-0.014 0.891-0.021 1.943-0.021 2.997 0 116.266 94.252 210.517 210.517 210.517s210.517-94.252 210.517-210.517c0-1.054-0.008-2.106-0.023-3.156l0.002 0.159c0-0.341 0-0.683 0-1.024-0.495-9.803-0.776-21.287-0.776-32.836 0-98.97 20.692-193.107 57.986-278.321l-1.743 4.469c5.137-10.147 9.928-18.426 15.106-26.432l-0.685 1.13z" />
<glyph unicode="&#xe90e;" glyph-name="Group-5518" d="M964.608 604.032c-13.355 147.072-117.461 253.824-247.765 253.824-89.504-0.515-167.64-48.697-210.363-120.427l-0.624-1.131c-41.195 72.725-117.867 121.115-205.883 121.6h-0.069c-130.261 0-234.411-106.667-247.765-253.824-0.929-8.279-1.459-17.876-1.459-27.598 0-24.503 3.367-48.22 9.665-70.713l-0.44 1.842c20.925-84.59 65.552-156.728 126.366-211.15l0.397-0.349 318.933-289.451 324.267 289.408c61.217 54.781 105.845 126.935 126.164 208.694l0.599 2.847c5.948 20.828 9.368 44.749 9.368 69.47 0 9.495-0.505 18.872-1.488 28.105l0.099-1.148zM922.539 515.669c-19.155-77.365-59.997-143.336-115.645-193.087l-0.365-0.321-300.672-268.245-295.509 268.16c-56.064 50.090-96.948 116.089-115.589 190.887l-0.55 2.606c-5.304 18.358-8.355 39.444-8.355 61.243 0 7.581 0.369 15.076 1.090 22.468l-0.074-0.938 0.256 1.792c11.435 128.853 100.907 222.421 212.736 222.421 86.145-1.278 159.392-55.143 189.168-130.866l0.485-1.401 16.213-38.4 16.213 38.4c32.322 77.647 107.228 131.414 194.794 132.266l0.107 0.001c111.829 0 201.301-93.525 212.992-224.085 0.662-6.524 1.039-14.099 1.039-21.763 0-21.761-3.043-42.812-8.728-62.75l0.393 1.611z" />
<glyph unicode="&#xe90f;" glyph-name="Group-5520" d="M978.261 585.643c-13.909 153.088-122.24 264.107-257.835 264.107-93.209-0.478-174.596-50.636-219.084-125.33l-0.649-1.177c-42.844 75.646-122.573 125.993-214.108 126.549h-0.079c-135.68 0-243.925-111.061-257.835-264.107-0.963-8.596-1.512-18.562-1.512-28.656 0-25.524 3.511-50.229 10.077-73.656l-0.459 1.917c21.766-88.041 68.213-163.122 131.512-219.754l0.413-0.363 331.904-301.227 337.621 301.184c63.669 57.021 110.073 132.117 131.176 217.2l0.621 2.96c6.157 21.625 9.697 46.462 9.697 72.125 0 9.942-0.531 19.76-1.567 29.427l0.104-1.201z" />
<glyph unicode="&#xe910;" glyph-name="Group-5522" d="M777.131 324.139c-16.453 18.331-40.058 29.958-66.386 30.463l-0.089 0.001c-26.562-0.639-50.32-12.13-67.103-30.192l-0.054-0.059-62.037-61.824c-5.12 2.731-10.197 5.291-15.104 7.851-7.083 3.541-13.739 6.869-19.456 10.411-62.572 41.029-115.918 89.815-160.522 145.868l-1.056 1.375c-20.13 24.26-37.809 51.741-51.959 81.236l-1.033 2.39c16.085 14.72 31.019 29.867 45.525 44.757 5.504 5.504 11.008 11.179 16.469 16.683 18.991 16.6 30.92 40.87 30.92 67.925s-11.929 51.325-30.815 67.835l-0.105 0.090-53.419 53.589c-6.101 6.101-12.373 12.373-18.261 18.645-11.776 12.16-24.149 24.747-36.907 36.523-16.61 17.424-39.856 28.395-65.667 28.842l-0.082 0.001c-26.182-0.55-49.709-11.481-66.715-28.827l-0.015-0.016-0.384-0.384-66.773-67.371c-23.986-23.513-39.751-55.332-42.633-90.795l-0.033-0.511c-0.228-4.683-0.358-10.17-0.358-15.687 0-46.862 9.366-91.536 26.329-132.253l-0.841 2.276c37.532-96.343 88.27-179.315 151.063-251.526l-0.877 1.030c83.499-99.991 185.951-181.107 302.216-238.482l5.41-2.414c50.12-26.48 108.666-44.674 170.718-51.031l2.039-0.169c4.267 0 8.533-0.384 12.373-0.384 0.968-0.023 2.107-0.036 3.25-0.036 43.647 0 82.878 18.903 109.954 48.969l0.118 0.133c0 0.384 0.597 0.597 0.768 0.981 11.036 12.723 22.253 24.319 34.065 35.283l0.282 0.259c8.533 8.064 17.067 16.469 25.6 25.344 17.76 17.302 28.982 41.241 29.651 67.802l0.002 0.124c-0.558 26.631-12.067 50.468-30.19 67.273l-0.060 0.055zM847.403 117.419s0 0 0 0c-7.637-8.235-15.488-15.701-23.936-23.936-13.298-12.416-25.67-25.221-37.36-38.635l-0.528-0.618c-17.392-19.251-42.446-31.297-70.314-31.297-1.231 0-2.456 0.023-3.675 0.070l0.176-0.005c-2.944 0-6.101 0-9.045 0-56.858 6.002-108.729 22.316-155.441 47.069l2.311-1.117c-114.58 56.381-211.068 132.789-288.629 225.566l-1.121 1.378c-58.217 66.905-105.961 144.865-139.479 229.985l-1.876 5.407c-14.092 32.32-22.291 69.975-22.291 109.545 0 4.69 0.115 9.353 0.343 13.987l-0.026-0.652c1.659 22.994 11.711 43.366 27.073 58.305l0.021 0.020 66.944 67.115c7.571 8.025 18.049 13.236 29.742 13.946l0.125 0.006c11.41-0.688 21.498-5.835 28.641-13.704l0.031-0.035 0.597-0.597c11.989-11.179 23.381-22.784 35.328-35.157 6.101-6.272 12.373-12.544 18.645-19.029l53.547-53.589c9.496-6.883 15.601-17.939 15.601-30.421s-6.105-23.539-15.492-30.346l-0.109-0.075c-5.675-5.675-11.179-11.392-17.067-17.067-16.469-17.067-32.213-32.597-49.28-47.915-0.384-0.384-0.768-0.597-0.981-0.981-8.007-7.343-13.009-17.853-13.009-29.53 0-5.346 1.048-10.448 2.951-15.11l-0.097 0.267 0.597-1.749c17.324-39.567 38.574-73.674 63.969-104.21l-0.567 0.701c49.191-61.955 106.762-114.532 171.585-156.946l2.751-1.689c6.511-4.090 14.422-8.466 22.563-12.442l1.586-0.699c7.083-3.541 13.739-6.869 19.456-10.411 0.768-0.384 1.579-0.981 2.347-1.365 5.64-3.028 12.329-4.836 19.434-4.906h0.022c11.824 0.294 22.394 5.432 29.841 13.497l0.026 0.028 67.456 66.987c7.409 8.284 17.813 13.757 29.495 14.71l0.159 0.010c11.401-0.72 21.415-6.116 28.237-14.273l0.051-0.063 0.384-0.384 108.075-108.203c9.275-7.168 15.189-18.294 15.189-30.802 0-12.413-5.825-23.466-14.892-30.574l-0.085-0.064zM544.683 679.125c105.214-18.753 186.985-100.525 205.512-204.209l0.227-1.53c2.161-12.548 12.961-21.974 25.963-21.974 0.052 0 0.105 0 0.157 0h-0.008c1.625 0.033 3.189 0.171 4.719 0.409l-0.196-0.025c12.663 2.166 22.18 13.061 22.18 26.178 0 1.574-0.137 3.117-0.4 4.616l0.023-0.159c-22.63 127.325-121.592 226.287-247.070 248.644l-1.848 0.273c-1.33 0.235-2.86 0.37-4.423 0.37-13.055 0-23.916-9.397-26.187-21.796l-0.025-0.163c-0.283-1.445-0.445-3.106-0.445-4.806 0-12.922 9.356-23.659 21.664-25.806l0.157-0.023zM970.88 490.027c-37.221 209.592-200.052 372.524-406.552 409.447l-3.048 0.452c-1.283 0.22-2.76 0.346-4.267 0.346-14.613 0-26.458-11.846-26.458-26.458 0-13.106 9.529-23.986 22.036-26.090l0.155-0.022c187.425-33.227 333.109-178.911 365.936-363.622l0.4-2.714c2.161-12.548 12.961-21.974 25.963-21.974 0.052 0 0.105 0 0.157 0h-0.008c1.626 0.033 3.189 0.172 4.719 0.409l-0.196-0.025c12.333 2.2 21.574 12.842 21.574 25.643 0 1.629-0.15 3.222-0.436 4.768l0.025-0.16z" />
<glyph unicode="&#xe911;" glyph-name="Group-5524" d="M889.216 809.429h-761.216c-48.499-0.049-87.802-39.352-87.851-87.846v-527.109c0.049-48.499 39.352-87.802 87.846-87.851h761.221c48.499 0.049 87.802 39.352 87.851 87.846v527.109c-0.049 48.499-39.352 87.802-87.846 87.851h-0.005zM889.216 750.848c4.052-0.004 7.908-0.835 11.411-2.333l-0.19 0.072-391.893-339.669-391.595 339.669c3.313 1.425 7.17 2.256 11.219 2.261h0.002zM889.216 165.163h-761.216c-16.155 0.024-29.245 13.114-29.269 29.267v492.29l390.741-338.859c5.112-4.45 11.839-7.164 19.2-7.164s14.088 2.713 19.235 7.194l-0.035-0.030 390.784 338.688v-492.075c-0.024-16.17-13.138-29.27-29.312-29.27-0.045 0-0.090 0-0.135 0h0.007z" />
<glyph unicode="&#xe912;" glyph-name="Group-5527" d="M503.467 915.584c-0.078 0-0.171 0-0.265 0-183.8 0-332.8-149-332.8-332.8 0-64.868 18.559-125.401 50.656-176.579l-0.813 1.39 264.277-425.856c4.975-7.914 13.658-13.097 23.552-13.099h0.214c9.979 0.073 18.696 5.405 23.525 13.36l0.069 0.123 257.451 429.995c29.583 48.743 47.093 107.66 47.093 170.667 0 183.8-149 332.8-332.8 332.8-0.056 0-0.112 0-0.168 0h0.009zM741.803 440.576l-234.069-391.125-240.213 387.371c-26.091 41.53-41.568 92.022-41.568 146.128 0 153.332 124.3 277.632 277.632 277.632s277.632-124.3 277.632-277.632c0-52.561-14.606-101.711-39.981-143.612l0.696 1.238zM503.509 749.141c-91.9 0-166.4-74.5-166.4-166.4s74.5-166.4 166.4-166.4c91.9 0 166.4 74.5 166.4 166.4v0c-0.145 91.841-74.558 166.254-166.386 166.4h-0.014zM503.509 471.339c-0.063 0-0.138 0-0.213 0-61.502 0-111.36 49.858-111.36 111.36s49.858 111.36 111.36 111.36c61.502 0 111.36-49.857 111.36-111.36v0c-0.048-61.408-49.756-111.19-111.13-111.36h-0.016z" />
<glyph unicode="&#xe913;" glyph-name="Group-5529" d="M950.784 455.68h-787.669l301.611 287.061c7.013 7.126 11.343 16.911 11.343 27.707 0 21.82-17.689 39.509-39.509 39.509-10.127 0-19.365-3.81-26.357-10.076l0.037 0.033-344.448-328.107c-14.296-14.286-23.138-34.027-23.138-55.834 0-22.144 9.118-42.158 23.805-56.492l0.016-0.015 343.765-327.424c7.072-6.749 16.672-10.902 27.243-10.902 21.809 0 39.489 17.68 39.489 39.489 0 11.239-4.695 21.381-12.231 28.572l-302.949 287.289h788.907c21.809 0 39.488 17.679 39.488 39.488s-17.679 39.488-39.488 39.488v0z" />
<glyph unicode="&#xe914;" glyph-name="Group-5532" d="M511.659 920.576c-261.185 0-472.917-211.732-472.917-472.917s211.732-472.917 472.917-472.917c261.185 0 472.917 211.732 472.917 472.917v0c-0.388 261.028-211.888 472.529-472.879 472.917h-0.038zM511.659 48c-220.725 0-399.659 178.933-399.659 399.659s178.933 399.659 399.659 399.659c220.725 0 399.659-178.933 399.659-399.659v0c-0.267-220.618-179.041-399.392-399.634-399.659h-0.025zM694.827 487.595h-146.517v146.389c0.014 0.373 0.021 0.811 0.021 1.25 0 20.242-16.409 36.651-36.651 36.651s-36.651-16.409-36.651-36.651c0-0.44 0.008-0.878 0.023-1.314l-0.002 0.063v-146.517h-146.517c-19.696-0.693-35.4-16.827-35.4-36.629s15.704-35.936 35.337-36.628l0.063-0.002h146.517v-146.517c0.693-19.696 16.827-35.4 36.629-35.4s35.936 15.704 36.628 35.337l0.002 0.063v146.517h146.517c19.696 0.693 35.4 16.827 35.4 36.629s-15.704 35.936-35.337 36.628l-0.063 0.002z" />
<glyph unicode="&#xe915;" glyph-name="Group-5534" d="M931.669 472.619h-388.907v388.907c0 19.888-16.123 36.011-36.011 36.011s-36.011-16.123-36.011-36.011v0-388.907h-388.907c-19.888 0-36.011-16.123-36.011-36.011s16.123-36.011 36.011-36.011v0h388.907v-388.907c0-19.888 16.123-36.011 36.011-36.011s36.011 16.123 36.011 36.011v0 388.907h388.907c19.888 0 36.011 16.123 36.011 36.011s-16.123 36.011-36.011 36.011v0z" />
<glyph unicode="&#xe916;" glyph-name="Group-5535" d="M975.019 807.339c-6.549 6.557-15.601 10.613-25.6 10.613s-19.051-4.056-25.6-10.613v0l-433.92-432.768-156.587 170.069c-6.661 7.507-16.333 12.214-27.105 12.214-19.982 0-36.181-16.199-36.181-36.181 0-9.732 3.842-18.566 10.092-25.069l-0.011 0.012 182.059-197.76c6.465-7.003 15.623-11.436 25.818-11.647l0.038-0.001h0.768c0.017 0 0.037 0 0.057 0 9.968 0 18.995 4.026 25.545 10.54l-0.002-0.002 460.8 459.435c6.494 6.538 10.507 15.547 10.507 25.493 0 10.031-4.082 19.109-10.676 25.662l-0.002 0.002zM966.315 494.805c-19.982 0-36.181-16.199-36.181-36.181v0c0-0.051 0-0.111 0-0.171 0-225.085-182.467-407.552-407.552-407.552s-407.552 182.467-407.552 407.552c0 225.085 182.467 407.552 407.552 407.552v0c20.030 0 36.267 16.237 36.267 36.267s-16.237 36.267-36.267 36.267v0c-264.976-0.097-479.744-214.925-479.744-479.915 0-265.050 214.865-479.915 479.915-479.915s479.915 214.865 479.915 479.915v0c0 0 0 0 0 0 0 19.982-16.199 36.181-36.181 36.181-0.060 0-0.12 0-0.18 0h0.009z" />
<glyph unicode="&#xe917;" glyph-name="Group-5537" d="M594.825 817.513l-78.060-156.094-200.221 39.962c-15.719 3.043-32.4-1.466-44.417-13.483s-16.526-28.698-13.528-44.215l0.045-0.201 39.962-200.221-156.094-78.060c-4.389-2.149-8.802-5.268-12.72-9.185-19.234-19.234-19.234-50.419 0-69.653 2.379-2.379 4.941-4.464 7.641-6.254l-0.261 0.186c299.974-196.542 285.435-197.998 311.907-197.998 109.653 0.131 219.277 42.032 302.948 125.703s125.572 193.295 125.703 302.96v-0.012c0 26.42-1.84 12.52-197.998 311.907-1.611 2.455-3.706 5.033-6.099 7.425-19.22 19.22-50.382 19.22-69.602 0-3.93-3.93-7.056-8.359-9.379-13.083l0.173 0.318zM779.051 496.485c-3.461-79.399-35.64-158.111-96.519-218.99s-139.592-93.058-219.322-96.536l0.332 0.017-201.218 134.171 113.883 56.954c4.421 2.153 8.863 5.285 12.803 9.225 12.020 12.020 16.523 28.711 13.508 44.231l-0.045 0.202-32.936 164.781 164.781-32.834c15.722-3.060 32.412 1.443 44.433 13.463 3.94 3.94 7.073 8.383 9.398 13.121l-0.172-0.318 56.826 113.653z" />
<glyph unicode="&#xe918;" glyph-name="Group-5539" d="M648.133 767.288l-153.767-93.192-174.921 41.191c-20.503 4.719-42.581-0.832-58.326-16.577s-21.296-37.823-16.653-58.034l0.077-0.292 41.191-174.921-93.192-153.767c-14.532-24.295-11.376-55.742 9.229-76.347 10.878-10.878 24.777-16.893 38.996-18.044l-0.115 0.011 179.091-14.887 117.398-136.037c0.903-1.058 2-2.244 3.153-3.397 24.319-24.319 63.747-24.319 88.066 0 6.009 6.009 10.533 12.939 13.572 20.337l-0.183-0.399 69.498 165.718 165.695 69.568c6.999 2.856 13.93 7.38 19.938 13.389 24.319 24.319 24.319 63.747 0 88.066-1.152 1.152-2.339 2.25-3.556 3.294l0.159-0.141-136.037 117.398-14.887 179.091c-1.13 14.116-7.143 28.029-18.028 38.914-20.607 20.607-52.064 23.752-75.983 9.435l-0.368-0.239zM635.366 504.394c1.143-14.101 7.157-27.997 18.033-38.873 1.154-1.154 2.342-2.253 3.561-3.298l-0.159 0.141 79.19-68.24-96.384-40.469c-7.003-2.855-13.938-7.379-19.949-13.391s-10.536-12.946-13.573-20.347l0.183 0.398-40.445-96.36-68.24 79.19c-0.898 1.052-1.991 2.232-3.137 3.378-10.875 10.875-24.769 16.889-38.984 18.043l0.115-0.011-104.165 8.644 54.238 89.371c8.588 14.326 10.995 30.846 7.462 46.281l-0.076 0.291-23.997 101.812 101.812-23.997c15.727-3.61 32.247-1.202 46.204 7.146l0.369 0.239 89.371 54.238z" />
<glyph unicode="&#xe919;" glyph-name="Group-5541" d="M659.68 165.353c-0.019-10.645-4.090-21.287-12.213-29.41s-18.765-12.194-29.412-12.213l-332.367 0.025c-15.959 0.034-31.911 6.14-44.090 18.319s-18.286 28.131-18.319 44.094v-0.003 41.623c0.028 15.968 6.134 31.93 18.32 44.115s28.147 18.292 44.117 18.32l207.498-0.025-0.025 560.731c0.028 15.968 6.134 31.93 18.32 44.115s28.147 18.292 44.117 18.32h41.62c15.959-0.034 31.911-6.14 44.090-18.319s18.286-28.131 18.319-44.094v0.003z" />
<glyph unicode="&#xe91a;" glyph-name="Group-5543" d="M794.368 643.669l-272.725 266.965c-3.445 4.136-8.596 6.749-14.357 6.749s-10.913-2.613-14.333-6.719l-0.024-0.030-272.683-266.965c-4.439-3.928-7.224-9.639-7.224-16.001 0-11.782 9.551-21.333 21.333-21.333 0.080 0 0.159 0 0.239 0.001h129.14v-346.027c2.517-14.414 14.098-25.503 28.557-27.248l0.158-0.016h229.632c11.477 0 14.336 14.336 14.336 27.264v346.069h143.531c0.067-0.001 0.147-0.001 0.227-0.001 11.782 0 21.333 9.551 21.333 21.333 0 6.362-2.785 12.073-7.201 15.982l-0.023 0.020zM622.251 190.165h-229.632c-11.888 0-21.525-9.637-21.525-21.525s9.637-21.525 21.525-21.525v0h229.632c11.888 0 21.525 9.637 21.525 21.525s-9.637 21.525-21.525 21.525v0zM622.251 104.021h-229.632c-11.888 0-21.525-9.637-21.525-21.525s9.637-21.525 21.525-21.525v0h229.632c11.888 0 21.525 9.637 21.525 21.525s-9.637 21.525-21.525 21.525v0zM622.251 17.92h-229.632c-11.888 0-21.525-9.637-21.525-21.525s9.637-21.525 21.525-21.525v0h229.632c11.888 0 21.525 9.637 21.525 21.525s-9.637 21.525-21.525 21.525v0z" />
<glyph unicode="&#xe91b;" glyph-name="Group-5545" d="M835.627 840.789c-20.976 20.925-49.926 33.863-81.899 33.863s-60.923-12.939-81.901-33.866l-549.161-549.203c-4.207-4.195-6.809-9.996-6.809-16.406 0-3.324 0.7-6.485 1.961-9.343l-0.058 0.148-74.155-272.768c-0.514-1.82-0.809-3.911-0.809-6.070 0-12.795 10.373-23.168 23.168-23.168 2.233 0 4.391 0.316 6.434 0.905l-0.164-0.040 270.848 76.117c2.644-1.139 5.722-1.801 8.955-1.801 6.401 0 12.196 2.596 16.389 6.792l549.077 549.163c20.955 20.962 33.916 49.917 33.916 81.899s-12.961 60.937-33.916 81.899v0zM639.659 743.125l179.2-181.12-466.944-466.944-180.309 180.181zM154.965 226.517l148.523-148.523-204.416-57.515zM884.565 627.883l-33.152-33.152-179.2 181.12 32.171 32.171c12.579 12.51 29.92 20.242 49.067 20.242s36.488-7.733 49.070-20.245l-0.003 0.003 82.219-81.877c12.52-12.574 20.26-29.917 20.26-49.067s-7.74-36.492-20.262-49.069l0.002 0.002z" />
<glyph unicode="&#xe91c;" glyph-name="Group-5548" d="M1020.544 428.459c-76.075 150.144-289.963 259.328-508.629 259.328s-432.427-109.184-508.501-259.328c-2.186-4.241-3.468-9.256-3.468-14.571s1.282-10.329 3.553-14.753l-0.085 0.182c76.075-150.187 290.133-259.157 508.544-259.157 172.8 0 351.019 66.944 443.477 166.4 5.262 5.715 8.489 13.376 8.489 21.791 0 17.791-14.422 32.213-32.213 32.213-9.242 0-17.575-3.892-23.45-10.127l-0.015-0.016c-50.428-49.472-112.412-87.35-181.519-109.2l-3.227-0.88c38.668 46.729 62.126 107.274 62.126 173.298 0 65.050-22.771 124.781-60.776 171.658l0.399-0.509c100.954-32.084 183.521-97.741 236.512-183.592l1.056-1.838c5.437-10.555 16.258-17.648 28.736-17.648 17.794 0 32.219 14.425 32.219 32.219 0 5.316-1.287 10.331-3.568 14.751l0.085-0.18zM69.077 413.909c55.217 79.659 134.077 139.498 226.338 169.779l3.123 0.887c-37.427-46.265-60.085-105.82-60.085-170.667s22.657-124.402 60.487-171.181l-0.403 0.515c-95.446 31.127-174.366 90.958-228.675 169.168l-0.957 1.456zM721.493 413.909c0-0.013 0-0.028 0-0.043 0-115.606-93.717-209.323-209.323-209.323s-209.323 93.717-209.323 209.323c0 115.516 93.571 209.177 209.053 209.322h0.014c115.566-0.121 209.22-93.761 209.365-209.309v-0.014zM512 285.099c0.247-0.002 0.539-0.003 0.831-0.003 71.14 0 128.811 57.67 128.811 128.811s-57.67 128.811-128.811 128.811c-16.866 0-32.975-3.242-47.738-9.136l0.869 0.306c8.668-10.824 13.91-24.719 13.91-39.837 0-35.346-28.654-64-64-64-11.095 0-21.531 2.823-30.629 7.791l0.335-0.167c-1.51-7.377-2.374-15.855-2.374-24.536 0-70.692 57.308-128 128-128 0.279 0 0.559 0.001 0.838 0.003h-0.043zM157.739-53.035c-17.786 0.006-32.203 14.426-32.203 32.213 0 7.98 2.901 15.282 7.707 20.909l-0.037-0.045 740.651 869.461c5.946 6.954 14.728 11.334 24.533 11.334 17.794 0 32.219-14.425 32.219-32.219 0-7.989-2.908-15.299-7.723-20.929l0.037 0.044-740.651-869.461c-5.945-6.938-14.716-11.307-24.507-11.307-0.009 0-0.018 0-0.027 0h0.001z" />
<glyph unicode="&#xe91d;" glyph-name="Group-5549" d="M213.504 44.971h-63.403l44.8 44.8c23.342 23.38 39.092 54.344 43.236 88.878l0.071 0.722c-59.566 37.806-105.789 91.916-132.961 156.056l-0.842 2.238c-13.384 33.359-21.148 72.031-21.148 112.516 0 30.659 4.452 60.279 12.746 88.247l-0.558-2.192c25.878 86.231 78.355 157.869 147.756 207.279l1.193 0.807c77.85 55.186 174.788 88.217 279.442 88.217 2.844 0 5.683-0.024 8.516-0.073l-0.427 0.006c6.366 0.301 13.828 0.472 21.33 0.472 118.865 0 227.684-43.015 311.739-114.328l-0.696 0.576c69.655-62.534 113.27-152.868 113.27-253.389 0-49.254-10.472-96.062-29.31-138.32l0.861 2.162c-20.66-46.508-49.368-85.93-84.719-118.197l-0.273-0.246c-83.289-71.009-192.172-114.209-311.145-114.209-7.391 0-14.743 0.167-22.053 0.497l1.038-0.037c-53.432 0.044-105.217 7.015-154.53 20.063l4.216-0.948c-42.586-44.048-102.149-71.451-168.114-71.637h-0.035zM531.968 779.861c-217.045 0-350.208-129.451-385.92-257.707-6.281-21.469-9.895-46.132-9.895-71.639 0-101.646 57.384-189.888 141.524-234.099l1.449-0.694 13.099-7.893-0.384-15.275c-0.786-31.319-8.418-60.676-21.447-86.876l0.541 1.202c32.959 11.499 60.701 30.922 81.905 56.043l0.228 0.277 11.093 13.099 16.469-4.907c45.139-13.54 97.009-21.334 150.7-21.334 0.21 0 0.419 0 0.629 0h-0.032c270.123 0 393.131 163.541 393.131 315.733-0.18 85.123-37.175 161.57-95.903 214.291l-0.268 0.237c-74.199 62.241-170.722 100.048-276.076 100.048-7.345 0-14.648-0.184-21.903-0.547l1.020 0.041z" />
<glyph unicode="&#xe91e;" glyph-name="Group-5553" d="M925.397 683.264v0.725c-0.427 9.003-0.683 18.517-0.853 29.141-1.016 52.041-41.885 94.217-93.292 97.309l-0.276 0.013c-102.446 2.191-194.717 44.010-262.45 110.684l0.050-0.050-0.64 0.555c-10.668 9.904-25.008 15.981-40.768 15.981s-30.1-6.077-40.806-16.016l0.038 0.035-0.597-0.555c-67.686-66.621-159.955-108.439-261.982-110.628l-0.418-0.007c-51.683-3.106-92.552-45.282-93.566-97.224l-0.002-0.098c0-10.539-0.427-20.053-0.853-29.141v-1.707c-2.091-109.909-4.693-246.699 41.045-370.859 25.414-69.118 64.034-128.051 113.168-176.316l0.070-0.068c61.346-57.632 135.412-102.502 217.472-129.904l4.181-1.211c2.474-0.902 5.521-1.756 8.645-2.399l0.443-0.076c3.964-0.832 8.518-1.308 13.184-1.308s9.22 0.476 13.618 1.382l-0.434-0.075c3.583 0.717 6.644 1.571 9.612 2.624l-0.482-0.149c86.14 28.68 160.112 73.554 221.708 131.446l-0.31-0.289c49.211 48.364 87.843 107.323 112.219 173.196l1.061 3.273c45.952 124.544 43.307 261.589 41.216 371.712zM832.555 330.581c-48.256-130.859-146.773-220.715-301.227-274.731-0.473-0.169-1.059-0.331-1.66-0.454l-0.089-0.015c-0.725-0.151-1.558-0.238-2.411-0.238s-1.686 0.087-2.49 0.252l0.080-0.014-1.749 0.469c-154.581 54.016-253.141 143.616-301.397 274.603-25.759 82.603-40.596 177.578-40.596 276.018 0 26.321 1.061 52.395 3.142 78.18l-0.22-3.393v0.597c0.427 9.515 0.725 19.499 0.853 30.464 0.467 23.121 18.634 41.851 41.478 43.216l0.122 0.006c59.663 2.574 115.607 15.583 167.013 37.24l-3.173-1.187c51.802 22.372 96.072 52.574 133.542 89.638l-0.038-0.038c0.898 0.818 2.097 1.319 3.413 1.319s2.515-0.501 3.417-1.322l-0.004 0.004c37.433-37.022 81.703-67.223 130.734-88.528l2.77-1.072c48.234-20.47 104.178-33.479 162.837-36.019l1.003-0.035c22.985-1.348 41.174-20.087 41.642-43.176l0.001-0.045c0-11.008 0.469-20.992 0.896-30.421 1.848-22.32 2.902-48.312 2.902-74.551 0-98.698-14.909-193.914-42.597-283.518l1.808 6.794zM533.931 702.507c-129.037 0-233.643-104.605-233.643-233.643s104.605-233.643 233.643-233.643c129.037 0 233.643 104.605 233.643 233.643v0c-0.146 128.979-104.664 233.497-233.629 233.643h-0.014zM533.931 290.219c-0.013 0-0.028 0-0.043 0-98.663 0-178.645 79.982-178.645 178.645s79.982 178.645 178.645 178.645c98.663 0 178.645-79.982 178.645-178.645v0c-0.097-98.609-79.997-178.524-178.591-178.645h-0.012zM601.088 541.397l-108.501-108.501-29.44 29.44c-5.014 5.205-12.044 8.437-19.829 8.437-15.199 0-27.52-12.321-27.52-27.52 0-7.785 3.233-14.815 8.429-19.821l0.009-0.008 48.896-48.896c4.98-4.978 11.858-8.057 19.456-8.057s14.476 3.079 19.456 8.057l128 128c4.759 4.94 7.691 11.669 7.691 19.083 0 15.199-12.321 27.52-27.52 27.52-7.414 0-14.143-2.932-19.091-7.699l0.009 0.008z" />
<glyph unicode="&#xe91f;" glyph-name="Group-5554" d="M1009.323 405.461c-16.95 165.246-137.091 298.239-294.223 334.267l-2.566 0.495v48.085c28.282 7.161 48.875 32.386 48.875 62.421 0 35.511-28.787 64.299-64.299 64.299-0.038 0-0.075 0-0.113 0h-136.314c-0.032 0-0.069 0-0.107 0-35.511 0-64.299-28.787-64.299-64.299 0-30.035 20.593-55.26 48.431-62.326l0.445-0.096v-48.213c-73.389-16.694-136.678-52.709-186.277-102.394l-0.006-0.006c-11.209-11.198-21.727-23.082-31.488-35.586l-0.64-0.852h-136.192c-10.451 0-18.923-8.472-18.923-18.923s8.472-18.923 18.923-18.923v0h110.507c-12.657-20.748-24.003-44.706-32.772-69.872l-0.807-2.661h-205.909c-10.451 0-18.923-8.472-18.923-18.923s8.472-18.923 18.923-18.923v0h195.2c-5.114-21.437-8.486-46.343-9.369-71.882l-0.018-0.652h-83.669c-10.451 0-18.923-8.472-18.923-18.923s8.472-18.923 18.923-18.923v0h84.267c1.791-26.62 5.995-51.381 12.437-75.222l-0.619 2.689h-122.539c-10.451 0-18.923-8.472-18.923-18.923s8.472-18.923 18.923-18.923v0h134.613c51.742-133.617 172.764-229.618 317.82-244.473l1.625-0.135q18.731-1.835 37.504-1.835c0.035 0 0.077 0 0.119 0 77.473 0 149.574 23.002 209.847 62.549l-1.454-0.895c5.204 3.427 8.592 9.243 8.592 15.851 0 10.448-8.469 18.917-18.917 18.917-3.84 0-7.413-1.144-10.396-3.11l0.071 0.044c-52.918-34.83-117.805-55.56-187.535-55.56-190.139 0-344.277 154.138-344.277 344.277s154.138 344.277 344.277 344.277c190.139 0 344.277-154.138 344.277-344.277 0-69.577-20.639-134.333-56.13-188.48l0.806 1.31c-1.913-2.908-3.051-6.473-3.051-10.304 0-10.451 8.472-18.923 18.923-18.923 6.62 0 12.446 3.399 15.828 8.548l0.044 0.072c38.438 58.729 61.305 130.666 61.305 207.943 0 13.167-0.664 26.179-1.96 39.004l0.132-1.614zM534.187 850.731c0 14.633 11.863 26.496 26.496 26.496v0h136.192c14.169-0.587 25.433-12.215 25.433-26.475s-11.264-25.888-25.38-26.473l-0.053-0.002h-136.192c0 0 0 0 0 0-14.618 0-26.472 11.838-26.496 26.451v0.002zM582.997 746.624v39.808h91.563v-39.723c-13.636 1.71-29.416 2.686-45.425 2.686-16.261 0-32.287-1.007-48.018-2.962l1.88 0.191zM885.888 129.536c-0.012 0-0.025 0-0.039 0-10.462 0-18.944-8.482-18.944-18.944s8.482-18.944 18.944-18.944c10.462 0 18.944 8.482 18.944 18.944 0 5.232-2.121 9.969-5.55 13.397v0c-3.424 3.411-8.14 5.526-13.351 5.547h-0.004zM629.077 660.907c-162.074 0-293.461-131.387-293.461-293.461s131.387-293.461 293.461-293.461c162.074 0 293.461 131.387 293.461 293.461v0c-0.194 161.996-131.465 293.267-293.442 293.461h-0.019zM629.077 111.829c-141.173 0-255.616 114.443-255.616 255.616s114.443 255.616 255.616 255.616c141.173 0 255.616-114.443 255.616-255.616v0c-0.218-141.085-114.531-255.398-255.595-255.616h-0.021zM748.757 513.835l-93.867-93.867c-7.572 3.823-16.506 6.062-25.963 6.062s-18.39-2.239-26.3-6.216l0.337 0.154-41.941 41.941c-3.423 3.423-8.152 5.541-13.376 5.541-10.447 0-18.917-8.469-18.917-18.917 0-5.224 2.117-9.953 5.541-13.376v0l41.941-41.941c-3.834-7.594-6.080-16.554-6.080-26.038 0-32.471 26.323-58.795 58.795-58.795s58.795 26.323 58.795 58.795c0 9.484-2.246 18.444-6.234 26.376l0.154-0.338 93.653 93.653c3.423 3.423 5.541 8.152 5.541 13.376 0 10.447-8.469 18.917-18.917 18.917-5.224 0-9.953-2.117-13.376-5.541v0zM629.291 346.496c-11.57 0-20.949 9.379-20.949 20.949s9.379 20.949 20.949 20.949c11.57 0 20.949-9.379 20.949-20.949v0c0 0 0 0 0-0.001 0-11.594-9.398-20.992-20.992-20.992-0.060 0-0.12 0-0.18 0.001h0.009zM831.317 386.133h-17.451c-10.451 0-18.923-8.472-18.923-18.923s8.472-18.923 18.923-18.923v0h17.536c10.451 0 18.923 8.472 18.923 18.923s-8.472 18.923-18.923 18.923v0zM444.331 386.603h-17.536c-10.451 0-18.923-8.472-18.923-18.923s8.472-18.923 18.923-18.923v0h17.536c10.451 0 18.923 8.472 18.923 18.923s-8.472 18.923-18.923 18.923v0zM629.291 533.291c10.439 0 18.901 8.462 18.901 18.901v0 17.536c0 10.451-8.472 18.923-18.923 18.923s-18.923-8.472-18.923-18.923v0-17.536c0 0 0 0 0 0 0-10.439 8.462-18.901 18.901-18.901 0.015 0 0.030 0 0.045 0h-0.002zM628.821 201.643c-10.439 0-18.901-8.462-18.901-18.901v0-17.536c0-10.451 8.472-18.923 18.923-18.923s18.923 8.472 18.923 18.923v0 17.536c0 0 0 0 0 0 0 10.439-8.462 18.901-18.901 18.901-0.015 0-0.030 0-0.045 0h0.002zM61.568 269.653c-10.43-0.012-18.88-8.47-18.88-18.901 0-10.439 8.462-18.901 18.901-18.901 5.203 0 9.916 2.103 13.334 5.505l-0.001-0.001c3.44 3.424 5.568 8.162 5.568 13.397 0 10.439-8.462 18.901-18.901 18.901-0.008 0-0.015 0-0.023 0h0.001z" />
<glyph unicode="&#xe920;" glyph-name="Group-5556" d="M919.552 615.467c-37.392 62.63-86.693 114.357-145.177 153.413l-1.724 1.083 14.123 24.491c2.33 3.97 3.706 8.743 3.706 13.838 0 10.184-5.498 19.084-13.687 23.894l-0.13 0.071c-75.428 44.476-166.187 70.751-263.083 70.751s-187.655-26.275-265.541-72.088l2.459 1.337c-8.32-4.881-13.818-13.781-13.818-23.965 0-5.095 1.376-9.868 3.776-13.969l-0.071 0.131 14.123-24.491c-128.38-85.38-211.84-229.439-211.84-392.99 0-0.11 0-0.219 0-0.329v0.018-166.4c0-15.293 12.398-27.691 27.691-27.691v0h85.888c13.374-63.682 69.027-110.828 135.711-110.933h0.011c15.293 0 27.691 12.398 27.691 27.691v0 369.707c0 15.293-12.398 27.691-27.691 27.691v0c-66.696-0.105-122.349-47.251-135.563-110.029l-0.159-0.904h-58.112c3.465 139.694 75.063 261.955 182.699 335.197l1.451 0.931 13.611-23.595c4.876-8.34 13.787-13.855 23.986-13.855 5.121 0 9.917 1.39 14.031 3.813l-0.13-0.071c51.509 30.553 113.545 48.61 179.797 48.61s128.288-18.057 181.454-49.517l-1.657 0.907c3.985-2.353 8.781-3.743 13.902-3.743 10.199 0 19.11 5.514 23.915 13.724l0.071 0.131 13.611 23.595c109.036-74.157 180.608-196.361 184.096-335.475l0.010-0.525h-58.069c-13.374 63.682-69.027 110.828-135.711 110.933h-0.011c-15.293 0-27.691-12.398-27.691-27.691v0-369.365c0-15.293 12.398-27.691 27.691-27.691v0c0.031 0 0.068 0 0.105 0 9.764 0 19.293 1.010 28.487 2.931l-0.901-0.157v-15.701c0-0.025 0-0.055 0-0.086 0-25.475-20.615-46.135-46.073-46.208h-129.287c-17.845 0.013-33.322 10.141-41.009 24.959l-0.121 0.257c29.83 13.046 50.295 42.299 50.295 76.332 0 45.879-37.193 83.072-83.072 83.072s-83.072-37.193-83.072-83.072c0-37.016 24.211-68.378 57.661-79.113l0.588-0.163c11.196-44.863 51.111-77.585 98.68-77.653h129.331c56.087 0.049 101.541 45.503 101.589 101.585v40.709c26.501 20.044 45.422 48.889 52.448 82.123l0.16 0.906h85.888c15.293 0 27.691 12.398 27.691 27.691v0 166.4c-0.021 87.967-24.18 170.286-66.214 240.701l1.19-2.152zM264.277 436.565v-304.469c-32.55 11.765-55.406 42.374-55.467 78.329v147.804c0.061 35.962 22.916 66.571 54.887 78.153l0.58 0.183zM153.344 238.165h-55.211v92.331h55.467zM696.661 749.397c-53.379 27.091-116.388 42.96-183.104 42.96s-129.725-15.869-185.458-44.039l2.354 1.079-27.819 48.085c61.422 31.599 134.030 50.123 210.965 50.123s149.543-18.523 213.609-51.353l-2.644 1.23zM513.579 142.165c15.293 0 27.691-12.398 27.691-27.691s-12.398-27.691-27.691-27.691c-15.293 0-27.691 12.398-27.691 27.691v0c0.024 15.283 12.407 27.666 27.688 27.691h0.002zM762.88 132.139v304.427c32.55-11.765 55.406-42.374 55.467-78.329v-147.762c-0.061-35.962-22.916-66.571-54.887-78.153l-0.58-0.183zM929.28 238.208h-55.467v92.288h55.467z" />
<glyph unicode="&#xe921;" glyph-name="Group-5559" d="M986.155 562.901c-3.296 9.942-11.805 17.283-22.205 18.84l-0.152 0.019-292.907 42.667-130.987 265.429c-4.632 9.196-13.997 15.394-24.811 15.394s-20.179-6.198-24.738-15.235l-0.073-0.159-131.029-265.557-292.907-42.667c-13.347-2.14-23.422-13.573-23.422-27.36 0-7.728 3.166-14.717 8.272-19.741l0.004-0.004 211.925-206.592-50.176-291.755c-0.251-1.4-0.394-3.012-0.394-4.657 0-15.293 12.398-27.691 27.691-27.691 4.699 0 9.125 1.171 13.002 3.236l-0.149-0.073 261.973 137.728 261.973-137.728c3.728-1.993 8.154-3.164 12.853-3.164 15.293 0 27.691 12.398 27.691 27.691 0 1.645-0.143 3.257-0.419 4.823l0.024-0.166-50.048 291.712 211.968 206.592c5.181 5.037 8.395 12.074 8.395 19.861 0 3.058-0.496 6-1.411 8.751l0.056-0.196z" />
<glyph unicode="&#xe922;" glyph-name="Group-5561" d="M1001.6 560.384c-3.343 10.098-11.983 17.555-22.544 19.138l-0.155 0.019-297.685 43.264-133.12 269.739c-4.686 9.387-14.222 15.721-25.237 15.721s-20.551-6.334-25.164-15.559l-0.074-0.163-133.163-269.739-297.685-43.349c-13.669-2.067-24.026-13.733-24.026-27.818 0-7.872 3.235-14.988 8.447-20.092l0.005-0.005 215.424-209.963-50.901-296.491c-0.288-1.51-0.452-3.247-0.452-5.023 0-15.529 12.589-28.117 28.117-28.117 4.818 0 9.353 1.212 13.316 3.347l-0.15-0.074 266.283 139.989 266.24-139.989c3.814-2.062 8.349-3.273 13.167-3.273 15.529 0 28.117 12.589 28.117 28.117 0 1.776-0.165 3.513-0.479 5.197l0.027-0.174-50.859 296.491 215.424 209.963c5.248 5.113 8.504 12.25 8.504 20.147 0 3.108-0.504 6.099-1.436 8.894l0.057-0.199zM729.173 351.531c-5.254-5.114-8.513-12.254-8.513-20.156 0-1.682 0.148-3.33 0.431-4.931l-0.025 0.169 43.733-254.891-228.907 120.32c-3.798 2.036-8.309 3.232-13.099 3.232s-9.301-1.196-13.25-3.306l0.151 0.074-228.864-120.32 43.691 254.891c0.258 1.432 0.406 3.079 0.406 4.762 0 7.901-3.259 15.042-8.507 20.149l-0.006 0.006-185.173 180.523 256 37.205c9.41 1.347 17.213 7.187 21.26 15.241l0.074 0.162 114.475 231.893 114.432-231.893c4.12-8.215 11.923-14.056 21.183-15.385l0.151-0.018 256-37.205z" />
<glyph unicode="&#xe923;" glyph-name="Group-5562" d="M517.632 934.272c-262.316 0-474.965-212.649-474.965-474.965s212.649-474.965 474.965-474.965c262.316 0 474.965 212.649 474.965 474.965v0c0 262.316-212.649 474.965-474.965 474.965v0zM517.632 52.224c-224.849 0-407.125 182.276-407.125 407.125s182.276 407.125 407.125 407.125c224.849 0 407.125-182.276 407.125-407.125v0c0-224.849-182.276-407.125-407.125-407.125v0zM717.653 474.411c-3.364 6.618-8.614 11.868-15.038 15.142l-0.194 0.090-271.403 135.723c-4.373 2.183-9.526 3.461-14.977 3.461-18.748 0-33.966-15.115-34.132-33.824v-271.419c0.166-18.725 15.384-33.84 34.132-33.84 5.451 0 10.604 1.278 15.176 3.551l-0.198-0.089 271.403 135.723c11.194 5.756 18.718 17.226 18.718 30.454 0 5.471-1.287 10.642-3.576 15.226l0.089-0.198zM449.792 378.453v161.621l161.621-80.811z" />
<glyph unicode="&#xe924;" glyph-name="Group-5032" d="M568.55 448l443.7 443.7c7.247 7.241 11.73 17.247 11.73 28.3 0 22.094-17.911 40.005-40.005 40.005-11.041 0-21.037-4.473-28.275-11.705v0l-443.7-443.75-443.7 443.75c-7.243 7.243-17.248 11.722-28.3 11.722-22.104 0-40.022-17.919-40.022-40.022 0-11.052 4.48-21.057 11.722-28.3l443.7-443.7-443.7-443.7c-6.811-7.158-11.001-16.865-11.001-27.551 0-22.091 17.909-40 40-40 10.686 0 20.393 4.19 27.568 11.017l-0.017-0.016 443.7 443.7 443.7-443.7c7.303-7.675 17.593-12.449 28.999-12.449 22.091 0 40 17.909 40 40 0 11.406-4.774 21.697-12.432 28.983l-0.017 0.016z" />
<glyph unicode="&#xe925;" glyph-name="Group-5663" horiz-adv-x="1008" d="M802.555 659.589c-1.144 24.692-11 49.236-29.645 68.525-40.664 42.068-107.731 43.206-149.798 2.543s-43.206-107.731-2.543-149.798c18.645-19.289 42.841-29.973 67.633-31.968l-0.154 0.014c-3.834-10.606-6.415-20.369-8.171-30.252l0.127 0.629c-38.121 4.458-76.589-0.128-112.455-13.747l-1.519-0.649c1.686 35.438-10.662 71.371-37.196 98.82-51.022 52.784-135.174 54.213-187.959 3.19s-54.213-135.174-3.19-187.959c26.533-27.45 62.026-41.011 97.407-40.53l0.094 0.002c-15.523-36.89-21.402-75.19-18.279-112.914l0.052-0.535c-9.303-1.316-19.147-3.563-28.788-6.639l-1.091-0.395c-1.144 24.692-11 49.236-29.645 68.525-40.664 42.068-107.731 43.206-149.798 2.543s-43.206-107.731-2.543-149.798c18.645-19.289 42.841-29.973 67.633-31.968l-0.154 0.014c-23.102-64.457-9.779-137.983 40.076-189.699l0.009-0.009c10.437-10.798 27.652-11.090 38.45-0.653v0l639.060 617.728c10.798 10.437 11.090 27.652 0.653 38.45v0c-50.002 51.613-123.050 67.435-187.166 46.929l-1.101-0.4zM245.439 289.858c0.035 0.034 0.076 0.074 0.118 0.114 20.472 19.789 53.11 19.235 72.898-1.237s19.235-53.11-1.237-72.898c-20.472-19.789-53.11-19.235-72.898 1.237-0.010 0.010-0.020 0.021-0.030 0.031l0.002-0.002c-19.697 20.443-19.175 52.948 1.14 72.747l0.008 0.008zM464.358 142.102l-129.369-125.051c-31.121 50.828-24.109 117.196 19.877 159.714 20.785 20.092 46.614 31.751 73.252 35.050l-0.4-0.058c7.389-23.438 19.543-47.241 35.974-68.869l0.694-0.873zM378.651 567.847c31.172 30.132 80.869 29.288 111.001-1.884s29.288-80.869-1.884-111.001c-31.172-30.132-80.869-29.288-111.001 1.884v0c-30.014 31.218-29.141 80.832 1.967 110.967l0.003 0.003zM503.815 180.241c-51.124 72.673-43.261 172.571 21.868 235.526s165.236 67.423 235.325 14.508l0.808-0.645zM661.030 691.576c20.472 19.789 53.11 19.235 72.898-1.237s19.235-53.11-1.237-72.898c-20.472-19.789-53.11-19.235-72.898 1.237v0c-19.755 20.471-19.212 53.067 1.205 72.867l0.003 0.003zM801.272 467.769v0c-21.858 17.874-45.187 30.84-69.703 39.599l1.391-0.559c4.044 26.024 16.487 51.361 37.188 71.371 0.090 0.087 0.179 0.173 0.269 0.26l-0.014-0.013c44.009 42.437 110.503 47.204 159.556 14.984l0.712-0.504z" />
<glyph unicode="&#xe926;" glyph-name="facebook-4" d="M904.021 960h-784c-66.257-0.073-119.949-53.765-120.021-120.014v-784.007c0.097-66.238 53.78-119.906 120.015-119.979h784.007c66.223 0.097 119.882 53.755 119.979 119.969v784.009c-0.073 66.242-53.74 119.924-119.969 120.021h-0.009zM944.043 55.979c-0.024-22.078-17.904-39.973-39.974-40.021h-236.080v292.053h128l14.933 123.989h-142.933v134.016c-0.010 0.398-0.015 0.867-0.015 1.338 0 32.401 26.266 58.667 58.667 58.667 0.47 0 0.94-0.006 1.407-0.017l-0.069 0.001h89.984v116.011c-25.773 3.845-56.829 6.704-88.305 7.927l-1.679 0.052c-50.139-0.668-95.366-21.161-128.304-53.979l0.006 0.006c-34.192-33.013-55.483-79.196-55.68-130.352v-133.669h-130.133v-123.989h130.133v-292.011h-424.021c-22.060 0.048-39.93 17.919-39.979 39.974v784.005c0.048 22.060 17.919 39.93 39.974 39.979h784.005c22.093-0.024 39.997-17.928 40.021-40.019v-0.002z" />
<glyph unicode="&#xe927;" glyph-name="Group-5749" horiz-adv-x="1048" d="M189.995-45.824h711.168c81.328 0.097 147.231 66 147.328 147.319v711.177c-0.097 81.328-66 147.231-147.319 147.328h-711.177c-81.328-0.097-147.231-66-147.328-147.319v-711.177c0.097-81.328 66-147.231 147.319-147.328h0.009zM101.589 812.672c0.049 48.805 39.6 88.357 88.401 88.405h711.173c48.805-0.049 88.357-39.6 88.405-88.401v-711.173c-0.049-48.805-39.6-88.357-88.401-88.405h-711.173c-48.805 0.049-88.357 39.6-88.405 88.401v0.005zM545.536 191.915c146.475 0 265.216 118.741 265.216 265.216s-118.741 265.216-265.216 265.216c-146.475 0-265.216-118.741-265.216-265.216 0-0.015 0-0.030 0-0.045v0.002c0.194-146.388 118.825-265.003 265.2-265.173h0.016zM545.536 663.381c113.891-0.024 206.208-92.357 206.208-206.251 0-113.909-92.342-206.251-206.251-206.251s-206.251 92.342-206.251 206.251c0 0 0 0 0 0v0c0.146 113.866 92.425 206.129 206.282 206.251h0.011zM840.235 663.339c48.825 0 88.405 39.58 88.405 88.405s-39.58 88.405-88.405 88.405c-48.825 0-88.405-39.58-88.405-88.405v0c0.049-48.805 39.6-88.357 88.401-88.405h0.005zM840.235 781.227c16.283 0 29.483-13.2 29.483-29.483s-13.2-29.483-29.483-29.483c-16.283 0-29.483 13.2-29.483 29.483v0c0.024 16.273 13.21 29.458 29.48 29.483h0.002z" />
</font>
</defs>
</svg>
