<svg xmlns="http://www.w3.org/2000/svg" width="24.134" height="29.816" viewBox="0 0 24.134 29.816"><defs><style>.a{fill:#49b748;}</style></defs><g transform="translate(393.22 -272.665)"><path class="a" d="M29.665,654.932a.567.567,0,0,0-.365-.132h-.132l-4.35.986-.878.2.458-.777a7.636,7.636,0,1,0-13.741-1.32l.14.388-.4.117-4.194,1.235a.6.6,0,0,0-.427.567v15.885a.6.6,0,0,0,.59.6.658.658,0,0,0,.179,0l7.643-2.33.14-.047.163.031,6.991,3.107a.45.45,0,0,0,.2.039h.163l.381-.085h0l7.216-1.553a.59.59,0,0,0,.466-.575V655.4a.575.575,0,0,0-.249-.466ZM13.773,669.2l-.28.085L7.5,671.112l-.5.155v-14.6l.28-.085,3.884-1.134.272-.078.163.233a7.243,7.243,0,0,0,.909,1.134l1.212,1.212.117.117Zm7.333,2.8-.544-.241-5.375-2.4-.225-.1v-10l.66.66,1.794,1.8a.614.614,0,0,0,.847,0l2.183-2.183.66-.668Zm.777-15.582-3.759,3.76-.28.28-.272-.28-4.288-4.28a6.553,6.553,0,0,1-1.119-1.5,6.458,6.458,0,1,1,10.214,1.5ZM28.71,670.8l-.3.062-5.639,1.22-.466.1V657.6l.3-.07,5.631-1.274.474-.109Z" transform="translate(-399 -371)"/><path class="a" d="M20.427,649.32a3.045,3.045,0,1,0,3.053,3.053,3.045,3.045,0,0,0-3.053-3.053Zm.388,4.87h-.388a1.856,1.856,0,1,1,.388,0Z" transform="translate(-401.592 -372.262)"/></g></svg>