<svg xmlns="http://www.w3.org/2000/svg" width="22" height="29.9" viewBox="0 0 22 29.9"><defs><style>.a{fill:#49b748;}</style></defs><g transform="translate(-554 -899.22)"><g transform="translate(554 899)"><path class="a" d="M19.93,3.33H2.06A2.09,2.09,0,0,0,0,5.38V28.06a2.09,2.09,0,0,0,2.09,2.06H19.93A2.08,2.08,0,0,0,22,28.06V5.38a2.08,2.08,0,0,0-2.07-2.05ZM7.55,4.69h6.88m1.39,0H20a.69.69,0,0,1,.69.69h0V28.07a.69.69,0,0,1-.7.69H2.06a.69.69,0,0,1-.7-.69h0V5.38a.69.69,0,0,1,.7-.69H6.2"/><path class="a" d="M5.55,14.27a.7.7,0,1,1-.69-.7.69.69,0,0,1,.69.7Z"/><path class="a" d="M18.14,14.28a.7.7,0,0,1-.7.7H8.37a.7.7,0,0,1-.7-.69.71.71,0,0,1,.7-.71h9.07a.7.7,0,0,1,.7.7Z"/><path class="a" d="M5.55,10.08a.7.7,0,1,1-1.39,0,.7.7,0,1,1,1.39,0Z"/><path class="a" d="M18.14,10.1a.7.7,0,0,1-.7.7H8.37a.7.7,0,1,1,0-1.4h9.07a.7.7,0,0,1,.7.7Z"/><path class="a" d="M5.55,18.45a.7.7,0,1,1-.321-.675.7.7,0,0,1,.321.675Z"/><path class="a" d="M18.14,18.47a.7.7,0,0,1-.7.7H8.37a.7.7,0,1,1,0-1.4h9.07A.7.7,0,0,1,18.14,18.47Z"/><path class="a" d="M5.55,22.64a.7.7,0,1,1-.69-.7.69.69,0,0,1,.69.7Z"/><path class="a" d="M18.14,22.65a.7.7,0,0,1-.7.7H8.37a.7.7,0,1,1,0-1.39h9.07a.69.69,0,0,1,.7.69Z"/></g><path class="a" d="M15.81,4.69V.92a.7.7,0,0,0-.69-.7H6.92a.7.7,0,0,0-.7.7V4.69ZM7.58,1.56h6.86V4.65H7.58Z" transform="translate(554 899)"/></g></svg>