<svg xmlns="http://www.w3.org/2000/svg" width="18.283" height="16.759" viewBox="0 0 18.283 16.759">
  <g id="dashboard" transform="translate(0 -1)">
    <g id="Group_6133" data-name="Group 6133" transform="translate(3.103 7.094)">
      <path id="Path_1714" data-name="Path 1714" d="M6.549,10.143h-1.9A.571.571,0,1,1,4.644,9h1.9a.571.571,0,1,1,0,1.143Z" transform="translate(-4.073 -9)" fill="#49b748"/>
    </g>
    <g id="Group_6134" data-name="Group 6134" transform="translate(8.435 7.094)">
      <path id="Path_1715" data-name="Path 1715" d="M17.358,10.143H11.644a.571.571,0,1,1,0-1.143h5.713a.571.571,0,1,1,0,1.143Z" transform="translate(-11.073 -9)" fill="#49b748"/>
    </g>
    <g id="Group_6135" data-name="Group 6135" transform="translate(3.103 10.141)">
      <path id="Path_1716" data-name="Path 1716" d="M6.549,14.143h-1.9a.571.571,0,0,1,0-1.143h1.9a.571.571,0,0,1,0,1.143Z" transform="translate(-4.073 -13)" fill="#49b748"/>
    </g>
    <g id="Group_6136" data-name="Group 6136" transform="translate(8.435 10.141)">
      <path id="Path_1717" data-name="Path 1717" d="M17.358,14.143H11.644a.571.571,0,0,1,0-1.143h5.713a.571.571,0,0,1,0,1.143Z" transform="translate(-11.073 -13)" fill="#49b748"/>
    </g>
    <g id="Group_6137" data-name="Group 6137" transform="translate(3.103 13.189)">
      <path id="Path_1718" data-name="Path 1718" d="M6.549,18.143h-1.9a.571.571,0,0,1,0-1.143h1.9a.571.571,0,0,1,0,1.143Z" transform="translate(-4.073 -17)" fill="#49b748"/>
    </g>
    <g id="Group_6138" data-name="Group 6138" transform="translate(8.435 13.189)">
      <path id="Path_1719" data-name="Path 1719" d="M17.358,18.143H11.644a.571.571,0,0,1,0-1.143h5.713a.571.571,0,0,1,0,1.143Z" transform="translate(-11.073 -17)" fill="#49b748"/>
    </g>
    <g id="Group_6139" data-name="Group 6139" transform="translate(0 1)">
      <path id="Path_1720" data-name="Path 1720" d="M16.188,17.759H2.095A2.1,2.1,0,0,1,0,15.664V3.095A2.1,2.1,0,0,1,2.095,1H16.188a2.1,2.1,0,0,1,2.095,2.095V15.664A2.1,2.1,0,0,1,16.188,17.759ZM2.095,2.143a.954.954,0,0,0-.952.952V15.664a.954.954,0,0,0,.952.952H16.188a.954.954,0,0,0,.952-.952V3.095a.954.954,0,0,0-.952-.952Z" transform="translate(0 -1)" fill="#49b748"/>
    </g>
    <g id="Group_6140" data-name="Group 6140" transform="translate(0 3.666)">
      <path id="Path_1721" data-name="Path 1721" d="M17.712,5.643H.571a.571.571,0,1,1,0-1.143h17.14a.571.571,0,1,1,0,1.143Z" transform="translate(0 -4.5)" fill="#49b748"/>
    </g>
  </g>
</svg>
