<svg xmlns="http://www.w3.org/2000/svg" width="28.614" height="27.527" viewBox="0 0 28.614 27.527"><defs><style>.a{fill:#49b748;}</style></defs><path class="a" d="M29.262,197.644H23.932l.286-.529a3.305,3.305,0,0,0,.429-1.7A3.441,3.441,0,0,0,21.221,192c-2.7,0-4.357,2.067-5.272,3.791l-.322.6-.315-.6C14.4,194.06,12.737,192,10.04,192a3.455,3.455,0,0,0-3.427,3.491,3.391,3.391,0,0,0,.429,1.61l.286.529H1.964a.644.644,0,0,0-.644.644v6.6a.644.644,0,0,0,.644.644h1.23v13.363a.651.651,0,0,0,.644.644H27.445a.644.644,0,0,0,.644-.644V205.492h1.2a.644.644,0,0,0,.644-.644v-6.56a.644.644,0,0,0-.672-.644ZM7.873,195.5a2.146,2.146,0,0,1,2.146-2.146c2.439,0,3.863,2.4,4.492,3.834l.215.5H10a2.146,2.146,0,0,1-2.146-2.146Zm7.111,22.734H4.489V205.492H14.983Zm0-14H2.615v-5.294H14.983Zm1.753-7.061c.622-1.431,2.032-3.834,4.485-3.834a2.147,2.147,0,0,1,.064,4.292H16.493Zm10.015,21.06H16.278V205.492H26.772Zm1.838-14H16.278v-5.294H28.611Z" transform="translate(-1.32 -192)"/></svg>