<svg xmlns="http://www.w3.org/2000/svg" width="32.47" height="27.716" viewBox="0 0 32.47 27.716"><defs><style>.a{fill:#49b748;}.b{fill:#4da751;}.c{fill:#68cc67;}</style></defs><g transform="translate(-312.22 -74.34)"><path class="a" d="M340.081,84.81v7.3l4.61-1.745L338.307,74.34,312.22,84.81" transform="translate(0)"/><path class="b" d="M340.991,88.744V80.63H315.108l-1.978.8v.523h26.538v7.3Z" transform="translate(0.413 2.856)"/><path class="a" d="M0,0H27.861V17.246H0Z" transform="translate(312.22 84.81)"/><g transform="translate(314.881 78.906)"><path class="c" d="M314.05,88.676a4.653,4.653,0,0,0,3.126-3.126h16.3a4.653,4.653,0,0,0,3.126,3.126v5.7a4.653,4.653,0,0,0-3.126,3.112h-16.3a4.653,4.653,0,0,0-3.126-3.112Z" transform="translate(-314.05 -77)"/><path class="a" d="M322.835,87.38A3.315,3.315,0,1,1,319.52,90.7a3.315,3.315,0,0,1,3.315-3.315" transform="translate(-311.566 -76.169)"/><path class="c" d="M337.341,85.574l-1.556-3.97-.073-.189a4.624,4.624,0,0,1-4.057-1.745h-.174l-14.221,5.9Z" transform="translate(-312.592 -79.67)"/><path class="b" d="M320.439,80.63l-3.2,1.323h20.11l-.523-1.323Z" transform="translate(-312.601 -76.05)"/><path class="a" d="M316.984,89.2a.669.669,0,1,1-.654.669.669.669,0,0,1,.654-.669" transform="translate(-313.015 -75.342)"/><path class="a" d="M327.029,89.2a.669.669,0,1,1-.669.669.683.683,0,0,1,.669-.669" transform="translate(-308.46 -75.342)"/></g></g></svg>