<svg xmlns="http://www.w3.org/2000/svg" width="33.995" height="21.544" viewBox="0 0 33.995 21.544" fill="#49b748">
  <g id="noun_heartbeat_3673411" transform="translate(-10 -24.65)">
    <path id="Path_4017" data-name="Path 4017" d="M43.6,36.366H36.7c2.72-3.705,1.98-6.757,1.453-8.019a5.921,5.921,0,0,0-5.392-3.7c-2.414.051-4.492,1.7-5.8,4.585-1.594-3.514-3.905-4.356-5.2-4.534a5.616,5.616,0,0,0-5.273,2.363,7.148,7.148,0,0,0-.353,7.5.392.392,0,1,0,.705-.344,6.39,6.39,0,0,1,.28-6.7,4.839,4.839,0,0,1,4.53-2.044c2.116.293,3.867,2.04,4.938,4.925a.409.409,0,0,0,.735,0c1.152-3.111,3.14-4.921,5.452-4.968h.089a5.084,5.084,0,0,1,4.564,3.213c.489,1.173,1.177,4.071-1.662,7.645l-1.343.034-1.054-3.068a.394.394,0,0,0-.756.042l-.994,4.432-.442-1.279a.394.394,0,0,0-.37-.263H29.462l-1.441-4.636a.4.4,0,0,0-.361-.276.386.386,0,0,0-.378.246l-2.528,6.332-.977-4.283a.393.393,0,0,0-.365-.306.381.381,0,0,0-.391.272l-.909,2.847H18.138a.436.436,0,0,0-.1-.021h0s-.008,0-.013,0-.008,0-.017,0H10.4a.4.4,0,0,0,0,.79h7.449c.353.416.71.8,1.075,1.156l7.759,7.768a.4.4,0,0,0,.276.115.389.389,0,0,0,.276-.115L35,38.312a15.6,15.6,0,0,0,1.075-1.16H43.6a.393.393,0,1,0,0-.786Zm-9.153,1.385-7.492,7.492-7.487-7.5c-.191-.183-.374-.374-.561-.574H22.4a.393.393,0,0,0,.374-.272l.561-1.755.939,4.109a.4.4,0,0,0,.353.306h.03a.393.393,0,0,0,.365-.246l2.584-6.472L28.8,36.7a.391.391,0,0,0,.374.276h1.347l.8,2.32a.376.376,0,0,0,.4.263.393.393,0,0,0,.361-.306l.994-4.424.7,2.027a.42.42,0,0,0,.382.268l.914-.021C34.876,37.317,34.672,37.534,34.447,37.751Z" transform="translate(0 0)"/>
  </g>
</svg>
