<svg id="Capa_1" enable-background="new 0 0 509.828 509.828" height="512" viewBox="0 0 509.828 509.828" width="512"
     xmlns="http://www.w3.org/2000/svg">
    <path fill="#49b748" d="m466.179 65.086c-55.541-57.848-155.349-58.149-211.241-.681-51.497-52.837-142.054-57.768-198.969-10.337-63.928 49.043-74.99 148.811-23.344 210.66 3.415 4.268 7.105 8.393 10.97 12.262 0 0 211.323 211.419 211.323 211.419.001-.001 211.328-211.328 211.329-211.33 58.135-55.811 58.103-156.219-.068-211.993zm-378.738 213.334h106.879l45.615-45.956v134.719l88.106-88.764h94.44l-167.558 167.559zm364.433-30h-136.324l-45.615 45.955v-134.719l-88.107 88.764h-123.776c-43.401-49.217-35.434-131.029 16.666-170.932 50.156-41.39 128.752-32.551 168.492 18.673 0-.001 11.707 14.624 11.707 14.624l11.711-14.621c43.901-55.464 128.596-60.207 178.345-9.858 43.78 42.025 46.829 116.664 6.901 162.114z"/>
</svg>
