<svg xmlns="http://www.w3.org/2000/svg" width="28.499" height="26.218" viewBox="0 0 28.499 26.218"><defs><style>.a{fill:#49b748;}</style></defs><g transform="translate(-0.462 -48.099)"><g transform="translate(0.462 48.099)"><path class="a" d="M26.534,50.621h0a8.725,8.725,0,0,0-11.554-.635l-.212.171-.212-.171A8.773,8.773,0,0,0,9.138,48.1,8.664,8.664,0,0,0,2.989,62.879L14.208,74.112a.717.717,0,0,0,1,0L26.48,62.879A8.883,8.883,0,0,0,26.534,50.621Zm-1.066,11.26-.246.246L14.973,72.377l-.246.239-.232-.253L3.959,61.847a7.236,7.236,0,0,1,5.07-12.36h.048A7.277,7.277,0,0,1,14.222,51.6a.717.717,0,0,0,1,0A7.257,7.257,0,0,1,25.468,61.881Z" transform="translate(-0.462 -48.099)"/></g></g></svg>