<svg xmlns="http://www.w3.org/2000/svg" xmlns:xlink="http://www.w3.org/1999/xlink" width="32.47" height="14.525" viewBox="0 0 32.47 14.525"><defs><style>.a{fill:none;}.b{clip-path:url(#a);}.c{fill:#333;}.d{fill:#fc7916;}</style><clipPath id="a"><rect class="a" width="32.47" height="14.525" transform="translate(448.89 83.25)"/></clipPath></defs><g class="b" transform="translate(-448.89 -83.25)"><g transform="translate(448.89 85.771)"><path class="c" d="M521.368,105.135h-.473c-.157,0-.168-.027-.168-.16V103.2a1.417,1.417,0,0,0-2.833-.061v1.833c0,.118-.023.172-.153.157a2.126,2.126,0,0,0-.382,0c-.1,0-.122-.031-.122-.126v-1.852a1.42,1.42,0,0,0-2.841.027v1.8c0,.122-.034.157-.149.145s-.382.05-.458-.027-.031-.305-.031-.47v-3.272c0-.118.023-.172.153-.157a2.127,2.127,0,0,0,.382,0c.111,0,.134.034.126.134s0,.191,0,.286c.061.023.084-.034.118-.057a2.047,2.047,0,0,1,2.883.283.551.551,0,0,1,.061.073c.088.115.111.107.2,0a2.058,2.058,0,0,1,3.662.859c0,.027,0,.065.034.076Z" transform="translate(-488.981 -97.641)"/><path class="c" d="M494.949,101.652a2.218,2.218,0,0,1,.893-.485c.519-.134.515-.137.519.382,0,.134-.023.183-.172.195a1.4,1.4,0,0,0-1.241,1.371v1.817c0,.16-.046.2-.195.183a2.635,2.635,0,0,0-.347,0c-.084,0-.111-.023-.107-.107v-3.666c0-.115.023-.16.145-.149a3.181,3.181,0,0,0,.382,0c.084,0,.111.027.107.107s0,.21,0,.351" transform="translate(-476.961 -97.636)"/><path class="c" d="M477.06,103.343v-1.817c0-.111.031-.145.141-.137a2.126,2.126,0,0,0,.382,0c.13,0,.13.057.13.153v3.65c0,.1-.027.13-.126.126a3.185,3.185,0,0,0-.382,0c-.111,0-.13-.038-.13-.137v-1.837" transform="translate(-466.304 -97.819)"/><path class="c" d="M476.787,97.887a.431.431,0,1,1,.859-.08v.08a.43.43,0,0,1-.855,0" transform="translate(-466.134 -95.363)"/><path class="d" d="M449.348,96.428c.176-.053.256-.2.256-.451V95.3a3.541,3.541,0,0,1,.191-.794,3.24,3.24,0,0,1,.519-.821,3.054,3.054,0,0,1,2.012-.947h.183a.462.462,0,0,0,.145,0l.214.031a3.818,3.818,0,0,1,1.367.584.382.382,0,0,0,.531-.1.133.133,0,0,1,.019-.031.382.382,0,0,0-.206-.5h-.042c-.206-.118-.4-.248-.615-.351a3.391,3.391,0,0,0-3.383.256,3.1,3.1,0,0,0-1.012.977,2.314,2.314,0,0,0-.451.844l-.061.16c-.034.16-.076.321-.126.477v1.145c.153.2.283.26.458.206" transform="translate(-448.89 -92.042)"/><path class="d" d="M456.284,102.687a.7.7,0,0,0,.79.584.814.814,0,0,0,.187-.057c.538-.286,1.054-.607,1.581-.916.195-.111.382-.21.588-.336a.626.626,0,0,0,.294-.619.676.676,0,0,0-.286-.546,3.367,3.367,0,0,0-.649-.382c-.157-.092-.317-.172-.462-.271a8.878,8.878,0,0,0-1.065-.6.7.7,0,0,0-.924.325.679.679,0,0,0-.061.229,3.47,3.47,0,0,0,0,.63.34.34,0,0,0,.382.309h0a.347.347,0,0,0,.332-.336v-.3c0-.1.061-.157.176-.1l.359.195c.305.179.611.359.913.542a3.455,3.455,0,0,1,.5.313c0,.092-.069.118-.134.157l-1.146.676c-.157.088-.309.172-.462.263s-.187.061-.206-.084a1.375,1.375,0,0,1,0-.283.355.355,0,0,0-.71-.031,2.144,2.144,0,0,0,0,.313.473.473,0,0,0,0,.325" transform="translate(-453.443 -96.636)"/><path class="d" d="M457.405,101.159c.16-.088.321-.179.473-.279a1.874,1.874,0,0,0,.725-.787,1.8,1.8,0,0,0,.248-.951,1.943,1.943,0,0,0-.344-1.241,3.893,3.893,0,0,0-1.527-1.145l-1.264-.729a2,2,0,0,0-1.478-.244,2.031,2.031,0,0,0-1.333.878,1.833,1.833,0,0,0-.382,1.145.254.254,0,0,0,0,.076V100.2a1.909,1.909,0,0,0,.221.955,2.07,2.07,0,0,0,1.711,1.229,2.486,2.486,0,0,0,1.749-.554.355.355,0,0,0-.382-.6c-.153.08-.3.172-.451.256a1.386,1.386,0,0,1-.832.179,1.527,1.527,0,0,1-1.035-.588,1.241,1.241,0,0,1-.229-.592c-.053-.382,0-.764-.031-1.168V97.837a1.3,1.3,0,0,1,.073-.382,1.588,1.588,0,0,1,.485-.695l.08-.046a1.382,1.382,0,0,1,1.527-.046l.237.126.061.046,1.879,1.088a1.5,1.5,0,0,1,.538.939v.344a1.527,1.527,0,0,1-.332.8,3.5,3.5,0,0,1-.764.508.359.359,0,0,0-.179.477.218.218,0,0,1,.019.031.382.382,0,0,0,.519.134h0" transform="translate(-451.135 -94.325)"/><path class="d" d="M457.874,97.97a2.8,2.8,0,0,0-.634-1.191l-.107-.13a4.349,4.349,0,0,0-1.264-.939.382.382,0,0,0-.512.107.359.359,0,0,0,.115.5h.031c.275.164.554.321.813.508a3.138,3.138,0,0,1,.832,1.168,3.341,3.341,0,0,1,.141,1.55,3.185,3.185,0,0,1-.607,1.294,3.658,3.658,0,0,1-.981.764,1.428,1.428,0,0,0-.344.21l-1.527.874-.084.042a2.783,2.783,0,0,1-1.554.321,6.308,6.308,0,0,1-.764-.164,2.838,2.838,0,0,1-.561-.3,3.26,3.26,0,0,1-.89-.939,2.822,2.822,0,0,1-.351-1.145c-.034-.279,0-.557-.031-.832a.344.344,0,0,0-.325-.313.4.4,0,0,0-.382.218v1.145c.046,0,.031.061.038.1a3.1,3.1,0,0,0,.252.821,3.054,3.054,0,0,0,.947,1.264,3.471,3.471,0,0,0,2.963.809,5.525,5.525,0,0,0,1.886-.874l.874-.5a5.638,5.638,0,0,0,.676-.416,3.055,3.055,0,0,0,.977-1.012,3.165,3.165,0,0,0,.5-1.359,3.435,3.435,0,0,0-.126-1.588" transform="translate(-448.89 -94.275)"/><path class="c" d="M485.129,100.546V97.621c0-.1,0-.145-.126-.134a3.181,3.181,0,0,1-.382,0c-.1,0-.122.031-.122.126v1.81a2.069,2.069,0,1,0,0,3.02v.355c0,.111.031.107.111.1a3.181,3.181,0,0,1,.382,0c.115,0,.137-.034.137-.141Zm-2.058,1.814a1.424,1.424,0,1,1,1.42-1.428h0a1.439,1.439,0,0,1-1.42,1.424" transform="translate(-468.748 -95.407)"/><path class="c" d="M504.653,101.242c-.111-.084-.332-.027-.5-.031-.069,0-.092.027-.088.092s0,.218,0,.359a2.085,2.085,0,0,0-1.6-.546,1.985,1.985,0,0,0-1.459.813,2.066,2.066,0,0,0,3.055,2.757v.359c0,.111.027.092.092.092a3.187,3.187,0,0,1,.382,0c.122,0,.16-.031.157-.157v-3.257c0-.164.076-.382-.031-.481m-2.043,3.356a1.424,1.424,0,1,1,1.006-.424,1.424,1.424,0,0,1-1.006.424" transform="translate(-480.847 -97.646)"/></g></g></svg>