<svg xmlns="http://www.w3.org/2000/svg" width="18.852" height="18.853" viewBox="0 0 18.852 18.853">
  <g id="global" transform="translate(-0.016 0.002)">
    <g id="Group_6221" data-name="Group 6221" transform="translate(0.016 -0.002)">
      <path id="Path_1780" data-name="Path 1780" d="M17.126,3.983a.157.157,0,0,0,0-.018c-.024-.034-.053-.063-.077-.1q-.264-.36-.559-.692c-.054-.061-.108-.121-.163-.18q-.3-.325-.637-.62c-.041-.036-.079-.074-.121-.11A9.44,9.44,0,0,0,13.78,1.06L13.7,1.022a9.366,9.366,0,0,0-.876-.39C12.758.608,12.7.585,12.633.565q-.4-.143-.808-.251c-.081-.022-.162-.044-.244-.063-.269-.063-.539-.11-.814-.15-.084-.012-.166-.028-.25-.038a8.854,8.854,0,0,0-2.136,0C8.3.073,8.214.089,8.13.1c-.275.039-.548.087-.814.15-.082.019-.163.041-.244.063q-.413.108-.808.251L6.071.632a9.361,9.361,0,0,0-.876.39c-.026.013-.053.025-.079.038A9.442,9.442,0,0,0,3.323,2.267c-.041.036-.079.073-.121.11A8.76,8.76,0,0,0,2.566,3c-.055.059-.109.119-.163.18q-.3.332-.559.692c-.024.033-.053.062-.077.1a.153.153,0,0,0-.008.018,9.368,9.368,0,0,0,0,10.883.147.147,0,0,0,.008.018c.024.034.053.063.077.1q.263.36.559.692c.054.061.108.121.163.18q.3.325.637.62c.041.036.079.074.121.11a9.44,9.44,0,0,0,1.788,1.207l.079.038a9.367,9.367,0,0,0,.876.39c.067.024.129.047.193.067q.4.143.808.251c.081.022.162.044.244.063.269.063.539.11.814.15.084.012.166.028.25.038a8.854,8.854,0,0,0,2.136,0c.084-.01.166-.026.25-.038.275-.039.548-.087.814-.15.082-.019.163-.041.244-.063q.414-.108.808-.251l.193-.067a9.362,9.362,0,0,0,.876-.39c.026-.013.053-.025.079-.038a9.442,9.442,0,0,0,1.788-1.207c.041-.036.079-.073.121-.11a8.575,8.575,0,0,0,.637-.62c.055-.059.109-.119.163-.18q.3-.333.559-.692c.024-.033.053-.062.077-.1a.152.152,0,0,0,.008-.018A9.368,9.368,0,0,0,17.126,3.983Zm-.768,1.274a8.014,8.014,0,0,1,1.136,3.494H13.459a12.568,12.568,0,0,0-.377-2.377A12.1,12.1,0,0,0,16.357,5.258Zm-5.2-3.729c.038.009.074.021.112.03a7.248,7.248,0,0,1,.714.2c.036.012.071.026.106.039q.348.121.684.269l.117.057q.321.153.628.331l.135.081q.291.178.566.381c.047.034.094.067.141.105a6.145,6.145,0,0,1,.516.433c.043.039.088.077.13.118.172.164.337.337.5.516.02.024.042.045.062.067a11.3,11.3,0,0,1-2.873.923,17.126,17.126,0,0,0-1.813-3.6C10.971,1.5,11.067,1.508,11.159,1.529ZM6.776,8.751A11.238,11.238,0,0,1,7.146,6.6a19.3,19.3,0,0,0,2.3.135,19.343,19.343,0,0,0,2.3-.138,11.217,11.217,0,0,1,.368,2.159Zm5.34,1.347a11.238,11.238,0,0,1-.37,2.155,19.712,19.712,0,0,0-4.6,0A11.22,11.22,0,0,1,6.776,10.1ZM9.446,1.782a16.267,16.267,0,0,1,1.877,3.5,17.826,17.826,0,0,1-1.877.1,17.961,17.961,0,0,1-1.875-.1A16.4,16.4,0,0,1,9.446,1.782ZM3.391,4.089c.158-.179.323-.352.5-.516.042-.04.087-.079.13-.118q.249-.227.516-.433c.046-.036.094-.067.141-.105q.275-.2.566-.381l.135-.081Q5.68,2.276,6,2.125l.117-.057q.335-.152.684-.269c.035-.013.067-.027.106-.039.234-.078.471-.143.714-.2.038-.009.074-.021.112-.029.092-.02.188-.03.282-.046A17.127,17.127,0,0,0,6.2,5.081a11.3,11.3,0,0,1-2.873-.923C3.349,4.134,3.371,4.113,3.391,4.089ZM2.534,5.258A12.1,12.1,0,0,0,5.809,6.374a12.568,12.568,0,0,0-.376,2.377H1.4A8.015,8.015,0,0,1,2.534,5.258Zm0,8.334A8.014,8.014,0,0,1,1.4,10.1H5.432a12.568,12.568,0,0,0,.377,2.377A12.1,12.1,0,0,0,2.534,13.592Zm5.2,3.729c-.038-.009-.074-.021-.112-.03a7.248,7.248,0,0,1-.714-.2c-.036-.012-.071-.026-.106-.039q-.348-.121-.684-.269L6,16.724q-.321-.153-.628-.331l-.135-.081q-.291-.178-.566-.381c-.047-.034-.094-.067-.141-.105a6.145,6.145,0,0,1-.516-.433c-.043-.039-.088-.077-.13-.118-.172-.164-.337-.337-.5-.516-.02-.024-.042-.045-.062-.067A11.3,11.3,0,0,1,6.2,13.77a17.126,17.126,0,0,0,1.813,3.6C7.92,17.351,7.825,17.341,7.732,17.321Zm1.713-.253a16.267,16.267,0,0,1-1.877-3.5,17.534,17.534,0,0,1,3.753,0h0A16.392,16.392,0,0,1,9.446,17.068ZM15.5,14.76c-.158.179-.323.352-.5.516-.042.04-.087.079-.13.118q-.249.228-.516.433l-.141.105q-.275.2-.566.381l-.135.081q-.306.178-.628.331l-.117.057q-.335.152-.684.269c-.035.013-.067.027-.106.039-.234.078-.471.143-.714.2-.038.009-.074.021-.112.029-.092.02-.188.03-.282.046a17.124,17.124,0,0,0,1.813-3.6,11.3,11.3,0,0,1,2.873.923C15.542,14.715,15.521,14.737,15.5,14.76Zm.857-1.169a12.1,12.1,0,0,0-3.275-1.117,12.568,12.568,0,0,0,.376-2.377h4.034A8.015,8.015,0,0,1,16.357,13.592Z" transform="translate(-0.016 0.002)" fill="#49b748"/>
    </g>
  </g>
</svg>
