<svg xmlns="http://www.w3.org/2000/svg" width="28.189" height="25.428" viewBox="0 0 28.189 25.428"><defs><style>.a{fill:#49b748;}</style></defs><g transform="translate(399 -206.75)"><path class="a" d="M15.071,577.75H14.72a5.953,5.953,0,0,0-5.9,5.828v.291a6.273,6.273,0,0,0,5.953,6.522,6.273,6.273,0,0,0,5.953-6.522,5.953,5.953,0,0,0-5.656-6.119Zm-.291,11.411a5.032,5.032,0,0,1-4.716-5.292,4.63,4.63,0,0,1,4.412-4.855H14.8a4.716,4.716,0,0,1,4.723,4.63v.2C19.523,586.766,17.393,589.161,14.78,589.161Z" transform="translate(-401.986 -371)"/><path class="a" d="M28.04,602.645a6.039,6.039,0,0,0-5.867-4.73v-.165h0v.165a5.986,5.986,0,0,0-4.478,1.984h0l-.139.159-.205-.066a17.254,17.254,0,0,0-5.219-.754h-.423c-3.784,0-6.714.88-8.712,2.646a9.347,9.347,0,0,0-3,7.442.622.622,0,0,0,.615.622h22.4a.576.576,0,0,0,.318-.093h.132a6.019,6.019,0,0,0,4.577-7.21ZM1.25,608.691v-.351c.384-5.232,3.929-7.891,10.537-7.891h.284a16.612,16.612,0,0,1,4.346.575l.37.1-.146.357a5.953,5.953,0,0,0,1.217,6.648l.556.562Zm25.666-3.162a5,5,0,0,1-2.858,3.043l-.43.172h0a4.921,4.921,0,0,1-1.462.218h0a4.79,4.79,0,0,1-1.588-.265,5.034,5.034,0,0,1-3.149-6.37,5.6,5.6,0,0,1,.384-.847l.046-.086.112-.179.04-.053v-.053l.112-.165.06-.073v-.033c.093-.119.192-.232.291-.337h0l.37-.331a5.017,5.017,0,0,1,8.057,5.378Z" transform="translate(-399 -377.77)"/><path class="a" d="M35.186,605.377a.661.661,0,0,1-.046.251h0a.7.7,0,0,1-.139.205l-2.646,2.646a.659.659,0,1,1-.933-.933l1.521-1.522H28.9a.661.661,0,1,1,0-1.323H32.93l-.569-.562-.972-.946a.661.661,0,0,1,.45-1.144.622.622,0,0,1,.45.179l.046.04,2.646,2.646a.7.7,0,0,1,.139.205h0A.661.661,0,0,1,35.186,605.377Z" transform="translate(-408.56 -379.226)"/></g></svg>