<svg xmlns="http://www.w3.org/2000/svg" width="28.191" height="23.104" viewBox="0 0 28.191 23.104"><defs><style>.a{fill:#49b748;}</style></defs><g transform="translate(396.95 -43.74)"><path class="a" d="M28.078,414.74H4.212A2.2,2.2,0,0,0,2.05,416.9v18.779a2.2,2.2,0,0,0,2.2,2.162H28.078a2.2,2.2,0,0,0,2.162-2.162V416.9A2.2,2.2,0,0,0,28.078,414.74Zm.733,14.286H16.189v-4.794H28.8Zm0-6.223H15.471a.733.733,0,0,0-.733.733v6.223a.733.733,0,0,0,.733.733H28.8v5.226a.733.733,0,0,1-.733.733H4.212a.733.733,0,0,1-.733-.733V416.9a.733.733,0,0,1,.733-.733H28.078a.733.733,0,0,1,.733.733Z" transform="translate(-399 -371)"/><path class="a" d="M25.915,430.69a.777.777,0,1,1-.363-.735A.777.777,0,0,1,25.915,430.69Z" transform="translate(-404.958 -375.031)"/></g></svg>