<svg xmlns="http://www.w3.org/2000/svg" width="25" height="30.736" viewBox="0 0 25 30.736">
  <path id="Path_4000" data-name="Path 4000" d="M29.98,115.172H27.525V109.5a9.4,9.4,0,0,0-6.5-9.021l-.512-.168.3-.44a3.2,3.2,0,0,0,.568-1.823,3.235,3.235,0,1,0-6.47,0,3.2,3.2,0,0,0,.568,1.823l.3.44-.512.168a9.4,9.4,0,0,0-6.5,9.021v5.67H6.348a.7.7,0,0,0-.688.688v5.022a.7.7,0,0,0,.688.688h7.2l.072.312a4.647,4.647,0,0,0,9.085,0l.064-.312h7.2a.7.7,0,0,0,.7-.688V115.86a.7.7,0,0,0-.68-.688ZM16.329,98.042a1.871,1.871,0,0,1,.56-1.28,1.831,1.831,0,0,1,1.3-.536h.04a1.847,1.847,0,0,1,1.807,1.815,1.815,1.815,0,0,1-.52,1.312,1.839,1.839,0,0,1-1.3.552h-.048a1.839,1.839,0,0,1-1.839-1.823ZM10.171,109.5a8,8,0,1,1,15.995,0v5.67H10.171Zm11.044,12.652a3.263,3.263,0,0,1-2.991,2.087h-.056a3.255,3.255,0,0,1-3.047-2.087l-.208-.544h6.51Zm8.077-1.927H7.044v-3.671H29.292Z" transform="translate(-5.66 -94.815)" fill="#49b748"/>
</svg>
