<svg xmlns="http://www.w3.org/2000/svg" width="28.498" height="26.523" viewBox="0 0 28.498 26.523"><defs><style>.a{fill:#49b748;}</style></defs><g transform="translate(398.301 -144.52)"><path class="a" d="M28.2,530.956a2.389,2.389,0,0,0-.946-.421l-.283-.055V517.156a1.684,1.684,0,0,0-1.691-1.636H4.7a1.74,1.74,0,0,0-1.719,1.712V529.41l-.29.041A2.361,2.361,0,0,0,.7,531.819v7.594a2.3,2.3,0,0,0,2.278,2.34H4.359a2.216,2.216,0,0,0,1.712-.849l.131-.179.221.048,2.609.621a26.083,26.083,0,0,0,5.764.649h1.6c3.452,0,6.054-.221,8.47-3.044l3.811-4.618.048-.069a2.375,2.375,0,0,0-.532-3.355Zm-9.844-14.083h7.276v3.893H18.352Zm-5.35,0h4v3.893H13Zm4,5.247v2.6h-4v-2.6ZM4.29,516.873h7.373v3.893H4.29Zm.9,22.533a.967.967,0,0,1-.828,1.022H2.978a.966.966,0,0,1-.849-1.035L2.081,531.8a.967.967,0,0,1,.849-1.029H4.359a.973.973,0,0,1,.849,1.056Zm1.167-8.484a2.271,2.271,0,0,0-1.774-1.443l-.29-.041v-7.331h7.373v3.286a.69.69,0,0,0,.69.69h5.329a.69.69,0,0,0,.69-.69v-3.286h7.255v8.657l-.152.1a2.5,2.5,0,0,0-.463.387l-2.52,2.761-.594.649v-1.07a2.209,2.209,0,0,0-2.181-2.154H15.77a5,5,0,0,1-1.691-.621l-.09-.041-.442-.207a6.621,6.621,0,0,0-2.761-.628,6.483,6.483,0,0,0-2.955.69l-.96.483-.1.055H6.464Zm21.214,2.589-3.776,4.618c-2.14,2.437-3.831,2.54-7.456,2.54H14.845a26.129,26.129,0,0,1-5.523-.594l-2.5-.6-.262-.069v-6.7l.193-.1,1.684-.856a5.122,5.122,0,0,1,4.556-.076l.518.248a5.48,5.48,0,0,0,2.375.752H19.76a.835.835,0,0,1,.835.835v1.47H12.781v-.172h0v.172a.69.69,0,0,0,0,1.381h7.746a3.707,3.707,0,0,0,2.685-1.187l2.761-3.031a1.035,1.035,0,0,1,.759-.338,1.022,1.022,0,0,1,.69.276.987.987,0,0,1,.145,1.422Z" transform="translate(-399 -371)"/></g></svg>