<svg xmlns="http://www.w3.org/2000/svg" width="22.353" height="22.353" viewBox="0 0 22.353 22.353">
  <g id="Group_8023" data-name="Group 8023" transform="translate(-22.5 -124.5)">
    <g id="cross_1_" data-name="cross (1)" transform="translate(22.5 124.5)">
      <g id="Group_6126" data-name="Group 6126" transform="translate(0 0)">
        <g id="Group_6125" data-name="Group 6125">
          <path id="Path_1710" data-name="Path 1710" d="M19.079,3.273A11.176,11.176,0,0,0,3.273,19.079,11.176,11.176,0,0,0,19.079,3.273Zm-.926,14.88A9.867,9.867,0,1,1,4.2,4.2,9.867,9.867,0,1,1,18.153,18.153Z" transform="translate(0 0)" fill="#49b748"/>
        </g>
      </g>
    </g>
    <g id="Layer_2" data-name="Layer 2" transform="translate(28.254 129.911)">
      <g id="Layer_1" data-name="Layer 1" transform="translate(0 0)">
        <g id="Path_3969" data-name="Path 3969" transform="translate(0 0)" fill="#49b748">
          <path d="M 8.214658737182617 11.18476486206055 L 2.996568441390991 11.18476486206055 C 2.584098339080811 11.18477439880371 2.246328353881836 10.84921455383301 2.243618488311768 10.43675518035889 L 2.243618488311768 9.090644836425781 L 2.243618488311768 8.990644454956055 L 2.14361834526062 8.990644454956055 L 0.8473484516143799 8.990644454956055 L 0.8391284346580505 8.990644454956055 L 0.8310184478759766 8.991984367370605 C 0.8206784129142761 8.993694305419922 0.8101184368133545 8.994565010070801 0.7996484637260437 8.994565010070801 C 0.7891684174537659 8.994565010070801 0.7786184549331665 8.993694305419922 0.7682884335517883 8.991984367370605 L 0.7654584646224976 8.991524696350098 L 0.7626184225082397 8.991214752197266 C 0.3852284252643585 8.950724601745605 0.1003684401512146 8.633975028991699 0.09999843686819077 8.254414558410645 L 0.09999843686819077 3.030154705047607 C 0.1026784405112267 2.621044635772705 0.4382384419441223 2.285494804382324 0.8480084538459778 2.282814741134644 L 2.14361834526062 2.282814741134644 L 2.243618488311768 2.282814741134644 L 2.243618488311768 2.182814836502075 L 2.243618488311768 0.852874755859375 C 2.243618488311768 0.4376947581768036 2.581388473510742 0.09991474449634552 2.996568441390991 0.09991474449634552 L 8.21531867980957 0.09991474449634552 L 8.228878021240234 0.09980474412441254 C 8.510998725891113 0.09980474412441254 8.763888359069824 0.2569647431373596 8.888838768005371 0.5099547505378723 C 8.944168090820313 0.6136947274208069 8.96924877166748 0.7274147272109985 8.962828636169434 0.8416447639465332 L 8.962668418884277 0.844444751739502 L 8.962668418884277 0.847254753112793 L 8.962668418884277 2.182814836502075 L 8.962668418884277 2.282814741134644 L 9.062668800354004 2.282814741134644 L 10.39821815490723 2.282814741134644 C 10.80080890655518 2.296104669570923 11.12066841125488 2.624664783477783 11.12311840057373 3.030754804611206 L 11.12311840057373 8.254514694213867 C 11.12066841125488 8.659995079040527 10.80080890655518 8.988564491271973 10.39492797851563 9.001914978027344 L 9.062668800354004 9.001864433288574 L 8.962668418884277 9.001864433288574 L 8.962668418884277 9.101864814758301 L 8.962668418884277 10.43741512298584 C 8.959988594055176 10.84652519226074 8.624428749084473 11.18208503723145 8.214658737182617 11.18476486206055 Z M 3.08656907081604 7.518394947052002 C 3.168175458908081 7.527651786804199 3.245569944381714 7.553284645080566 3.316668510437012 7.594624519348145 L 3.320068359375 7.59659481048584 L 3.323618412017822 7.598304748535156 C 3.578728437423706 7.720934867858887 3.73978853225708 7.972944736480713 3.7439284324646 8.255974769592285 L 3.743918418884277 9.096254348754883 L 3.743918418884277 9.584454536437988 L 3.743918418884277 9.684454917907715 L 3.843918323516846 9.684454917907715 L 7.367978572845459 9.684454917907715 L 7.467978477478027 9.684454917907715 L 7.467978477478027 9.584454536437988 L 7.467978477478027 8.248905181884766 C 7.468358516693115 7.966524600982666 7.625628471374512 7.712624549865723 7.878408432006836 7.586424827575684 L 7.881258487701416 7.585004806518555 L 7.884008407592773 7.583404541015625 C 7.955097198486328 7.542064666748047 8.032482147216797 7.51643180847168 8.114097595214844 7.507174968719482 L 9.539648056030273 7.507174968719482 L 9.6396484375 7.507174968719482 L 9.6396484375 7.407174587249756 L 9.6396484375 3.877504825592041 L 9.6396484375 3.777504682540894 L 9.539648056030273 3.777504682540894 L 8.136547088623047 3.777504682540894 C 8.054931640625 3.768247604370117 7.977537155151367 3.742614984512329 7.906448364257813 3.701274633407593 L 7.90142822265625 3.698354721069336 L 7.896108627319336 3.696034669876099 C 7.666537284851074 3.596038103103638 7.502820491790771 3.390311479568481 7.456758499145508 3.144582033157349 L 7.456758499145508 1.683384776115417 L 7.456758499145508 1.58338475227356 L 7.356758594512939 1.58338475227356 L 3.832698345184326 1.58338475227356 L 3.732698440551758 1.58338475227356 L 3.732698440551758 1.683384776115417 L 3.732698440551758 2.053744792938232 L 3.732698440551758 3.035764694213867 C 3.732308387756348 3.318154811859131 3.575038433074951 3.572054862976074 3.322278499603271 3.69824481010437 L 3.318648338317871 3.70005464553833 L 3.315178394317627 3.702154636383057 C 3.244083166122437 3.745172262191772 3.163072347640991 3.773112058639526 3.080553770065308 3.783114671707153 L 1.683468461036682 3.783114671707153 L 1.583468437194824 3.783114671707153 L 1.583468437194824 3.883114814758301 L 1.583468437194824 7.418394565582275 L 1.583468437194824 7.518394947052002 L 1.683468461036682 7.518394947052002 L 3.08656907081604 7.518394947052002 Z" stroke="none"/>
          <path d="M 8.228899002075195 0.1998043060302734 L 8.21531867980957 0.1999149322509766 L 2.99656867980957 0.1999149322509766 C 2.636528015136719 0.1999149322509766 2.343618392944336 0.4928350448608398 2.343618392944336 0.852874755859375 L 2.343618392944336 2.182814598083496 L 2.343618392944336 2.382814407348633 L 2.143618583679199 2.382814407348633 L 0.848658561706543 2.382814407348633 C 0.4933185577392578 2.38514518737793 0.2023286819458008 2.676124572753906 0.1999988555908203 3.030155181884766 L 0.1999988555908203 8.254324913024902 C 0.2003087997436523 8.582704544067383 0.4467687606811523 8.856754302978516 0.7732782363891602 8.89178466796875 L 0.7789487838745117 8.89239501953125 L 0.7845687866210938 8.893324851989746 C 0.7895488739013672 8.894145011901855 0.7946281433105469 8.894564628601074 0.7996482849121094 8.894564628601074 C 0.8046684265136719 8.894564628601074 0.809748649597168 8.894145011901855 0.8147487640380859 8.893314361572266 L 0.8309383392333984 8.890645027160645 L 0.8473482131958008 8.890645027160645 L 2.143618583679199 8.890645027160645 L 2.343618392944336 8.890645027160645 L 2.343618392944336 9.090644836425781 L 2.343618392944336 10.4361047744751 C 2.345968246459961 10.79377460479736 2.63887882232666 11.08476448059082 2.99656867980957 11.08476448059082 L 8.214008331298828 11.08476448059082 C 8.569348335266113 11.08243465423584 8.86033821105957 10.79144477844238 8.862668991088867 10.43741512298584 L 8.862668991088867 9.101864814758301 L 8.862668991088867 8.901865005493164 L 9.062667846679688 8.901865005493164 L 10.39473724365234 8.901865005493164 C 10.7452392578125 8.888713836669922 11.02099514007568 8.604436874389648 11.023118019104 8.254514694213867 L 11.023118019104 3.031364440917969 C 11.02099514007568 2.68023681640625 10.7452507019043 2.395956039428711 10.39474964141846 2.382814407348633 L 9.062667846679688 2.382814407348633 L 8.862668991088867 2.382814407348633 L 8.862668991088867 2.182814598083496 L 8.862668991088867 0.847254753112793 L 8.862668991088867 0.8416347503662109 L 8.862988471984863 0.836024284362793 C 8.868378639221191 0.7401151657104492 8.847308158874512 0.6446151733398438 8.802068710327148 0.5598649978637695 L 8.800578117370605 0.5570745468139648 L 8.799178123474121 0.5542449951171875 C 8.691198348999023 0.3356151580810547 8.472678184509277 0.1998043060302734 8.228899002075195 0.1998043060302734 M 7.556758403778076 3.134978294372559 C 7.598935127258301 3.344154357910156 7.739729404449463 3.518843173980713 7.93604850769043 3.604354858398438 L 7.946688652038574 3.60898494720459 L 7.956728458404541 3.614824771881104 C 8.014216423034668 3.648268222808838 8.076669692993164 3.669328689575195 8.14249324798584 3.677504539489746 L 9.539648056030273 3.677504539489746 L 9.739648818969727 3.677504539489746 L 9.739648818969727 3.877504825592041 L 9.739648818969727 7.407175064086914 L 9.739648818969727 7.607174873352051 L 9.539648056030273 7.607174873352051 L 8.12004280090332 7.607174873352051 C 8.054220199584961 7.615350723266602 7.991766929626465 7.636410713195801 7.93427848815918 7.669844627380371 L 7.928768157958984 7.673044681549072 L 7.923068523406982 7.675894737243652 C 7.704368591308594 7.785074710845947 7.568308353424072 8.004744529724121 7.567978382110596 8.248905181884766 L 7.567978382110596 9.584454536437988 L 7.567978382110596 9.784454345703125 L 7.367978096008301 9.784454345703125 L 3.843918323516846 9.784454345703125 L 3.643918514251709 9.784454345703125 L 3.643918514251709 9.584454536437988 L 3.643918514251709 9.096254348754883 L 3.643938541412354 8.257444381713867 C 3.640358448028564 8.012564659118652 3.501018524169922 7.794524669647217 3.280288219451904 7.688434600830078 L 3.273208618164063 7.685024738311768 L 3.266408443450928 7.681075096130371 C 3.208901405334473 7.647631645202637 3.14644718170166 7.626570701599121 3.080623626708984 7.61839485168457 L 1.683468818664551 7.61839485168457 L 1.483468055725098 7.61839485168457 L 1.483468055725098 7.418395042419434 L 1.483468055725098 3.883114814758301 L 1.483468055725098 3.683114528656006 L 1.683468818664551 3.683114528656006 L 3.074231147766113 3.683114528656006 C 3.140790939331055 3.674230098724365 3.205989837646484 3.651329517364502 3.263408660888672 3.616594791412354 L 3.27034854888916 3.6123948097229 L 3.277608394622803 3.608774662017822 C 3.496298313140869 3.49960470199585 3.632358551025391 3.279934883117676 3.632698535919189 3.035764694213867 L 3.632698535919189 2.053744316101074 L 3.632698535919189 1.683384895324707 L 3.632698535919189 1.48338508605957 L 3.832698345184326 1.48338508605957 L 7.356758117675781 1.48338508605957 L 7.556758403778076 1.48338508605957 L 7.556758403778076 1.683384895324707 L 7.556758403778076 3.134978294372559 M 8.228900909423828 -0.000194549560546875 C 8.546634674072266 -0.0001926422119140625 8.837446212768555 0.1800909042358398 8.978498458862305 0.4656744003295898 C 9.040998458862305 0.5827445983886719 9.070117950439453 0.7147550582885742 9.062667846679688 0.847254753112793 L 9.062667846679688 2.182814598083496 L 10.39821815490723 2.182814598083496 C 10.85612869262695 2.197875022888184 11.2203483581543 2.572004318237305 11.22311878204346 3.030155181884766 L 11.22311878204346 8.254514694213867 C 11.2203483581543 8.712675094604492 10.85612869262695 9.086794853210449 10.39821815490723 9.101864814758301 L 9.062667846679688 9.101864814758301 L 9.062667846679688 10.43741512298584 C 9.059608459472656 10.90411472320557 8.682028770446777 11.28170490264893 8.21531867980957 11.28476428985596 L 2.99656867980957 11.28476428985596 C 2.527678489685059 11.28476428985596 2.146697998046875 10.90629482269287 2.143618583679199 10.43741512298584 L 2.143618583679199 9.090644836425781 L 0.8473482131958008 9.090644836425781 C 0.8315534591674805 9.093259811401367 0.8155984878540039 9.09456729888916 0.7996444702148438 9.09456729888916 C 0.78369140625 9.09456729888916 0.7677383422851563 9.093259811401367 0.751948356628418 9.090644836425781 C 0.3245887756347656 9.044795036315918 0.000408172607421875 8.684334754943848 -1.9073486328125e-06 8.254514694213867 L -1.9073486328125e-06 3.030155181884766 C 0.003058433532714844 2.563454627990723 0.3806381225585938 2.185874938964844 0.8473482131958008 2.182814598083496 L 2.143618583679199 2.182814598083496 L 2.143618583679199 0.852874755859375 C 2.143618583679199 0.3817949295043945 2.525498390197754 -8.487701416015625e-05 2.99656867980957 -8.487701416015625e-05 L 8.21531867980957 -8.487701416015625e-05 C 8.219852447509766 -0.0001583099365234375 8.224376678466797 -0.000194549560546875 8.228900909423828 -0.000194549560546875 Z M 9.539648056030273 7.407175064086914 L 9.539648056030273 3.877504825592041 L 8.131148338317871 3.877504825592041 C 8.034178733825684 3.867334842681885 7.940468788146973 3.836734771728516 7.856178283691406 3.787714958190918 C 7.593898773193359 3.673474788665771 7.40635871887207 3.435354709625244 7.356758117675781 3.15361499786377 L 7.356758117675781 1.683384895324707 L 3.832698345184326 1.683384895324707 L 3.832698345184326 2.053744316101074 L 3.832698345184326 3.035764694213867 C 3.832258224487305 3.35436487197876 3.651988506317139 3.64541482925415 3.366938591003418 3.787714958190918 C 3.281418323516846 3.839454650878906 3.185688018798828 3.872004508972168 3.086358070373535 3.883114814758301 L 1.683468818664551 3.883114814758301 L 1.683468818664551 7.418395042419434 L 3.091968536376953 7.418395042419434 C 3.188938140869141 7.42856502532959 3.28264856338501 7.459164619445801 3.366938591003418 7.508174896240234 C 3.654548645019531 7.646424770355225 3.839248657226563 7.935434818267822 3.843918323516846 8.254514694213867 L 3.843918323516846 9.096254348754883 L 3.843918323516846 9.584454536437988 L 7.367978096008301 9.584454536437988 L 7.367978096008301 8.248905181884766 C 7.368408203125 7.930304527282715 7.548688411712646 7.639265060424805 7.833738327026367 7.496954917907715 C 7.918018341064453 7.447944641113281 8.011738777160645 7.41734504699707 8.108697891235352 7.407175064086914 L 9.539648056030273 7.407175064086914 Z" stroke="none" fill="#fff"/>
        </g>
      </g>
    </g>
  </g>
</svg>
