<svg xmlns="http://www.w3.org/2000/svg" width="29.469" height="27.715" viewBox="0 0 29.469 27.715"><defs><style>.a{fill:#46b945;}.b{fill:#4da751;}.c{fill:#fdb62f;}.d{fill:#fd7b2f;}.e{fill:#de4c3c;}.f{fill:#dfe2e9;}.g{fill:#434a54;}.h{fill:#49b748;}.i{fill:#656d78;}.j{fill:#ccd1d9;}.k{fill:#e6e9ed;}</style></defs><g transform="translate(-457.22)"><g transform="translate(457.22 0)"><g transform="translate(8.754 -54.067)"><path class="a" d="M1.534,159.771H19.18a1.535,1.535,0,0,1,1.534,1.534v9.974a1.535,1.535,0,0,1-1.534,1.534H1.534A1.535,1.535,0,0,1,0,171.279v-9.974A1.535,1.535,0,0,1,1.534,159.771Z" transform="translate(0 -103.704)"/><path class="b" d="M116.062,159.771h-.307c-3.621,6.429-10.388,10.839-14.518,13.043h14.825a1.535,1.535,0,0,0,1.534-1.534v-9.974A1.535,1.535,0,0,0,116.062,159.771Z" transform="translate(-96.882 -103.704)"/><rect class="c" width="3.836" height="3.069" transform="translate(1.918 57.985)"/><g transform="translate(1.918 59.136)"><rect class="d" width="1.151" height="0.767"/><rect class="d" width="1.151" height="0.767" transform="translate(2.685)"/></g><circle class="c" cx="1.918" cy="1.918" r="1.918" transform="translate(14.961 63.356)"/><circle class="e" cx="1.918" cy="1.918" r="1.918" transform="translate(12.659 63.356)"/><g transform="translate(1.534 57.985)"><rect class="f" width="2.302" height="0.767" transform="translate(0 5.754)"/><rect class="f" width="2.302" height="0.767" transform="translate(3.836 5.754)"/><rect class="f" width="2.302" height="0.767" transform="translate(7.672 5.754)"/><rect class="f" width="9.974" height="0.767" transform="translate(0 8.056)"/><rect class="f" width="0.767" height="1.534" transform="translate(11.892 0)"/><rect class="f" width="0.767" height="1.534" transform="translate(13.426 0)"/><rect class="f" width="0.767" height="1.534" transform="translate(14.961 0)"/><rect class="f" width="0.767" height="1.534" transform="translate(16.495 0)"/></g></g><path class="g" d="M474.727,18.72v2.428a1.948,1.948,0,0,1-1.948,1.948H459.168a1.948,1.948,0,0,1-1.948-1.948V18.72a1.948,1.948,0,0,0,1.948,1.934h13.611a1.948,1.948,0,0,0,1.948-1.934Z" transform="translate(-457.22 4.619)"/><rect class="h" width="12.636" height="3.897" transform="translate(2.428 2.428)"/><path class="i" d="M462.557,12.878V10.93h-2.923v1.948Zm0,3.9V14.826h-2.923v1.948Zm0,3.883V18.709h-2.923v1.948Zm0,3.854V22.606h-2.923v1.906Zm4.857-11.676V10.93h-2.909v1.948Zm0,3.9V14.826h-2.909v1.948Zm0,3.883V18.709h-2.909v1.948Zm0,3.9V22.606h-2.909v1.906ZM472.3,8.5V4.618H459.592V8.5Zm0,4.377V10.93h-2.923v1.948Zm0,3.9V14.826h-2.923v1.948Zm0,3.883V18.709h-2.923v1.948Zm0,3.9V22.606h-2.923v1.906Zm2.428-5.351v6.325a1.948,1.948,0,0,1-1.948,1.934H459.168a1.948,1.948,0,0,1-1.948-1.934V4.124a1.948,1.948,0,0,1,1.948-1.934h13.611a1.948,1.948,0,0,1,1.948,1.934Z" transform="translate(-457.22 -2.19)"/><rect class="j" width="2.923" height="1.948" transform="translate(2.428 20.91)"/><rect class="j" width="2.923" height="1.948" transform="translate(2.428 17.013)"/><rect class="j" width="2.923" height="1.948" transform="translate(7.3 17.013)"/><rect class="j" width="2.923" height="1.948" transform="translate(7.3 20.91)"/><rect class="j" width="2.923" height="1.948" transform="translate(12.156 20.91)"/><rect class="j" width="2.923" height="1.948" transform="translate(12.156 17.013)"/><rect class="j" width="2.923" height="1.948" transform="translate(12.156 13.131)"/><rect class="j" width="2.923" height="1.948" transform="translate(12.156 9.234)"/><rect class="j" width="2.923" height="1.948" transform="translate(7.3 13.131)"/><rect class="j" width="2.923" height="1.948" transform="translate(7.3 9.234)"/><rect class="j" width="2.923" height="1.948" transform="translate(2.428 13.131)"/><rect class="j" width="2.923" height="1.948" transform="translate(2.428 9.234)"/><rect class="k" width="2.923" height="1.948" transform="translate(2.428 20.416)"/><rect class="k" width="2.923" height="1.948" transform="translate(2.428 16.533)"/><rect class="k" width="2.923" height="1.948" transform="translate(7.3 16.533)"/><rect class="k" width="2.923" height="1.948" transform="translate(7.3 20.416)"/><rect class="k" width="2.923" height="1.948" transform="translate(12.156 20.416)"/><rect class="k" width="2.923" height="1.948" transform="translate(12.156 16.533)"/><rect class="k" width="2.923" height="1.948" transform="translate(12.156 12.636)"/><rect class="k" width="2.923" height="1.948" transform="translate(12.156 8.754)"/><rect class="k" width="2.923" height="1.948" transform="translate(7.3 12.636)"/><rect class="k" width="2.923" height="1.948" transform="translate(7.3 8.754)"/><rect class="k" width="2.923" height="1.948" transform="translate(2.428 12.636)"/><rect class="k" width="2.923" height="1.948" transform="translate(2.428 8.754)"/></g></g></svg>