<svg xmlns="http://www.w3.org/2000/svg" width="37.136" height="39.417" viewBox="0 0 37.136 39.417">
  <g id="noun_profile_2093505_1_" data-name="noun_profile_2093505 (1)" transform="translate(-2 -0.9)">
    <g id="Group_6512" data-name="Group 6512" transform="translate(2.7 1.9)">
      <g id="Group_6513" data-name="Group 6513">
        <g id="Group_6510" data-name="Group 6510" transform="translate(6.3)">
          <path id="Path_3178" data-name="Path 3178" d="M17.5,24.912A11.486,11.486,0,0,1,5.9,13.5,11.647,11.647,0,0,1,17.5,1.9,11.526,11.526,0,0,1,29.1,13.5,11.367,11.367,0,0,1,17.5,24.912ZM17.5,4.7c-4.374,0-8.978,3.484-8.8,8.8a8.754,8.754,0,0,0,8.8,8.607,8.934,8.934,0,0,0,8.8-8.8A8.689,8.689,0,0,0,17.5,4.7Z" transform="translate(-5.9 -2.9)" fill="#F26D26"/>
        </g>
        <g id="Group_6511" data-name="Group 6511" transform="translate(-0.7 19.208)">
          <path id="Path_3179" data-name="Path 3179" d="M37.84,31.208H4.7a1.843,1.843,0,0,1-2-1.9C2.7,19.8,10.886,12,20.869,12h.8c9.983,0,18.169,7.8,18.169,17.307A1.957,1.957,0,0,1,37.84,31.208ZM6.266,28.439H36.442c.991-6.6-7.967-13.862-14.775-13.249h-.8C13.481,14.624,5.513,21.744,6.266,28.439Z" transform="translate(-2.7 -12)" fill="#F26D26"/>
        </g>
      </g>
    </g>
  </g>
</svg>
