<svg xmlns="http://www.w3.org/2000/svg" width="22.6" height="30.293" viewBox="0 0 22.6 30.293"><defs><style>.a{fill:#49b748;}</style></defs><g transform="translate(392 -85.16)"><rect class="a" width="0.01" height="0.02" transform="translate(-384.74 105.607)"/><path d="M16.23,482.13h-.02v.02h.02v-.02Z" transform="translate(-400.959 -376.523)"/><path class="a" d="M28.765,474.673H26.537v-13.04a1.977,1.977,0,0,0-1.977-1.969H21.174v-2.717a.787.787,0,0,0-.787-.787H13.158a.787.787,0,0,0-.787.787v2.717H8.953A1.992,1.992,0,0,0,7,461.641v19.8a1.992,1.992,0,0,0,1.984,1.977H17.8v2.244a.787.787,0,0,0,.787.787h7.2a.787.787,0,0,0,.787-.787V483.43h2.236a.787.787,0,0,0,.787-.787v-7.2a.787.787,0,0,0-.835-.772ZM13.922,457.719H19.6v1.945H13.922Zm-5.347,11h3.15v5.646H8.575Zm6.3,6.733v6.41H8.567v-5.914h3.945a.787.787,0,0,0,.787-.787v-7.2a.787.787,0,0,0-.787-.787H8.575v-5.937H24.97v10.442H18.56a.787.787,0,0,0-.787.787V474.7h-2.2a.788.788,0,0,0-.74.756Zm13.166,1.15v5.276H25.678a.489.489,0,0,0-.2.071.787.787,0,0,0-.378.386.614.614,0,0,0-.063.307v2.244H19.6l-.118-.11a.693.693,0,0,1-.118-.583v-.787a2.315,2.315,0,0,0-.134-1.11.74.74,0,0,0-.583-.354H16.371v-5.685h2.3a.488.488,0,0,0,.2-.071.787.787,0,0,0,.465-.7V473.2h5.646v2.362a.788.788,0,0,0,.512.583.473.473,0,0,0,.189.047h2.307Z" transform="translate(-399 -371)"/></g></svg>