<?xml version="1.0" encoding="UTF-8"?>
<!DOCTYPE svg PUBLIC "-//W3C//DTD SVG 1.1//EN" "http://www.w3.org/Graphics/SVG/1.1/DTD/svg11.dtd">
<!-- Creator: CorelDRAW 2019 (64-Bit) -->
<svg xmlns="http://www.w3.org/2000/svg" xml:space="preserve" width="2.88331in" height="0.864268in" version="1.1" style="shape-rendering:geometricPrecision; text-rendering:geometricPrecision; image-rendering:optimizeQuality; fill-rule:evenodd; clip-rule:evenodd"
viewBox="0 0 2877.71 862.59"
 xmlns:xlink="http://www.w3.org/1999/xlink">
 <defs>
  <style type="text/css">
   <![CDATA[
    .fil0 {fill:#F26424;fill-rule:nonzero}
   ]]>
  </style>
 </defs>
 <g id="Layer_x0020_1">
  <metadata id="CorelCorpID_0Corel-Layer"/>
  <g id="_2249897464608">
   <path class="fil0" d="M2235.81 343.31c-7.22,-59.15 -37.51,-85.11 -96.65,-82.23 -46.15,1.45 -76.42,33.2 -79.31,82.23l175.96 0zm173.09 90.89l-349.05 0c-1.47,51.93 31.72,87.97 82.2,89.42 31.73,1.43 59.13,-4.34 77.89,-34.61l2.88 -4.34 178.88 -1.43c0,0 -1.46,8.65 -2.88,11.53 -18.77,66.36 -64.92,105.28 -129.8,122.59 -77.93,20.21 -157.25,20.21 -235.12,1.44 -79.36,-18.75 -126.96,-70.68 -141.39,-151.45 -10.09,-54.81 -10.09,-109.62 1.46,-164.44 15.86,-77.88 63.46,-125.49 139.94,-144.24 77.88,-18.75 157.19,-18.75 233.65,1.43 80.77,21.65 125.49,75 137.04,155.79 4.32,36.06 4.32,111.06 4.32,118.29z"/>
   <path class="fil0" d="M872.68 341.87c0,-49.05 -33.18,-82.23 -86.54,-82.23 -53.38,0 -87.99,31.74 -87.99,82.23l174.53 0zm165.89 142.8c-10.11,43.26 -30.3,76.45 -63.46,102.4 -34.63,25.97 -75.01,37.53 -118.3,43.29 -60.59,7.21 -122.61,7.21 -183.19,-7.21 -86.55,-21.67 -137.04,-77.9 -147.14,-167.33 -5.77,-49.04 -5.77,-99.52 4.34,-148.58 17.31,-80.77 66.36,-128.38 144.25,-145.69 72.12,-15.85 145.69,-17.3 217.81,0 89.42,20.2 139.92,77.89 150.02,168.77 4.32,34.63 5.76,70.68 2.88,106.75 -119.71,0 -233.67,-1.44 -350.52,-1.44 2.9,73.56 66.36,112.5 131.27,82.21 12.97,-5.77 30.29,-21.64 38.94,-30.29 57.72,-2.88 115.41,-2.88 173.11,-2.88z"/>
   <polygon class="fil0" points="181.74,154.34 -0,154.34 281.27,27.42 232.24,27.42 -0,137.03 -0,111.08 187.51,27.42 141.35,27.42 -0,92.31 -0,69.23 87.98,28.85 46.16,28.85 -0,47.61 -0,1.46 576.98,1.46 576.98,47.61 532.25,27.42 486.11,27.42 576.98,67.81 576.98,90.88 435.61,27.42 389.45,27.42 576.98,111.08 576.98,132.71 353.4,27.42 295.7,27.42 576.98,154.34 392.34,154.34 392.34,621.71 181.74,621.71 "/>
   <path class="fil0" d="M1850.67 441.39c-2.88,27.42 -11.54,50.5 -18.75,72.12 -21.64,60.58 -69.24,93.77 -128.37,108.19 -76.45,18.74 -152.91,18.74 -229.36,0 -82.21,-20.2 -129.82,-73.58 -142.8,-157.23 -8.65,-54.82 -8.65,-111.07 4.34,-164.43 17.31,-75.01 64.9,-121.17 139.91,-138.48 77.89,-18.77 157.23,-18.77 233.68,1.43 87.98,23.08 125.49,80.79 138.48,163.02 0,2.88 0,7.19 1.44,10.07l-170.21 0c-2.9,-10.07 -5.78,-20.18 -10.08,-30.27 -11.54,-30.3 -34.63,-44.73 -66.36,-46.16 -11.53,-1.45 -23.08,-1.45 -34.64,1.43 -34.63,5.78 -54.83,28.86 -62.02,62.04 -10.11,44.7 -10.11,89.41 -1.46,132.69 10.11,47.62 36.07,67.8 83.68,67.8 49.05,0 75.01,-20.19 86.56,-66.34 1.41,-5.78 2.88,-10.12 4.31,-17.33 56.25,1.44 111.06,1.44 171.65,1.44z"/>
   <polygon class="fil0" points="2639.7,623.14 2456.5,623.14 2456.5,409.67 2456.5,17.32 2456.5,0.01 2639.7,0.01 "/>
   <polygon class="fil0" points="1096.25,0 1278.01,0 1278.01,621.7 1096.25,621.7 "/>
   <polygon class="fil0" points="2694.51,0 2876.25,0 2876.25,621.7 2694.51,621.7 "/>
   <polygon class="fil0" points="1908.36,861.15 184.61,861.15 184.61,703.91 1867.98,703.91 "/>
   <polygon class="fil0" points="1966.07,861.15 1928.56,703.91 1977.6,703.91 1994.92,804.9 2015.1,703.91 2056.96,703.91 2075.69,804.9 2091.56,703.91 2139.15,703.91 2101.65,861.15 2051.18,861.15 2033.89,767.38 2016.57,861.15 "/>
   <path class="fil0" d="M2204.06 806.34l31.75 0 -15.86 -54.82 -15.89 54.82zm-64.91 54.81l54.82 -157.24 50.48 0 54.81 157.24 -50.46 0 -5.77 -20.2 -50.51 0 -5.77 20.2 -47.61 0z"/>
   <polygon class="fil0" points="2315.13,861.15 2315.13,703.91 2365.65,703.91 2365.65,819.32 2434.88,819.32 2434.88,861.15 "/>
   <polygon class="fil0" points="2453.62,861.15 2453.62,703.91 2504.12,703.91 2504.12,819.32 2573.36,819.32 2573.36,861.15 "/>
   <polygon class="fil0" points="2593.54,861.15 2593.54,703.91 2719.03,703.91 2719.03,741.42 2644.04,741.42 2644.04,763.07 2707.5,763.07 2707.5,799.12 2644.04,799.12 2644.04,823.64 2721.92,823.64 2721.92,862.59 2593.54,862.59 "/>
   <polygon class="fil0" points="2781.05,861.15 2781.05,745.76 2736.33,745.76 2736.33,703.91 2877.71,703.91 2877.71,745.76 2832.98,745.76 2832.98,861.15 "/>
  </g>
 </g>
</svg>
