<svg xmlns="http://www.w3.org/2000/svg" xmlns:xlink="http://www.w3.org/1999/xlink" width="355" height="196" viewBox="0 0 355 196">
  <defs>
    <linearGradient id="linear-gradient" x1="0.015" y1="0.03" x2="0.991" y2="0.979" gradientUnits="objectBoundingBox">
      <stop offset="0" stop-color="#49b748"/>
      <stop offset="1" stop-color="#215d21"/>
    </linearGradient>
    <clipPath id="clip-path">
      <rect id="Rectangle_1710" data-name="Rectangle 1710" width="355" height="196" rx="15" fill="url(#linear-gradient)"/>
    </clipPath>
  </defs>
  <g id="Group_7097" data-name="Group 7097" transform="translate(-501 -203)">
    <rect id="Rectangle_1709" data-name="Rectangle 1709" width="355" height="196" rx="15" transform="translate(501 203)" fill="#a4a6aa"/>
    <g id="Mask_Group_3" data-name="Mask Group 3" transform="translate(501 203)" opacity="0.6" clip-path="url(#clip-path)">
      <g id="Group_7036" data-name="Group 7036" transform="translate(-5.255 -39.936)" opacity="0.2">
        <path id="Path_3582" data-name="Path 3582" d="M6092.563-525.139c39.964,9.326,82.624,26.955,97.746,63,10.816,25.784.032,43.091,14.127,61.855,20.18,26.863,64.591,21.085,115.691,21,39.542-.066,97.1,3.254,168.381,19.854" transform="translate(-6092.563 525.139)" fill="none" stroke="#fff" stroke-miterlimit="10" stroke-width="1"/>
        <path id="Path_3583" data-name="Path 3583" d="M6092.563-514.563c39.964,9.326,82.624,26.956,97.746,63,10.816,25.784.032,43.091,14.127,61.855,20.18,26.863,64.591,21.085,115.691,21,39.542-.066,97.1,3.255,168.381,19.854" transform="translate(-6092.563 521.15)" fill="none" stroke="#fff" stroke-miterlimit="10" stroke-width="1"/>
        <path id="Path_3584" data-name="Path 3584" d="M6092.563-503.987c39.964,9.326,82.624,26.956,97.746,63,10.816,25.784.032,43.091,14.127,61.855,20.18,26.863,64.591,21.085,115.691,21,39.542-.065,97.1,3.255,168.381,19.855" transform="translate(-6092.563 517.162)" fill="none" stroke="#fff" stroke-miterlimit="10" stroke-width="1"/>
        <path id="Path_3585" data-name="Path 3585" d="M6092.563-493.411c39.964,9.326,82.624,26.956,97.746,63,10.816,25.784.032,43.09,14.127,61.854,20.18,26.863,64.591,21.084,115.691,21,39.542-.065,97.1,3.255,168.381,19.855" transform="translate(-6092.563 513.174)" fill="none" stroke="#fff" stroke-miterlimit="10" stroke-width="1"/>
        <path id="Path_3586" data-name="Path 3586" d="M6092.563-482.835c39.964,9.326,82.624,26.955,97.746,63,10.816,25.785.032,43.09,14.127,61.854,20.18,26.863,64.591,21.084,115.691,21,39.542-.065,97.1,3.255,168.381,19.855" transform="translate(-6092.563 509.185)" fill="none" stroke="#fff" stroke-miterlimit="10" stroke-width="1"/>
        <path id="Path_3587" data-name="Path 3587" d="M6092.563-472.259c39.964,9.326,82.624,26.956,97.746,63,10.816,25.784.032,43.09,14.127,61.854,20.18,26.863,64.591,21.084,115.691,21,39.542-.065,97.1,3.255,168.381,19.855" transform="translate(-6092.563 505.197)" fill="none" stroke="#fff" stroke-miterlimit="10" stroke-width="1"/>
        <path id="Path_3588" data-name="Path 3588" d="M6092.563-461.683c39.964,9.326,82.624,26.956,97.746,63,10.816,25.785.032,43.09,14.127,61.855,20.18,26.863,64.591,21.084,115.691,21,39.542-.065,97.1,3.254,168.381,19.855" transform="translate(-6092.563 501.208)" fill="none" stroke="#fff" stroke-miterlimit="10" stroke-width="1"/>
        <path id="Path_3589" data-name="Path 3589" d="M6092.563-451.107c39.964,9.326,82.624,26.956,97.746,63,10.816,25.784.032,43.09,14.127,61.854,20.18,26.863,64.591,21.084,115.691,21,39.542-.065,97.1,3.255,168.381,19.855" transform="translate(-6092.563 497.22)" fill="none" stroke="#fff" stroke-miterlimit="10" stroke-width="1"/>
        <path id="Path_3590" data-name="Path 3590" d="M6092.563-440.531c39.964,9.326,82.624,26.955,97.746,63,10.816,25.784.032,43.09,14.127,61.855,20.18,26.863,64.591,21.084,115.691,21,39.542-.065,97.1,3.254,168.381,19.855" transform="translate(-6092.563 493.231)" fill="none" stroke="#fff" stroke-miterlimit="10" stroke-width="1"/>
        <path id="Path_3591" data-name="Path 3591" d="M6092.563-429.955c39.964,9.326,82.624,26.955,97.746,63,10.816,25.784.032,43.09,14.127,61.855,20.18,26.863,64.591,21.084,115.691,21,39.542-.065,97.1,3.255,168.381,19.855" transform="translate(-6092.563 489.243)" fill="none" stroke="#fff" stroke-miterlimit="10" stroke-width="1"/>
        <path id="Path_3592" data-name="Path 3592" d="M6092.563-419.379c39.964,9.325,82.624,26.955,97.746,63,10.816,25.784.032,43.09,14.127,61.854,20.18,26.863,64.591,21.084,115.691,21,39.542-.065,97.1,3.255,168.381,19.855" transform="translate(-6092.563 485.254)" fill="none" stroke="#fff" stroke-miterlimit="10" stroke-width="1"/>
        <path id="Path_3593" data-name="Path 3593" d="M6092.563-408.8c39.964,9.325,82.624,26.955,97.746,63,10.816,25.784.032,43.09,14.127,61.854,20.18,26.863,64.591,21.084,115.691,21,39.542-.065,97.1,3.254,168.381,19.855" transform="translate(-6092.563 481.266)" fill="none" stroke="#fff" stroke-miterlimit="10" stroke-width="1"/>
        <path id="Path_3594" data-name="Path 3594" d="M6092.563-398.227c39.964,9.325,82.624,26.955,97.746,63,10.816,25.784.032,43.09,14.127,61.855,20.18,26.863,64.591,21.084,115.691,21,39.542-.065,97.1,3.255,168.381,19.855" transform="translate(-6092.563 477.277)" fill="none" stroke="#fff" stroke-miterlimit="10" stroke-width="1"/>
        <path id="Path_3595" data-name="Path 3595" d="M6092.563-387.651c39.964,9.325,82.624,26.955,97.746,63,10.816,25.784.032,43.09,14.127,61.854,20.18,26.863,64.591,21.084,115.691,21,39.542-.065,97.1,3.255,168.381,19.855" transform="translate(-6092.563 473.289)" fill="none" stroke="#fff" stroke-miterlimit="10" stroke-width="1"/>
        <path id="Path_3596" data-name="Path 3596" d="M6092.563-377.075c39.964,9.325,82.624,26.955,97.746,63,10.816,25.784.032,43.09,14.127,61.855,20.18,26.863,64.591,21.084,115.691,21,39.542-.065,97.1,3.255,168.381,19.855" transform="translate(-6092.563 469.3)" fill="none" stroke="#fff" stroke-miterlimit="10" stroke-width="1"/>
        <path id="Path_3597" data-name="Path 3597" d="M6092.563-366.5c39.964,9.325,82.624,26.955,97.746,63,10.816,25.784.032,43.09,14.127,61.854,20.18,26.863,64.591,21.084,115.691,21,39.542-.065,97.1,3.255,168.381,19.855" transform="translate(-6092.563 465.312)" fill="none" stroke="#fff" stroke-miterlimit="10" stroke-width="1"/>
        <path id="Path_3598" data-name="Path 3598" d="M6092.563-355.923c39.964,9.325,82.624,26.955,97.746,63,10.816,25.784.032,43.09,14.127,61.854,20.18,26.863,64.591,21.085,115.691,21,39.542-.065,97.1,3.255,168.381,19.855" transform="translate(-6092.563 461.323)" fill="none" stroke="#fff" stroke-miterlimit="10" stroke-width="1"/>
      </g>
    </g>
  </g>
</svg>
