<svg xmlns="http://www.w3.org/2000/svg" xmlns:xlink="http://www.w3.org/1999/xlink" width="35.833" height="27.807" viewBox="0 0 35.833 27.807"><defs><style>.a{fill:url(#a);}.b{fill:url(#b);}</style><linearGradient id="a" x1="0.5" y1="-0.269" x2="0.5" y2="2.254" gradientUnits="objectBoundingBox"><stop offset="0" stop-color="#ffca3f"/><stop offset="0.097" stop-color="#ca7c22"/><stop offset="0.189" stop-color="#fddb7a"/><stop offset="0.42" stop-color="#ffad45"/><stop offset="0.554" stop-color="#a95f0d"/><stop offset="0.656" stop-color="#ffad45"/><stop offset="0.79" stop-color="#ffff9b"/><stop offset="0.868" stop-color="#ffed7b"/><stop offset="1" stop-color="#ffca3f"/></linearGradient><linearGradient id="b" y1="-0.881" y2="2.278" xlink:href="#a"/></defs><g transform="translate(0 0.004)"><path class="a" d="M3.724,0H32.11a3.723,3.723,0,0,1,3.723,3.723V24.081A3.724,3.724,0,0,1,32.109,27.8H3.725A3.725,3.725,0,0,1,0,24.08V3.724A3.724,3.724,0,0,1,3.724,0Z"/><path class="b" d="M97.3,126.365v-.641H90.872V117.6H90.23v8.12H85.023a5.747,5.747,0,0,0-4.948-4V117.6h-.641v4.071a5.751,5.751,0,0,0-5.381,4.049h-4.73V117.6h-.641v8.12h-6.47v.641h6.47v9.1h-6.47v.643h6.47v9.3h.641v-9.3h4.592a5.774,5.774,0,0,0,5.518,4.479v4.824h.641V140.54a5.765,5.765,0,0,0,5.082-4.435H90.23v9.3h.642v-9.3H97.3v-.643H93.467v-9.1Zm-23.472,9.1h-4.5v-9.1h4.545a5.792,5.792,0,0,0-.108,1.075,5.728,5.728,0,0,0,1.354,3.689,5.737,5.737,0,0,0-1.354,3.691,5.574,5.574,0,0,0,.062.642Zm5.709,4.491a5.117,5.117,0,0,1-3.759-8.606l.2-.218-.2-.217a5.133,5.133,0,1,1,7.518,0l-.2.217.2.218a5.117,5.117,0,0,1-3.759,8.606Zm13.288-4.491H85.246a5.572,5.572,0,0,0,.066-.642,5.737,5.737,0,0,0-1.354-3.691,5.728,5.728,0,0,0,1.354-3.689,5.791,5.791,0,0,0-.108-1.075h7.621Z" transform="translate(-61.467 -117.604)"/></g></svg>